<?xml version="1.0" encoding="utf-8"?>
<!-- Generator: Adobe Illustrator 19.2.1, SVG Export Plug-In . SVG Version: 6.00 Build 0)  -->
<svg version="1.1" id="Слой_1" xmlns="http://www.w3.org/2000/svg" xmlns:xlink="http://www.w3.org/1999/xlink" x="0px" y="0px"
	 width="42px" height="42px" viewBox="0 0 42 42" style="enable-background:new 0 0 42 42;" xml:space="preserve">
<style type="text/css">
	.st0{fill:#63BC4D;}
	.st1{fill:#64BC4E;}
</style>
<g>
	<path class="st0" d="M32.2,4c-0.2,0.2-0.4,0.5-0.5,0.7c-0.1,0.2-0.2,0.2-0.4,0.1c-0.2-0.2-0.7-0.4-0.7-0.6
		c-0.1-0.3,0.3-0.5,0.5-0.8c0.6-0.8,1.2-1.6,1.9-2.5C33.7,2,34.5,3,35.2,4c0.1,0.1,0.1,0.2,0,0.3c0,0,0,0,0,0
		c-0.3,0.2-0.5,0.6-0.9,0.5C34,4.8,33.8,4.3,33.6,4c-0.1,0.2-0.1,0.3-0.1,0.4c0,4.2,0,8.4,0,12.6c0,0.4-0.1,0.5-0.5,0.5
		c-0.8,0-0.8,0-0.8-0.9c0-4,0-8.1,0-12.1C32.2,4.4,32.2,4.2,32.2,4C32.2,4.1,32.2,4.1,32.2,4z"/>
	<path class="st0" d="M40,7.8c0,0.3,0,0.4,0,0.5c0,3.5,0,7.1,0,10.6c0,0.4-0.1,0.5-0.5,0.5c-0.8,0-0.8,0-0.8-0.8c0-3.4,0-6.8,0-10.2
		c0-0.1,0-0.3-0.1-0.5c-0.2,0.3-0.4,0.5-0.6,0.8c-0.1,0.1-0.2,0.2-0.3,0.1c-0.9-0.6-0.9-0.6-0.2-1.5c0.5-0.7,1.1-1.5,1.6-2.2
		c0.1-0.2,0.2-0.3,0.4,0c0.7,0.9,1.4,1.9,2.1,2.8c0.2,0.2,0.1,0.3-0.1,0.4c-0.3,0.2-0.5,0.5-0.8,0.5c-0.2,0-0.4-0.4-0.6-0.7
		C40.1,8,40.1,8,40,7.8z"/>
	<path class="st1" d="M32.2,19.7c0-1,0-1,1-1c0.2,0,0.3,0.1,0.3,0.3c0,0.5,0,0.9,0,1.4c0,0.2-0.1,0.3-0.2,0.2c0,0,0,0,0,0
		C32.2,20.8,32.2,20.8,32.2,19.7z"/>
	<path class="st0" d="M40,21.7c0,1,0,0.9-0.9,0.9c-0.2,0-0.3-0.1-0.3-0.3c0-0.4,0-0.9,0-1.3c0-0.2,0-0.3,0.3-0.3
		C40,20.7,40,20.7,40,21.7z"/>
	<path class="st0" d="M31.8,40.7c-0.2-0.2-0.5-0.1-0.8-0.2c-3.6-0.9-6-3.1-6.9-6.7c-1.3-4.8,1.7-9.7,6.6-10.9
		c4.8-1.2,9.7,1.8,10.9,6.7c0.1,0.4,0.1,0.7,0.2,1.1c0,0.7,0,1.4,0,2c-0.1,0.6-0.1,1.2-0.3,1.7c-0.4,1.2-1,2.4-1.9,3.4
		c-1.1,1.3-2.5,2.1-4.1,2.6c-0.6,0.2-1.2,0.1-1.8,0.3C33.2,40.7,32.5,40.7,31.8,40.7z M32.9,23.9c-4.2,0-7.8,3.5-7.8,7.8
		c0,4.3,3.4,7.7,7.7,7.7c4.2,0,7.7-3.4,7.8-7.7C40.7,27.5,37.2,23.9,32.9,23.9z"/>
	<path class="st0" d="M18.7,13.6c0-1.9,1.9-3.1,3.6-2.4c0.2,0.1,0.3,0.1,0.5,0c1.1-0.5,2.3-0.2,3.1,0.8c0.7,0.9,0.7,2.2,0,3.1
		c-0.7,1-2,1.3-3.1,0.8c-0.2-0.1-0.4-0.1-0.6,0C20.6,16.7,18.7,15.5,18.7,13.6z"/>
	<path class="st0" d="M32.9,31c0.8,0,1.7,0,2.5,0.4c1,0.6,1.6,1.9,1.3,3.1c-0.3,1.2-1.3,2.1-2.6,2.2c-0.1,0-0.2,0-0.3,0
		c-0.3,0-0.3,0.1-0.3,0.3c0,0.2,0,0.3,0,0.5c0.1,0.4-0.1,0.5-0.5,0.5c-0.8,0-0.9,0-0.8-0.8c0-0.5-0.2-0.5-0.5-0.5
		c-1.5-0.1-2.7-1.3-2.7-2.9c0-0.2,0.1-0.3,0.3-0.3c0,0,0,0,0,0c0.3,0,0.6-0.1,0.8,0c0.3,0.1,0.1,0.5,0.2,0.7
		c0.2,0.7,0.8,1.2,1.5,1.2c0.7,0,1.3,0,2,0c0.9,0,1.6-0.7,1.6-1.6c0-0.9-0.7-1.5-1.6-1.6c-0.8,0-1.5,0-2.3,0
		c-1.4-0.2-2.6-1.4-2.6-2.9c0-1.5,1.1-2.7,2.6-2.9c0.6-0.1,0.6-0.1,0.6-0.7c0-0.6,0-0.6,0.6-0.6c0.7,0,0.7,0,0.7,0.7
		c0,0.6,0,0.6,0.6,0.6c1.5,0.2,2.6,1.3,2.6,2.9c0,0.3-0.1,0.4-0.3,0.3c-0.1,0-0.1,0-0.2,0c-0.2,0-0.5,0.1-0.7,0
		c-0.2-0.1-0.1-0.4-0.1-0.6c-0.1-0.7-0.8-1.2-1.5-1.3c-0.7,0-1.4,0-2.1,0c-0.8,0-1.5,0.7-1.5,1.6c0,0.8,0.7,1.6,1.5,1.6
		C32.2,31,32.5,31,32.9,31z"/>
	<path class="st0" d="M2.4,1.1c0.3-0.3,0.7-0.3,1-0.4c8,0,16,0,24.1,0c0.3,0.1,0.6,0.1,0.9,0.3c0.5,0.4,0.8,0.9,0.8,1.6
		c0,0.1,0,0.3,0,0.4c0,4.5,0,9.1,0,13.6c0,0.6-0.1,1.1-0.5,1.6c-0.4,0.5-0.9,0.8-1.6,0.8c-1.2,0-2.4,0-3.6,0c-0.7,0-0.8,0.1-0.8,0.8
		c0,6.7,0,13.4,0,20.1c0,0.3,0.1,0.6-0.2,0.8c-6.9,0-13.8,0-20.6,0c0-12.8,0-25.7,0-38.5 M1.9,2.2C2,2,2.2,1.8,2.3,1.5
		C2.6,1.1,3,0.9,3.4,0.7 M3.6,8.5c-0.2,0-0.4-0.1-0.4,0.3c0,2.7,0,5.3,0,8c0,0.5,0.2,0.8,0.8,0.8c0.4,0,0.7,0,1.1,0
		c7.2,0,14.5,0,21.7,0c0.8,0,1-0.2,1-0.9c0-2.6,0-5.1,0-7.7c0-0.3-0.1-0.4-0.4-0.4c-3.9,0-7.9,0-11.8,0C11.5,8.5,7.6,8.5,3.6,8.5z
		 M19.4,19.1c0-0.3-0.1-0.4-0.3-0.4c-0.7,0-1.3,0-2,0c-0.1,0-0.3-0.1-0.4,0.1c-0.1,0.1,0.1,0.2,0.2,0.3c1.8,2.3,1.6,5.5-0.4,7.5
		c-1.7,1.7-4.2,2.2-6.4,1.3c-2.2-1-3.6-3.1-3.6-5.5c0-1.3,0.5-2.4,1.2-3.3c0.1-0.1,0.2-0.2,0.1-0.3c-0.1-0.1-0.2-0.1-0.3-0.1
		c-0.7,0-1.4,0-2.1,0c-0.3,0-0.3,0.1-0.3,0.3c0,4.8,0,9.6,0,14.3c0,0.2,0,0.3,0.3,0.4c1.6,0.1,2.8,1.3,2.9,2.9
		c0,0.3,0.1,0.3,0.4,0.3c2.4,0,4.8,0,7.1,0c0.2,0,0.3-0.1,0.3-0.3c0.2-1.6,1.3-2.7,2.8-2.9c0.3,0,0.4-0.1,0.4-0.4c0-2.4,0-4.7,0-7.1
		C19.4,23.9,19.4,21.5,19.4,19.1z M3.2,39c0,0.3,0.1,0.4,0.4,0.4c5.8,0,11.5,0,17.3,0c0.3,0,0.4-0.1,0.4-0.4c0-1.7,0-3.4,0-5
		c0-4.9,0-9.9,0-14.8c0-0.3-0.1-0.4-0.4-0.4c-0.4,0-0.3,0.2-0.3,0.4c0,5,0,9.9,0,14.9c0,0.7-0.2,0.9-0.9,0.9c-0.3,0-0.6,0-0.9,0.1
		c-0.9,0.2-1.4,1-1.5,2c0,1-0.1,1.1-1.2,1.1c-2.7,0-5.4,0-8,0c-0.9,0-1.1-0.2-1.1-1.1C7.2,35.9,6.2,34.9,5,35
		c-0.9,0-1.1-0.2-1.1-1.1c0-4.9,0-9.8,0-14.7c0-0.4-0.1-0.6-0.5-0.5c-0.3,0-0.1,0.3-0.1,0.5c0,3.3,0,6.6,0,9.8
		C3.2,32.4,3.2,35.7,3.2,39z M10.2,18.8c-0.2,0-0.4,0.1-0.5,0.2C8,20.1,7.3,22.3,8,24.2c0.7,1.9,2.6,3.2,4.7,2.9
		c1.9-0.2,3.5-1.5,3.9-3.3c0.5-1.9-0.2-3.8-1.8-4.9c-0.2-0.1-0.3-0.2-0.5-0.2c-0.7,0-1.3,0-2,0C11.6,18.8,10.9,18.8,10.2,18.8z
		 M27.3,7.2c0.3,0,0.4-0.1,0.4-0.4c0-0.4,0-0.7,0-1.1c0-0.4-0.1-0.5-0.5-0.5c-7.8,0-15.7,0-23.5,0c-0.1,0-0.2,0-0.2,0
		c-0.2,0-0.3,0.1-0.3,0.3c0,0.4,0,0.8,0,1.2c0,0.4,0.1,0.4,0.4,0.4c3.9,0,7.9,0,11.8,0C19.4,7.2,23.4,7.2,27.3,7.2z M26.8,3.9
		c0.9,0,0.9,0,0.9-0.9c0-0.9-0.1-1-1-1c-7.5,0-15,0-22.5,0C4.1,2,3.9,2,3.8,2c-0.3,0-0.5,0.2-0.6,0.6c0,0.3,0,0.6,0,0.9
		c0,0.4,0.1,0.5,0.5,0.5c3.9,0,7.9,0,11.8,0C19.2,3.9,23,3.9,26.8,3.9z M22.6,13.6c0,0.7,0.6,1.3,1.3,1.3c0.7,0,1.3-0.6,1.3-1.3
		c0-0.7-0.5-1.3-1.3-1.3C23.2,12.3,22.6,12.9,22.6,13.6z M21.5,12.6c0.1-0.2,0-0.2-0.2-0.3c-0.5,0-0.9,0.2-1.2,0.7
		c-0.3,0.5-0.2,1,0.1,1.4c0.3,0.4,0.8,0.6,1.3,0.4C21.2,14.1,21.2,13.3,21.5,12.6z"/>
</g>
</svg>
