<?xml version="1.0" encoding="utf-8"?>
<!-- Generator: Adobe Illustrator 19.2.1, SVG Export Plug-In . SVG Version: 6.00 Build 0)  -->
<svg version="1.1" id="Слой_1" xmlns="http://www.w3.org/2000/svg" xmlns:xlink="http://www.w3.org/1999/xlink" x="0px" y="0px"
	 width="33px" height="33px" viewBox="0 0 33 33" style="enable-background:new 0 0 33 33;" xml:space="preserve">
<style type="text/css">
	.st0{fill:#63BC4D;}
	.st1{fill:#FFFFFF;}
</style>
<g>
	<path class="st0" d="M17.8,33c-0.8,0-1.6,0-2.4,0c-0.6-0.1-1.3-0.1-1.9-0.2c-1.3-0.2-2.5-0.6-3.7-1.2C8.3,31,6.9,30.1,5.6,29
		c-1.4-1.3-2.6-2.8-3.6-4.5c-0.7-1.3-1.2-2.7-1.6-4.1c-0.2-0.7-0.2-1.5-0.2-2.2c0-0.1,0-0.2,0-0.3c0-0.8,0-1.6,0-2.4
		c0.1-0.6,0.1-1.3,0.2-1.9C0.6,12.2,1,11,1.6,9.8c0.7-1.5,1.6-2.9,2.7-4.2C5.6,4.2,7.1,3,8.8,2.1c1.3-0.7,2.7-1.2,4.1-1.6
		c0.7-0.2,1.5-0.2,2.2-0.2c0.1,0,0.2,0,0.3,0c0.8,0,1.6,0,2.4,0c0.5,0.1,1.1,0.1,1.6,0.1c1.3,0.1,2.5,0.5,3.6,1
		C24.6,2,26,2.9,27.4,4.1c1.9,1.6,3.3,3.5,4.3,5.8c0.6,1.3,1,2.6,1.2,4c0.1,0.5,0.1,1.1,0.1,1.6c0,0.8,0,1.6,0,2.4
		c-0.1,0.6-0.1,1.2-0.2,1.9c-0.2,1.3-0.6,2.5-1.2,3.7c-0.6,1.3-1.3,2.5-2.3,3.6c-1.3,1.5-2.8,2.8-4.5,3.8c-1.4,0.8-3,1.4-4.6,1.8
		c-0.7,0.2-1.5,0.2-2.2,0.2C18,33,17.9,32.9,17.8,33z"/>
	<path class="st1" d="M31.7,16.6c0,8.3-6.8,15.1-15.1,15.1C8.3,31.7,1.5,25,1.5,16.6c0-8.3,6.8-15.1,15.1-15.1
		C25,1.5,31.7,8.3,31.7,16.6z"/>
	<path class="st0" d="M25.4,10.3c0,0.3-0.1,0.4-0.3,0.6c-2.7,3.1-5.5,6.2-8.2,9.2c-0.5,0.6-1.1,1.2-1.6,1.8
		c-0.4,0.4-0.7,0.5-1.1,0.1c-2-1.6-4-3.2-6-4.8C8.1,17.2,8,17.1,7.9,17c-0.2-0.2-0.2-0.5,0-0.7C8.1,16,8.4,15.9,8.7,16
		c0.2,0.1,0.4,0.3,0.6,0.4c1.7,1.4,3.4,2.8,5.2,4.1c0.2,0.1,0.3,0.1,0.4,0c3.1-3.5,6.2-7,9.3-10.5c0.1-0.1,0.2-0.2,0.3-0.3
		c0.2-0.1,0.4-0.1,0.6,0C25.3,9.9,25.4,10.1,25.4,10.3z"/>
</g>
</svg>
