<svg version="1.1" xmlns="http://www.w3.org/2000/svg" xmlns:xlink="http://www.w3.org/1999/xlink" width="15" height="15" viewBox="0 0 15 15">
<g id="faq_plus_hover">
<path id="faq_plus_hover" d="M11.026,7.856 C11.026,8.168 10.767,8.427 10.454,8.427 C10.454,8.427 8.169,8.427 8.169,8.427 C8.169,8.427 8.169,10.712 8.169,10.712 C8.169,11.025 7.910,11.283 7.598,11.283 C7.598,11.283 6.455,11.283 6.455,11.283 C6.143,11.283 5.884,11.025 5.884,10.712 C5.884,10.712 5.884,8.427 5.884,8.427 C5.884,8.427 3.599,8.427 3.599,8.427 C3.286,8.427 3.028,8.168 3.028,7.856 C3.028,7.856 3.028,6.713 3.028,6.713 C3.028,6.401 3.286,6.142 3.599,6.142 C3.599,6.142 5.884,6.142 5.884,6.142 C5.884,6.142 5.884,3.857 5.884,3.857 C5.884,3.544 6.143,3.285 6.455,3.285 C6.455,3.285 7.598,3.285 7.598,3.285 C7.910,3.285 8.169,3.544 8.169,3.857 C8.169,3.857 8.169,6.142 8.169,6.142 C8.169,6.142 10.454,6.142 10.454,6.142 C10.767,6.142 11.026,6.401 11.026,6.713 C11.026,6.713 11.026,7.856 11.026,7.856 zM13.882,7.284 C13.882,3.500 10.811,0.429 7.027,0.429 C3.242,0.429 0.171,3.500 0.171,7.284 C0.171,11.069 3.242,14.140 7.027,14.140 C10.811,14.140 13.882,11.069 13.882,7.284 z" fill="#4FAF4F" />
</g>
</svg>
