<?xml version="1.0" encoding="utf-8"?>
<!-- Generator: Adobe Illustrator 19.2.1, SVG Export Plug-In . SVG Version: 6.00 Build 0)  -->
<svg version="1.1" id="Layer_1" xmlns="http://www.w3.org/2000/svg" xmlns:xlink="http://www.w3.org/1999/xlink" x="0px" y="0px"
	 width="20" height="21" viewBox="0 0 20 21" style="enable-background:new 0 0 20 21;" xml:space="preserve">
<style type="text/css">
	.st0{fill:#2DBC56;}
</style>
<g>
	<path class="st0" d="M12.3,20.5H7.7c-0.3,0-0.6-0.3-0.6-0.6v-6.6H0.6c-0.3,0-0.6-0.3-0.6-0.6V8.2c0-0.3,0.3-0.6,0.6-0.6h6.6V1.1
		c0-0.3,0.3-0.6,0.6-0.6h4.5c0.3,0,0.6,0.3,0.6,0.6v6.6h6.6c0.3,0,0.6,0.3,0.6,0.6v4.5c0,0.3-0.3,0.6-0.6,0.6h-6.6v6.6
		C12.8,20.2,12.6,20.5,12.3,20.5z M8.3,19.3h3.4v-6.6c0-0.3,0.3-0.6,0.6-0.6h6.6V8.8h-6.6c-0.3,0-0.6-0.3-0.6-0.6V1.7H8.3v6.6
		c0,0.3-0.3,0.6-0.6,0.6H1.2v3.4h6.6c0.3,0,0.6,0.3,0.6,0.6V19.3z"/>
</g>
</svg>
