<?xml version="1.0" encoding="utf-8"?>
<!-- Generator: Adobe Illustrator 19.2.1, SVG Export Plug-In . SVG Version: 6.00 Build 0)  -->
<svg version="1.1" id="Layer_1" xmlns="http://www.w3.org/2000/svg" xmlns:xlink="http://www.w3.org/1999/xlink" x="0px" y="0px"
	 width="23" height="24" viewBox="0 0 23 24" style="enable-background:new 0 0 23 24;" xml:space="preserve">
<style type="text/css">
	.st0{fill:#2DBC56;}
</style>
<g>
	<path class="st0" d="M18.7,16.3c-0.6,0-1.1-0.5-1.1-1.1s0.5-1.1,1.1-1.1c0.6,0,1.1,0.5,1.1,1.1S19.3,16.3,18.7,16.3z M18.7,14.9
		c-0.2,0-0.3,0.1-0.3,0.3s0.1,0.3,0.3,0.3c0.2,0,0.3-0.1,0.3-0.3S18.8,14.9,18.7,14.9z"/>
	<path class="st0" d="M19.9,24.2H2.3c-1.3,0-2.3-1-2.3-2.3V5.2c0-0.4,0.3-0.7,0.7-0.7s0.7,0.3,0.7,0.7c0,0.5,0.4,0.9,0.9,0.9h17.5
		c1.3,0,2.3,1,2.3,2.3v4.8c0,0.4-0.3,0.7-0.7,0.7h-4c-0.1,0-0.1,0.1-0.1,0.1v2.4c0,0.1,0.1,0.1,0.1,0.1h4c0.4,0,0.7,0.3,0.7,0.7v4.8
		C22.1,23.2,21.1,24.2,19.9,24.2z M1.4,7.3v14.6c0,0.5,0.4,0.9,0.9,0.9h17.5c0.5,0,0.9-0.4,0.9-0.9v-4.1h-3.3
		c-0.8,0-1.5-0.7-1.5-1.5V14c0-0.8,0.7-1.5,1.5-1.5h3.3V8.4c0-0.5-0.4-0.9-0.9-0.9H2.3C2,7.5,1.7,7.4,1.4,7.3z"/>
	<path class="st0" d="M21.4,17.9h-4c-0.8,0-1.5-0.7-1.5-1.5V14c0-0.8,0.7-1.5,1.5-1.5h4c0.8,0,1.5,0.7,1.5,1.5v2.4
		C22.9,17.2,22.3,17.9,21.4,17.9z M17.5,13.9c-0.1,0-0.1,0.1-0.1,0.1v2.4c0,0.1,0.1,0.1,0.1,0.1h4c0.1,0,0.1-0.1,0.1-0.1V14
		c0-0.1-0.1-0.1-0.1-0.1H17.5z"/>
	<g>
		<path class="st0" d="M19.9,12.3c-0.1,0-0.2,0-0.3-0.1c-0.1,0-0.2-0.1-0.2-0.1c-0.1-0.1-0.2-0.3-0.2-0.5c0-0.2,0.1-0.4,0.2-0.5
			c0,0,0.1-0.1,0.1-0.1c0,0,0.1,0,0.1-0.1c0,0,0.1,0,0.1,0c0.2,0,0.5,0,0.6,0.2c0.1,0.1,0.2,0.3,0.2,0.5c0,0.1,0,0.2-0.1,0.3
			c0,0.1-0.1,0.2-0.2,0.2c-0.1,0.1-0.1,0.1-0.2,0.1C20,12.3,19.9,12.3,19.9,12.3z"/>
		<path class="st0" d="M19.2,10c0-0.4,0.3-0.7,0.7-0.7l0,0c0.4,0,0.7,0.3,0.7,0.7l0,0c0,0.4-0.3,0.7-0.7,0.7l0,0
			C19.5,10.7,19.2,10.4,19.2,10z"/>
		<path class="st0" d="M19.9,9.1c-0.1,0-0.2,0-0.3,0c-0.1,0-0.2-0.1-0.2-0.2c-0.1-0.1-0.1-0.1-0.2-0.2s0-0.2,0-0.3
			c0-0.1,0-0.2,0-0.3c0-0.1,0.1-0.2,0.2-0.2c0,0,0.1-0.1,0.1-0.1c0,0,0.1,0,0.1-0.1c0,0,0.1,0,0.1,0c0.2,0,0.5,0,0.6,0.2
			c0.1,0.1,0.1,0.1,0.2,0.2c0,0.1,0.1,0.2,0.1,0.3c0,0.1,0,0.2-0.1,0.3s-0.1,0.2-0.2,0.2C20.3,9,20.2,9,20.1,9.1
			C20,9.1,19.9,9.1,19.9,9.1z"/>
		<path class="st0" d="M16.3,8.4c0-0.4,0.3-0.7,0.7-0.7l0,0c0.4,0,0.7,0.3,0.7,0.7l0,0c0,0.4-0.3,0.7-0.7,0.7l0,0
			C16.6,9.1,16.3,8.8,16.3,8.4z M13.3,8.4c0-0.4,0.3-0.7,0.7-0.7l0,0c0.4,0,0.7,0.3,0.7,0.7l0,0c0,0.4-0.3,0.7-0.7,0.7l0,0
			C13.6,9.1,13.3,8.8,13.3,8.4z M10.4,8.4c0-0.4,0.3-0.7,0.7-0.7l0,0c0.4,0,0.7,0.3,0.7,0.7l0,0c0,0.4-0.3,0.7-0.7,0.7l0,0
			C10.7,9.1,10.4,8.8,10.4,8.4z M7.5,8.4c0-0.4,0.3-0.7,0.7-0.7l0,0c0.4,0,0.7,0.3,0.7,0.7l0,0c0,0.4-0.3,0.7-0.7,0.7l0,0
			C7.8,9.1,7.5,8.8,7.5,8.4z M4.6,8.4c0-0.4,0.3-0.7,0.7-0.7l0,0c0.4,0,0.7,0.3,0.7,0.7l0,0c0,0.4-0.3,0.7-0.7,0.7l0,0
			C4.9,9.1,4.6,8.8,4.6,8.4z"/>
		<path class="st0" d="M2.3,9.1C2.2,9.1,2,9,1.9,8.9C1.7,8.8,1.7,8.6,1.7,8.4c0-0.2,0.1-0.4,0.2-0.5c0.2-0.2,0.5-0.3,0.7-0.2
			c0.1,0,0.2,0.1,0.2,0.2C3,8.1,3,8.2,3,8.4c0,0.1,0,0.2,0,0.3S2.9,8.8,2.8,8.9C2.7,9,2.5,9.1,2.3,9.1z"/>
	</g>
	<g>
		<path class="st0" d="M19.9,19.4c-0.1,0-0.2,0-0.3,0c-0.1,0-0.2-0.1-0.2-0.2c-0.1-0.1-0.1-0.1-0.2-0.2c0-0.1,0-0.2,0-0.3
			c0-0.1,0-0.2,0-0.3c0-0.1,0.1-0.2,0.2-0.2c0,0,0.1-0.1,0.1-0.1c0,0,0.1,0,0.1-0.1c0,0,0.1,0,0.1,0c0.1,0,0.3,0,0.4,0
			c0.1,0,0.2,0.1,0.2,0.2c0.1,0.1,0.1,0.1,0.2,0.2c0,0.1,0.1,0.2,0.1,0.3c0,0.1,0,0.2-0.1,0.3c0,0.1-0.1,0.2-0.2,0.2
			c-0.1,0.1-0.1,0.1-0.2,0.2C20,19.4,19.9,19.4,19.9,19.4z"/>
		<path class="st0" d="M19.2,20.4c0-0.4,0.3-0.7,0.7-0.7l0,0c0.4,0,0.7,0.3,0.7,0.7l0,0c0,0.4-0.3,0.7-0.7,0.7l0,0
			C19.5,21,19.2,20.7,19.2,20.4z"/>
		<path class="st0" d="M19.9,22.6c-0.1,0-0.2,0-0.3-0.1c-0.1,0-0.2-0.1-0.2-0.2c-0.1-0.1-0.2-0.3-0.2-0.5c0-0.1,0-0.2,0-0.3
			c0-0.1,0.1-0.2,0.2-0.2c0,0,0.1-0.1,0.1-0.1c0,0,0.1,0,0.1-0.1c0,0,0.1,0,0.1,0c0.2,0,0.5,0,0.6,0.2c0.1,0.1,0.1,0.1,0.2,0.2
			c0,0.1,0.1,0.2,0.1,0.3c0,0.2-0.1,0.4-0.2,0.5c-0.1,0.1-0.1,0.1-0.2,0.2C20,22.6,19.9,22.6,19.9,22.6z"/>
		<path class="st0" d="M16.3,21.9c0-0.4,0.3-0.7,0.7-0.7l0,0c0.4,0,0.7,0.3,0.7,0.7l0,0c0,0.4-0.3,0.7-0.7,0.7l0,0
			C16.6,22.6,16.3,22.3,16.3,21.9z M13.3,21.9c0-0.4,0.3-0.7,0.7-0.7l0,0c0.4,0,0.7,0.3,0.7,0.7l0,0c0,0.4-0.3,0.7-0.7,0.7l0,0
			C13.6,22.6,13.3,22.3,13.3,21.9z M10.4,21.9c0-0.4,0.3-0.7,0.7-0.7l0,0c0.4,0,0.7,0.3,0.7,0.7l0,0c0,0.4-0.3,0.7-0.7,0.7l0,0
			C10.7,22.6,10.4,22.3,10.4,21.9z M7.5,21.9c0-0.4,0.3-0.7,0.7-0.7l0,0c0.4,0,0.7,0.3,0.7,0.7l0,0c0,0.4-0.3,0.7-0.7,0.7l0,0
			C7.8,22.6,7.5,22.3,7.5,21.9z M4.6,21.9c0-0.4,0.3-0.7,0.7-0.7l0,0c0.4,0,0.7,0.3,0.7,0.7l0,0c0,0.4-0.3,0.7-0.7,0.7l0,0
			C4.9,22.6,4.6,22.3,4.6,21.9z"/>
		<path class="st0" d="M2.3,22.6c-0.1,0-0.2,0-0.3-0.1c-0.1,0-0.2-0.1-0.2-0.1c-0.1-0.1-0.1-0.1-0.2-0.2c0-0.1-0.1-0.2-0.1-0.3
			c0-0.2,0.1-0.4,0.2-0.5c0.2-0.2,0.5-0.3,0.7-0.1c0.1,0,0.2,0.1,0.2,0.1C3,21.6,3,21.8,3,21.9c0,0.1,0,0.2,0,0.3
			c0,0.1-0.1,0.2-0.2,0.2C2.7,22.6,2.5,22.6,2.3,22.6z"/>
	</g>
	<g>
		<path class="st0" d="M3.2,7.5H2.3c-1.3,0-2.3-1-2.3-2.3S1.1,3,2.3,3h6.4c0.3,0,0.6,0.2,0.7,0.5c0.1,0.3-0.1,0.6-0.3,0.8L3.5,7.4
			C3.4,7.5,3.3,7.5,3.2,7.5z M2.3,4.3c-0.5,0-0.9,0.4-0.9,0.9c0,0.5,0.4,0.9,0.9,0.9H3l3.2-1.8H2.3z"/>
		<path class="st0" d="M19.9,7.5H18c-0.2,0-0.5-0.1-0.6-0.3L15.6,4c-0.1-0.2-0.1-0.5,0-0.7C15.7,3.1,15.9,3,16.2,3h2.1
			c1.3,0,2.3,1,2.3,2.3v1.6C20.5,7.2,20.2,7.5,19.9,7.5z M18.4,6.1h0.8V5.2c0-0.5-0.4-0.9-0.9-0.9h-0.9L18.4,6.1z"/>
	</g>
	<g>
		<path class="st0" d="M16.2,7.5H6.4C6,7.5,5.8,7.3,5.7,7C5.6,6.7,5.7,6.4,6,6.2l6-3.4c0.3-0.2,0.7-0.1,0.9,0.2
			c0.2,0.4,0.8,0.6,1.2,0.3c0.3-0.2,0.7-0.1,0.9,0.2l1.7,2.9c0.1,0.2,0.1,0.5,0,0.7C16.7,7.4,16.4,7.5,16.2,7.5z M8.9,6.1H15
			l-0.8-1.3c-0.7,0.2-1.5,0-2-0.5L8.9,6.1z"/>
	</g>
	<g>
		<path class="st0" d="M18,7.5H3.2C2.9,7.5,2.6,7.3,2.5,7C2.4,6.7,2.6,6.4,2.8,6.2L14-0.1c0.3-0.2,0.7-0.1,0.9,0.2l3.7,6.4
			c0.1,0.2,0.1,0.5,0,0.7C18.5,7.4,18.3,7.5,18,7.5z M5.8,6.1h11.1l-2.8-4.8L5.8,6.1z"/>
	</g>
</g>
</svg>
