<svg version="1.1" xmlns="http://www.w3.org/2000/svg" xmlns:xlink="http://www.w3.org/1999/xlink" width="14" height="14" viewBox="0 0 14 14">
<g id="ic_star_full">
<path id="Shape-7" d="M7.441,0.287 C7.441,0.287 9.225,4.075 9.225,4.075 C9.296,4.226 9.433,4.331 9.592,4.355 C9.592,4.355 13.580,4.962 13.580,4.962 C13.980,5.023 14.140,5.539 13.851,5.834 C13.851,5.834 10.965,8.783 10.965,8.783 C10.850,8.901 10.797,9.070 10.824,9.236 C10.824,9.236 11.506,13.399 11.506,13.399 C11.574,13.817 11.156,14.135 10.798,13.938 C10.798,13.938 7.231,11.972 7.231,11.972 C7.088,11.894 6.919,11.894 6.777,11.972 C6.777,11.972 3.209,13.938 3.209,13.938 C2.851,14.135 2.433,13.817 2.502,13.399 C2.502,13.399 3.183,9.236 3.183,9.236 C3.210,9.070 3.158,8.901 3.043,8.783 C3.043,8.783 0.157,5.834 0.157,5.834 C-0.133,5.539 0.027,5.023 0.427,4.962 C0.427,4.962 4.415,4.355 4.415,4.355 C4.574,4.331 4.712,4.226 4.782,4.075 C4.782,4.075 6.566,0.287 6.566,0.287 C6.745,-0.093 7.262,-0.093 7.441,0.287 z" fill="#FFCC00" />
</g>
</svg>
