<?xml version="1.0" encoding="utf-8"?>
<!-- Generator: Adobe Illustrator 19.2.1, SVG Export Plug-In . SVG Version: 6.00 Build 0)  -->
<svg version="1.1" id="Layer_1" xmlns="http://www.w3.org/2000/svg" xmlns:xlink="http://www.w3.org/1999/xlink" x="0px" y="0px"
	 width="22" height="22" viewBox="0 0 22 22" style="enable-background:new 0 0 22 22;" xml:space="preserve">
<style type="text/css">
	.st0{fill:#2DBC56;}
</style>
<g>
	<path class="st0" d="M5.7,12.8c-1,0-1.8-0.8-1.8-1.8c0-1,0.8-1.8,1.8-1.8c1,0,1.8,0.8,1.8,1.8C7.5,12,6.7,12.8,5.7,12.8z M5.7,10.5
		c-0.3,0-0.5,0.2-0.5,0.5s0.2,0.5,0.5,0.5c0.3,0,0.5-0.2,0.5-0.5S6,10.5,5.7,10.5z"/>
	<path class="st0" d="M9.5,18.1c-1,0-1.8-0.8-1.8-1.8c0-1,0.8-1.8,1.8-1.8c1,0,1.8,0.8,1.8,1.8C11.3,17.3,10.5,18.1,9.5,18.1z
		 M9.5,15.8C9.2,15.8,9,16,9,16.3c0,0.3,0.2,0.5,0.5,0.5c0.3,0,0.5-0.2,0.5-0.5C10,16,9.8,15.8,9.5,15.8z"/>
	<path class="st0" d="M13.3,7.5c-1,0-1.8-0.8-1.8-1.8s0.8-1.8,1.8-1.8c1,0,1.8,0.8,1.8,1.8S14.3,7.5,13.3,7.5z M13.3,5.2
		c-0.3,0-0.5,0.2-0.5,0.5c0,0.3,0.2,0.5,0.5,0.5s0.5-0.2,0.5-0.5C13.8,5.4,13.5,5.2,13.3,5.2z"/>
	<path class="st0" d="M17.1,12.8c-1,0-1.8-0.8-1.8-1.8c0-1,0.8-1.8,1.8-1.8c1,0,1.8,0.8,1.8,1.8C18.9,12,18.1,12.8,17.1,12.8z
		 M17.1,10.5c-0.3,0-0.5,0.2-0.5,0.5s0.2,0.5,0.5,0.5c0.3,0,0.5-0.2,0.5-0.5S17.3,10.5,17.1,10.5z"/>
	<path class="st0" d="M20.1,3.7c-1,0-1.8-0.8-1.8-1.8s0.8-1.8,1.8-1.8c1,0,1.8,0.8,1.8,1.8S21.1,3.7,20.1,3.7z M20.1,1.4
		c-0.3,0-0.5,0.2-0.5,0.5s0.2,0.5,0.5,0.5c0.3,0,0.5-0.2,0.5-0.5S20.4,1.4,20.1,1.4z"/>
	<path class="st0" d="M21.2,21.1H0.8c-0.4,0-0.7-0.3-0.7-0.7c0-0.4,0.3-0.7,0.7-0.7h20.5c0.4,0,0.7,0.3,0.7,0.7
		C21.9,20.8,21.6,21.1,21.2,21.1z"/>
	<path class="st0" d="M1.5,18.9H0.8c-0.4,0-0.7-0.3-0.7-0.7s0.3-0.7,0.7-0.7h0.8c0.4,0,0.7,0.3,0.7,0.7S1.9,18.9,1.5,18.9z"/>
	<path class="st0" d="M3.8,21.9c-0.4,0-0.7-0.3-0.7-0.7v-0.8c0-0.4,0.3-0.7,0.7-0.7s0.7,0.3,0.7,0.7v0.8C4.4,21.6,4.2,21.9,3.8,21.9
		z"/>
	<path class="st0" d="M6.1,21.9c-0.4,0-0.7-0.3-0.7-0.7v-0.8c0-0.4,0.3-0.7,0.7-0.7s0.7,0.3,0.7,0.7v0.8C6.7,21.6,6.4,21.9,6.1,21.9
		z"/>
	<path class="st0" d="M8.3,21.9c-0.4,0-0.7-0.3-0.7-0.7v-0.8c0-0.4,0.3-0.7,0.7-0.7c0.4,0,0.7,0.3,0.7,0.7v0.8
		C9,21.6,8.7,21.9,8.3,21.9z"/>
	<path class="st0" d="M10.6,21.9c-0.4,0-0.7-0.3-0.7-0.7v-0.8c0-0.4,0.3-0.7,0.7-0.7s0.7,0.3,0.7,0.7v0.8
		C11.3,21.6,11,21.9,10.6,21.9z"/>
	<path class="st0" d="M12.9,21.9c-0.4,0-0.7-0.3-0.7-0.7v-0.8c0-0.4,0.3-0.7,0.7-0.7c0.4,0,0.7,0.3,0.7,0.7v0.8
		C13.5,21.6,13.3,21.9,12.9,21.9z"/>
	<path class="st0" d="M15.2,21.9c-0.4,0-0.7-0.3-0.7-0.7v-0.8c0-0.4,0.3-0.7,0.7-0.7s0.7,0.3,0.7,0.7v0.8
		C15.8,21.6,15.5,21.9,15.2,21.9z"/>
	<path class="st0" d="M17.4,21.9c-0.4,0-0.7-0.3-0.7-0.7v-0.8c0-0.4,0.3-0.7,0.7-0.7s0.7,0.3,0.7,0.7v0.8
		C18.1,21.6,17.8,21.9,17.4,21.9z"/>
	<path class="st0" d="M19.7,21.9c-0.4,0-0.7-0.3-0.7-0.7v-0.8c0-0.4,0.3-0.7,0.7-0.7s0.7,0.3,0.7,0.7v0.8
		C20.4,21.6,20.1,21.9,19.7,21.9z"/>
	<path class="st0" d="M1.5,16.6H0.8c-0.4,0-0.7-0.3-0.7-0.7c0-0.4,0.3-0.7,0.7-0.7h0.8c0.4,0,0.7,0.3,0.7,0.7
		C2.2,16.3,1.9,16.6,1.5,16.6z"/>
	<path class="st0" d="M1.5,14.3H0.8c-0.4,0-0.7-0.3-0.7-0.7S0.4,13,0.8,13h0.8c0.4,0,0.7,0.3,0.7,0.7S1.9,14.3,1.5,14.3z"/>
	<path class="st0" d="M1.5,12H0.8c-0.4,0-0.7-0.3-0.7-0.7s0.3-0.7,0.7-0.7h0.8c0.4,0,0.7,0.3,0.7,0.7S1.9,12,1.5,12z"/>
	<path class="st0" d="M1.5,9.8H0.8c-0.4,0-0.7-0.3-0.7-0.7s0.3-0.7,0.7-0.7h0.8c0.4,0,0.7,0.3,0.7,0.7S1.9,9.8,1.5,9.8z"/>
	<path class="st0" d="M1.5,7.5H0.8c-0.4,0-0.7-0.3-0.7-0.7c0-0.4,0.3-0.7,0.7-0.7h0.8c0.4,0,0.7,0.3,0.7,0.7
		C2.2,7.2,1.9,7.5,1.5,7.5z"/>
	<path class="st0" d="M1.5,5.2H0.8c-0.4,0-0.7-0.3-0.7-0.7c0-0.4,0.3-0.7,0.7-0.7h0.8c0.4,0,0.7,0.3,0.7,0.7
		C2.2,4.9,1.9,5.2,1.5,5.2z"/>
	<path class="st0" d="M1.5,2.9H0.8c-0.4,0-0.7-0.3-0.7-0.7s0.3-0.7,0.7-0.7h0.8c0.4,0,0.7,0.3,0.7,0.7S1.9,2.9,1.5,2.9z"/>
	<path class="st0" d="M1.5,21.9c-0.4,0-0.7-0.3-0.7-0.7V0.8c0-0.4,0.3-0.7,0.7-0.7s0.7,0.3,0.7,0.7v20.5C2.2,21.6,1.9,21.9,1.5,21.9
		z"/>
	<path class="st0" d="M1.5,21.1c-0.1,0-0.2,0-0.3-0.1c-0.3-0.1-0.5-0.5-0.3-0.9l3.7-8.4c0.1-0.3,0.5-0.5,0.9-0.3
		C5.8,11.6,6,12,5.8,12.3l-3.7,8.4C2,21,1.8,21.1,1.5,21.1z"/>
	<path class="st0" d="M8.8,16c-0.2,0-0.4-0.1-0.5-0.3l-2.5-3.5C5.6,12,5.7,11.6,6,11.4c0.3-0.2,0.7-0.1,0.9,0.2L9.4,15
		c0.2,0.3,0.1,0.7-0.2,0.9C9.1,16,9,16,8.8,16z"/>
	<path class="st0" d="M9.9,15.9c-0.1,0-0.1,0-0.2,0c-0.3-0.1-0.5-0.5-0.4-0.8l3-8.5c0.1-0.3,0.5-0.5,0.8-0.4
		c0.3,0.1,0.5,0.5,0.4,0.8l-3,8.5C10.4,15.7,10.1,15.9,9.9,15.9z"/>
	<path class="st0" d="M16.4,10.7c-0.2,0-0.4-0.1-0.5-0.3L13.4,7c-0.2-0.3-0.1-0.7,0.2-0.9c0.3-0.2,0.7-0.1,0.9,0.2l2.5,3.5
		c0.2,0.3,0.1,0.7-0.2,0.9C16.7,10.7,16.5,10.7,16.4,10.7z"/>
	<path class="st0" d="M17.4,10.6c-0.1,0-0.1,0-0.2,0c-0.3-0.1-0.5-0.5-0.4-0.8l2.3-7c0.1-0.3,0.5-0.5,0.8-0.4
		c0.3,0.1,0.5,0.5,0.4,0.8l-2.3,7C18,10.4,17.7,10.6,17.4,10.6z"/>
</g>
</svg>
