<?xml version="1.0" encoding="utf-8"?>
<!-- Generator: Adobe Illustrator 19.2.1, SVG Export Plug-In . SVG Version: 6.00 Build 0)  -->
<svg version="1.1" id="Layer_1" xmlns="http://www.w3.org/2000/svg" xmlns:xlink="http://www.w3.org/1999/xlink" x="0px" y="0px"
	 width="25" height="27" viewBox="0 0 25 27" style="enable-background:new 0 0 25 27;" xml:space="preserve">
<g>
	<path class="st0" d="M3.7,20.1c-0.4,0-0.8-0.2-1.1-0.4c-0.4-0.3-0.6-0.8-0.5-1.4l0.2-2.9c0.1-0.5,0.3-0.9,0.6-1.2l9.9-9.9
		c0.4-0.4,0.8-0.6,1.4-0.6c0.5,0,0.9,0.2,1.2,0.5L18,6.7C18.3,7,18.5,7.5,18.5,8c0,0.5-0.2,0.9-0.6,1.2l-10,10
		c-0.3,0.3-0.7,0.5-1.2,0.6l-2.8,0.2C3.8,20.1,3.8,20.1,3.7,20.1z M3.7,18.2C3.7,18.2,3.7,18.2,3.7,18.2L3.7,18.2z M14.2,5.5
		l-9.9,9.9c0,0,0,0.1,0,0.1L4,18.2l2.6-0.2c0,0,0,0,0,0l10-10L14.2,5.5z" fill="#4FAF4F"/>
	<path class="st0" d="M18.1,8.2c-0.5,0-1-0.2-1.4-0.6l0,0l-2.2-2.2c-0.8-0.8-0.8-2.1,0-2.9l1.7-1.7c0.8-0.8,2.1-0.8,2.9,0l2.2,2.2
		C22,3.9,22,5.2,21.2,6l-1.7,1.7C19.2,8,18.6,8.2,18.1,8.2z M18,6.3c0.1,0.1,0.2,0,0.2,0l1.7-1.7c0.1-0.1,0.1-0.1,0-0.2l-2.2-2.2
		c-0.1-0.1-0.1-0.1-0.2,0l-1.7,1.7c-0.1,0.1-0.1,0.1,0,0.2L18,6.3z" fill="#4FAF4F"/>
	<path class="st0" d="M22.8,26.7H2.2c-1.2,0-2.2-1-2.2-2.2v-0.9c0-1.2,1-2.2,2.2-2.2h20.6c1.2,0,2.2,1,2.2,2.2v0.9
		C25,25.7,24,26.7,22.8,26.7z M2.2,23.3c-0.2,0-0.3,0.1-0.3,0.3v0.9c0,0.2,0.1,0.3,0.3,0.3h20.6c0.2,0,0.3-0.1,0.3-0.3v-0.9
		c0-0.2-0.1-0.3-0.3-0.3H2.2z" fill="#4FAF4F"/>
	<path class="st0" d="M24.2,21.1"/>
</g>
</svg>
