<?xml version="1.0" encoding="utf-8"?>
<!-- Generator: Adobe Illustrator 19.2.1, SVG Export Plug-In . SVG Version: 6.00 Build 0)  -->
<svg version="1.1" id="Layer_1" xmlns="http://www.w3.org/2000/svg" xmlns:xlink="http://www.w3.org/1999/xlink" x="0px" y="0px"
	 width="22" height="22" viewBox="0 0 22 22" style="enable-background:new 0 0 22 22;" xml:space="preserve">
<style type="text/css">
	.st0{fill:#2DBC56;}
</style>
<g>
	<path class="st0" d="M18.6,18.7c-0.5,0-1.1-0.2-1.5-0.5c-0.5-0.4-0.8-1.1-0.8-1.8c0-0.4,0.3-0.7,0.7-0.7c0.4,0,0.7,0.3,0.7,0.7
		c0,0.3,0.1,0.6,0.4,0.8c0.2,0.2,0.5,0.3,0.8,0.2c0.4-0.1,0.7-0.4,0.8-0.8c0.1-0.5-0.2-0.9-0.6-1.1c-0.6-0.3-1-0.9-1-1.6V7.7
		c0-0.4,0.3-0.7,0.7-0.7c0.4,0,0.7,0.3,0.7,0.7V14c0,0.1,0,0.3,0.2,0.4c1,0.4,1.6,1.5,1.4,2.5c-0.2,0.9-0.9,1.7-1.8,1.8
		C18.9,18.7,18.7,18.7,18.6,18.7z"/>
	<path class="st0" d="M11.5,22H1.8c-0.4,0-0.7-0.3-0.7-0.7s0.3-0.7,0.7-0.7h2.6V7.8H1.2C0.5,7.8,0,7.3,0,6.6V6c0-0.6,0.4-1.2,1-1.3
		l3.4-1.2V1.1c0-0.3,0.1-0.6,0.4-0.9C5,0.1,5.4,0,5.7,0l2.2,0.4c0.6,0.1,1.1,0.7,1.1,1.3v1.6l11.9,1.5C21.5,4.9,22,5.4,22,6v0.6
		c0,0.7-0.5,1.2-1.2,1.2H8.9v12.8h2.6c0.4,0,0.7,0.3,0.7,0.7S11.9,22,11.5,22z M5.7,20.6h1.9v-3H5.7V20.6z M5.7,16.3h1.9v-1.9H5.7
		V16.3z M5.7,13h1.9v-1.9H5.7V13z M5.7,9.8h1.9V7.8H5.7V9.8z M1.2,6.5l0,0.7L1.2,6.5C1.2,6.5,1.2,6.5,1.2,6.5z M8.9,6.5h11.7V6.1
		L8.9,4.7V6.5z M5.7,6.5h1.9V4.6H5.7V6.5z M1.3,6.5h3V4.9l-3,1.1c0,0,0,0,0,0c0,0,0,0,0,0.1V6.5z M1.3,6C1.3,6,1.3,6,1.3,6
		C1.3,6,1.3,6,1.3,6z M5.7,3.2h1.9V1.7L5.7,1.4V3.2z M5.4,1.4C5.4,1.4,5.5,1.4,5.4,1.4L5.4,1.4z"/>
</g>
</svg>
