<?xml version="1.0" encoding="utf-8"?>
<!-- Generator: Adobe Illustrator 19.2.1, SVG Export Plug-In . SVG Version: 6.00 Build 0)  -->
<svg version="1.1" id="Layer_1" xmlns="http://www.w3.org/2000/svg" xmlns:xlink="http://www.w3.org/1999/xlink" x="0px" y="0px"
	 width="24" height="22" viewBox="0 0 24 22" style="enable-background:new 0 0 24 22;" xml:space="preserve">
<style type="text/css">
	.st0{fill:#2DBC56;}
</style>
<g>
	<path class="st0" d="M4.5,21.8c-0.3,0-0.6-0.2-0.7-0.6c-0.3-1.7-1.6-3-3.3-3.3C0.2,17.9,0,17.6,0,17.2c0.1-0.4,0.4-0.6,0.8-0.6
		C3,17,4.8,18.8,5.2,21c0.1,0.4-0.2,0.7-0.6,0.8C4.6,21.8,4.5,21.8,4.5,21.8z"/>
	<path class="st0" d="M19.5,21.8c0,0-0.1,0-0.1,0c-0.4-0.1-0.6-0.4-0.6-0.8c0.4-2.2,2.1-4,4.4-4.4c0.4-0.1,0.7,0.2,0.8,0.6
		c0.1,0.4-0.2,0.7-0.6,0.8c-1.7,0.3-3,1.6-3.3,3.3C20.1,21.6,19.8,21.8,19.5,21.8z"/>
	<path class="st0" d="M0.7,8.5C0.4,8.5,0.1,8.2,0,7.9C0,7.6,0.2,7.2,0.6,7.1c1.7-0.3,3-1.6,3.3-3.3c0.1-0.4,0.4-0.6,0.8-0.6
		C5,3.4,5.2,3.7,5.2,4.1C4.8,6.3,3,8.1,0.8,8.5C0.7,8.5,0.7,8.5,0.7,8.5z"/>
	<path class="st0" d="M23.3,8.5c0,0-0.1,0-0.1,0c-2.2-0.4-4-2.1-4.4-4.4c-0.1-0.4,0.2-0.7,0.6-0.8c0.4-0.1,0.7,0.2,0.8,0.6
		c0.3,1.7,1.6,3,3.3,3.3c0.4,0.1,0.6,0.4,0.6,0.8C23.9,8.2,23.7,8.5,23.3,8.5z"/>
	<g>
		<path class="st0" d="M5.4,6.2C5.2,6.2,5,6.1,4.9,6C4.8,5.9,4.7,5.7,4.7,5.5c0-0.2,0.1-0.4,0.2-0.5c0.2-0.2,0.7-0.3,1,0
			C6,5.2,6,5.4,6,5.5C6,5.7,6,5.9,5.8,6C5.7,6.1,5.5,6.2,5.4,6.2z"/>
		<path class="st0" d="M15.3,5.5c0-0.4,0.3-0.7,0.7-0.7l0,0c0.4,0,0.7,0.3,0.7,0.7l0,0c0,0.4-0.3,0.7-0.7,0.7l0,0
			C15.6,6.2,15.3,5.9,15.3,5.5z M12.7,5.5c0-0.4,0.3-0.7,0.7-0.7l0,0c0.4,0,0.7,0.3,0.7,0.7l0,0c0,0.4-0.3,0.7-0.7,0.7l0,0
			C13,6.2,12.7,5.9,12.7,5.5z M10,5.5c0-0.4,0.3-0.7,0.7-0.7l0,0c0.4,0,0.7,0.3,0.7,0.7l0,0c0,0.4-0.3,0.7-0.7,0.7l0,0
			C10.3,6.2,10,5.9,10,5.5z M7.3,5.5c0-0.4,0.3-0.7,0.7-0.7l0,0c0.4,0,0.7,0.3,0.7,0.7l0,0c0,0.4-0.3,0.7-0.7,0.7l0,0
			C7.6,6.2,7.3,5.9,7.3,5.5z"/>
		<path class="st0" d="M18.6,6.2c-0.2,0-0.3-0.1-0.5-0.2C18,5.9,18,5.7,18,5.5c0-0.1,0-0.2,0.1-0.3c0-0.1,0.1-0.2,0.1-0.2
			c0.2-0.3,0.7-0.2,0.9,0c0.1,0.1,0.1,0.1,0.1,0.2c0,0.1,0.1,0.2,0.1,0.3c0,0.2-0.1,0.3-0.2,0.5C19,6.1,18.8,6.2,18.6,6.2z"/>
	</g>
	<g>
		<path class="st0" d="M2.2,9.7c-0.1,0-0.2,0-0.3,0c-0.1,0-0.2-0.1-0.2-0.1C1.6,9.4,1.6,9.2,1.6,9c0-0.1,0-0.2,0.1-0.3
			c0-0.1,0.1-0.2,0.1-0.2c0.2-0.2,0.4-0.2,0.6-0.2c0,0,0.1,0,0.1,0c0,0,0.1,0,0.1,0.1c0,0,0.1,0.1,0.1,0.1c0.1,0.1,0.1,0.1,0.1,0.2
			C2.9,8.9,2.9,9,2.9,9c0,0.2-0.1,0.3-0.2,0.5C2.6,9.6,2.4,9.7,2.2,9.7z"/>
		<path class="st0" d="M1.6,13.7c0-0.4,0.3-0.7,0.7-0.7l0,0c0.4,0,0.7,0.3,0.7,0.7l0,0c0,0.4-0.3,0.7-0.7,0.7l0,0
			C1.9,14.4,1.6,14.1,1.6,13.7z M1.6,11.4c0-0.4,0.3-0.7,0.7-0.7l0,0c0.4,0,0.7,0.3,0.7,0.7l0,0c0,0.4-0.3,0.7-0.7,0.7l0,0
			C1.9,12.1,1.6,11.8,1.6,11.4z"/>
		<path class="st0" d="M2.2,16.8c-0.1,0-0.2,0-0.3-0.1c-0.1,0-0.2-0.1-0.2-0.1c-0.1-0.1-0.2-0.3-0.2-0.5c0-0.2,0.1-0.3,0.2-0.5
			c0.2-0.2,0.4-0.2,0.6-0.2c0,0,0.1,0,0.1,0c0,0,0.1,0,0.1,0.1c0,0,0.1,0,0.1,0.1c0.1,0.1,0.2,0.3,0.2,0.5c0,0.1,0,0.2-0.1,0.3
			c0,0.1-0.1,0.2-0.1,0.2C2.6,16.7,2.4,16.8,2.2,16.8z"/>
	</g>
	<g>
		<path class="st0" d="M21.8,9.7c-0.2,0-0.3-0.1-0.5-0.2c-0.1-0.1-0.1-0.1-0.1-0.2c0-0.1-0.1-0.2-0.1-0.3c0-0.2,0.1-0.3,0.2-0.5
			c0,0,0.1-0.1,0.1-0.1c0,0,0.1,0,0.1-0.1c0,0,0.1,0,0.1,0c0.2,0,0.4,0,0.6,0.2c0.1,0.1,0.2,0.3,0.2,0.5c0,0.1,0,0.2,0,0.3
			c0,0.1-0.1,0.2-0.1,0.2c-0.1,0.1-0.1,0.1-0.2,0.1C21.9,9.7,21.9,9.7,21.8,9.7z"/>
		<path class="st0" d="M21.1,13.7c0-0.4,0.3-0.7,0.7-0.7l0,0c0.4,0,0.7,0.3,0.7,0.7l0,0c0,0.4-0.3,0.7-0.7,0.7l0,0
			C21.4,14.4,21.1,14.1,21.1,13.7z M21.1,11.4c0-0.4,0.3-0.7,0.7-0.7l0,0c0.4,0,0.7,0.3,0.7,0.7l0,0c0,0.4-0.3,0.7-0.7,0.7l0,0
			C21.4,12.1,21.1,11.8,21.1,11.4z"/>
		<path class="st0" d="M21.8,16.8c-0.1,0-0.2,0-0.3-0.1s-0.2-0.1-0.2-0.1c-0.1-0.1-0.1-0.1-0.1-0.2c0-0.1-0.1-0.2-0.1-0.3
			c0-0.1,0-0.2,0.1-0.3c0-0.1,0.1-0.2,0.1-0.2c0,0,0.1-0.1,0.1-0.1c0,0,0.1,0,0.1-0.1c0,0,0.1,0,0.1,0c0.2,0,0.4,0,0.6,0.2
			c0.1,0.1,0.1,0.1,0.1,0.2c0,0.1,0.1,0.2,0.1,0.3c0,0.1,0,0.2,0,0.3c0,0.1-0.1,0.2-0.1,0.2C22.1,16.7,21.9,16.8,21.8,16.8z"/>
	</g>
	<g>
		<path class="st0" d="M5.4,20.3c-0.1,0-0.2,0-0.3,0c-0.1,0-0.2-0.1-0.2-0.1c-0.1-0.1-0.2-0.3-0.2-0.5c0-0.1,0-0.2,0.1-0.3
			c0-0.1,0.1-0.2,0.1-0.2c0.2-0.3,0.7-0.3,1,0c0.1,0.1,0.1,0.1,0.1,0.2C6,19.4,6,19.5,6,19.6c0,0.2-0.1,0.3-0.2,0.5
			C5.7,20.2,5.5,20.3,5.4,20.3z"/>
		<path class="st0" d="M15.3,19.6c0-0.4,0.3-0.7,0.7-0.7l0,0c0.4,0,0.7,0.3,0.7,0.7l0,0c0,0.4-0.3,0.7-0.7,0.7l0,0
			C15.6,20.3,15.3,20,15.3,19.6z M12.7,19.6c0-0.4,0.3-0.7,0.7-0.7l0,0c0.4,0,0.7,0.3,0.7,0.7l0,0c0,0.4-0.3,0.7-0.7,0.7l0,0
			C13,20.3,12.7,20,12.7,19.6z M10,19.6c0-0.4,0.3-0.7,0.7-0.7l0,0c0.4,0,0.7,0.3,0.7,0.7l0,0c0,0.4-0.3,0.7-0.7,0.7l0,0
			C10.3,20.3,10,20,10,19.6z M7.3,19.6c0-0.4,0.3-0.7,0.7-0.7l0,0c0.4,0,0.7,0.3,0.7,0.7l0,0c0,0.4-0.3,0.7-0.7,0.7l0,0
			C7.6,20.3,7.3,20,7.3,19.6z"/>
		<path class="st0" d="M18.6,20.3c-0.2,0-0.3-0.1-0.5-0.2C18,19.9,18,19.8,18,19.6c0-0.1,0-0.2,0.1-0.3c0-0.1,0.1-0.2,0.1-0.2
			c0.2-0.3,0.7-0.3,0.9,0c0.1,0.1,0.1,0.1,0.1,0.2c0,0.1,0.1,0.2,0.1,0.3c0,0.2-0.1,0.3-0.2,0.5C19,20.2,18.8,20.3,18.6,20.3z"/>
	</g>
	<path class="st0" d="M20.6,21.8H3.4c-1.9,0-3.4-1.5-3.4-3.4V6.7c0-1.9,1.5-3.4,3.4-3.4h17.3c1.9,0,3.4,1.5,3.4,3.4v11.8
		C24,20.3,22.5,21.8,20.6,21.8z M3.4,4.6c-1.1,0-2,0.9-2,2v11.8c0,1.1,0.9,2,2,2h17.3c1.1,0,2-0.9,2-2V6.7c0-1.1-0.9-2-2-2H3.4z"/>
	<path class="st0" d="M15.1,4.6c-0.4,0-0.7-0.3-0.7-0.7c0-1.4-1.1-2.5-2.5-2.5S9.5,2.6,9.5,4c0,0.4-0.3,0.7-0.7,0.7S8.2,4.3,8.2,4
		c0-2.1,1.7-3.8,3.8-3.8s3.8,1.7,3.8,3.8C15.8,4.3,15.5,4.6,15.1,4.6z"/>
</g>
</svg>
