<?xml version="1.0" encoding="utf-8"?>
<!-- Generator: Adobe Illustrator 19.2.1, SVG Export Plug-In . SVG Version: 6.00 Build 0)  -->
<svg version="1.1" id="Layer_1" xmlns="http://www.w3.org/2000/svg" xmlns:xlink="http://www.w3.org/1999/xlink" x="0px" y="0px"
	 width="24" height="15" viewBox="0 0 24 15" style="enable-background:new 0 0 24 15;" xml:space="preserve">
<style type="text/css">
	.st0{fill:#2DBC56;}
</style>
<g>
	<path class="st0" d="M23.4,14.6H0.6C0.3,14.6,0,14.4,0,14V1c0-0.3,0.3-0.6,0.6-0.6h22.8C23.7,0.4,24,0.6,24,1v13
		C24,14.4,23.7,14.6,23.4,14.6z M1.2,13.4h21.5V1.6H1.2V13.4z"/>
	<path class="st0" d="M13.4,14.6h-2.7c-0.3,0-0.6-0.3-0.6-0.6V9.5H0.6C0.3,9.5,0,9.2,0,8.9V6.1c0-0.3,0.3-0.6,0.6-0.6H10V1
		c0-0.3,0.3-0.6,0.6-0.6h2.7C13.7,0.4,14,0.6,14,1v4.5h9.4c0.3,0,0.6,0.3,0.6,0.6v2.7c0,0.3-0.3,0.6-0.6,0.6H14V14
		C14,14.4,13.7,14.6,13.4,14.6z M11.3,13.4h1.5V8.9c0-0.3,0.3-0.6,0.6-0.6h9.4V6.8h-9.4c-0.3,0-0.6-0.3-0.6-0.6V1.6h-1.5v4.5
		c0,0.3-0.3,0.6-0.6,0.6H1.2v1.5h9.4c0.3,0,0.6,0.3,0.6,0.6V13.4z"/>
	<g>
		<path class="st0" d="M23.4,14.6c-0.1,0-0.2,0-0.3-0.1l-9-5.1c-0.3-0.2-0.4-0.6-0.2-0.8c0.2-0.3,0.6-0.4,0.8-0.2l9,5.1
			c0.3,0.2,0.4,0.6,0.2,0.8C23.8,14.5,23.6,14.6,23.4,14.6z"/>
		<path class="st0" d="M9.6,6.7c-0.1,0-0.2,0-0.3-0.1l-9-5.1C0,1.4-0.1,1,0.1,0.7c0.2-0.3,0.5-0.4,0.8-0.2l9,5.1
			c0.3,0.2,0.4,0.6,0.2,0.8C10,6.6,9.8,6.7,9.6,6.7z"/>
	</g>
	<g>
		<path class="st0" d="M0.6,14.6c-0.2,0-0.4-0.1-0.5-0.3C-0.1,14,0,13.6,0.3,13.5l9-5.1c0.3-0.2,0.7-0.1,0.8,0.2
			c0.2,0.3,0.1,0.7-0.2,0.8l-9,5.1C0.8,14.6,0.7,14.6,0.6,14.6z"/>
		<path class="st0" d="M14.4,6.7c-0.2,0-0.4-0.1-0.5-0.3c-0.2-0.3-0.1-0.7,0.2-0.8l9-5.1c0.3-0.2,0.7-0.1,0.8,0.2
			C24.1,1,24,1.4,23.7,1.5l-9,5.1C14.6,6.7,14.5,6.7,14.4,6.7z"/>
	</g>
</g>
</svg>
