<?xml version="1.0" encoding="utf-8"?>
<!-- Generator: Adobe Illustrator 19.2.1, SVG Export Plug-In . SVG Version: 6.00 Build 0)  -->
<svg version="1.1" id="Layer_1" xmlns="http://www.w3.org/2000/svg" xmlns:xlink="http://www.w3.org/1999/xlink" x="0px" y="0px"
	 width="29" height="21" viewBox="0 0 29 21" style="enable-background:new 0 0 29 21;" xml:space="preserve">
<g>
	<path class="st0" d="M28.1,9.4h-2.2c-0.5,0-0.9,0.4-0.9,0.9c0,0.5,0.4,0.9,0.9,0.9h2.2c0.5,0,0.9-0.4,0.9-0.9
		C29,9.8,28.6,9.4,28.1,9.4z" fill="#4FAF4F"/>
	<path class="st0" d="M28.1,0.3H0.9C0.4,0.3,0,0.7,0,1.3v9c0,0.5,0.4,0.9,0.9,0.9h2.1c0.5,0,0.9-0.4,0.9-0.9c0-0.5-0.4-0.9-0.9-0.9
		H1.8V2.2h25.3V8c0,0.5,0.4,0.9,0.9,0.9S29,8.6,29,8V1.3C29,0.7,28.6,0.3,28.1,0.3z" fill="#4FAF4F"/>
	<path class="st0" d="M24.1,3.7H4.9C4.4,3.7,4,4.1,4,4.6s0.4,0.9,0.9,0.9h19.2c0.5,0,0.9-0.4,0.9-0.9S24.6,3.7,24.1,3.7z" fill="#4FAF4F"/>
	<path class="st0" d="M23,6.6h-1c-0.5,0-0.9,0.4-0.9,0.9c0,0.5,0.4,0.9,0.9,0.9h0.1v3.9c-0.8,0.2-1.5,0.6-2.1,1.2
		c-0.6,0.6-1,1.3-1.2,2.1h-8.6c-0.2-0.8-0.6-1.5-1.2-2.1c-0.6-0.6-1.3-1-2.1-1.2V8.5h2.2c0.2,1.1,0.7,2.1,1.5,2.9
		c1,1,2.4,1.6,3.9,1.6c1.3,0,2.5-0.4,3.5-1.2l0,0l0.4-0.4c1-1,1.6-2.4,1.6-3.9c0-0.5-0.4-0.9-0.9-0.9h-6.1c-0.5,0-0.9,0.4-0.9,0.9
		c0,0.5,0.4,0.9,0.9,0.9H18c-0.2,0.6-0.5,1.2-0.9,1.6L17,10.2c-0.7,0.6-1.6,1-2.5,1c-1,0-1.9-0.4-2.6-1.1c-0.7-0.7-1.1-1.6-1.1-2.6
		c0-0.5-0.4-0.9-0.9-0.9H6c-0.5,0-0.9,0.4-0.9,0.9v9c0,0.5,0.4,0.9,0.9,0.9h17c0.5,0,0.9-0.4,0.9-0.9v-9C23.9,7.1,23.5,6.6,23,6.6z
		 M6.9,14.3c0.3,0.1,0.6,0.3,0.8,0.5c0.2,0.2,0.4,0.5,0.5,0.8H6.9V14.3z M20.7,15.7c0.1-0.3,0.3-0.6,0.5-0.8
		c0.2-0.2,0.5-0.4,0.8-0.5v1.4H20.7z" fill="#4FAF4F"/>
	<path class="st0" d="M23,18.8H6c-0.5,0-0.9,0.4-0.9,0.9c0,0.5,0.4,0.9,0.9,0.9h17c0.5,0,0.9-0.4,0.9-0.9
		C23.9,19.2,23.5,18.8,23,18.8z" fill="#4FAF4F"/>
</g>
</svg>
