<?xml version="1.0" encoding="utf-8"?>
<!-- Generator: Adobe Illustrator 19.2.1, SVG Export Plug-In . SVG Version: 6.00 Build 0)  -->
<svg version="1.1" id="Layer_1" xmlns="http://www.w3.org/2000/svg" xmlns:xlink="http://www.w3.org/1999/xlink" x="0px" y="0px"
	 width="28" height="22" viewBox="0 0 28 22" style="enable-background:new 0 0 28 22;" xml:space="preserve">
<style type="text/css">
	.st0{fill:#2DBC56;}
</style>
<g>
	<g>
		<path class="st0" d="M13.3,22.1c-0.5,0-1.1-0.3-1.4-0.8l-0.6-0.8c-0.9,0.1-1.8,0.1-2.8,0L8,21.3c-0.5,0.7-1.5,0.9-2.2,0.4l-1.7-1
			c-0.7-0.4-1-1.4-0.7-2.2l0.4-0.9c-0.6-0.8-1.1-1.6-1.4-2.4l-1-0.1C0.6,15.1,0,14.3,0,13.4l0-2c0-0.8,0.6-1.5,1.5-1.7l1-0.1
			c0.1-0.4,0.3-0.8,0.6-1.3C3.4,8,3.7,7.6,4,7.3L3.6,6.4c-0.4-0.8,0-1.7,0.7-2.1l1.7-1C6.8,2.8,7.8,3,8.3,3.8l0.6,0.8
			c0.9-0.1,1.8-0.1,2.8,0l0.6-0.8c0.5-0.7,1.5-0.9,2.2-0.4l1.7,1c0.7,0.4,1,1.4,0.7,2.2l-0.4,0.9c0.6,0.7,1,1.5,1.4,2.4l1,0.1
			c0.8,0.1,1.5,0.8,1.5,1.7l0,2c0,0.8-0.6,1.5-1.5,1.7l-1,0.1c-0.1,0.4-0.3,0.8-0.6,1.3c-0.2,0.4-0.5,0.8-0.8,1.1l0.4,0.9
			c0.4,0.8,0,1.7-0.7,2.1l-1.7,1C13.9,22,13.6,22.1,13.3,22.1z M11.6,19.4c0.2,0,0.4,0.1,0.5,0.2l0.8,1.1c0.1,0.2,0.4,0.3,0.6,0.2
			l1.8-1c0.2-0.1,0.3-0.4,0.2-0.6L15,18c-0.1-0.2,0-0.4,0.1-0.6c0.3-0.4,0.7-0.8,1-1.2c0.3-0.5,0.5-0.9,0.6-1.4
			c0.1-0.2,0.3-0.4,0.5-0.4l1.4-0.1c0.2,0,0.5-0.2,0.5-0.5l0-2c0-0.3-0.2-0.5-0.4-0.5L17.2,11c-0.2,0-0.4-0.2-0.5-0.4
			c-0.3-1-0.8-1.9-1.5-2.6c-0.2-0.2-0.2-0.4-0.1-0.6l0.6-1.2c0.1-0.2,0-0.5-0.2-0.7l-1.7-1c-0.2-0.1-0.5-0.1-0.7,0.1l-0.8,1.1
			c-0.1,0.2-0.4,0.3-0.6,0.2c-1.1-0.2-2.1-0.2-3,0c-0.2,0.1-0.5,0-0.6-0.2L7.3,4.4C7.2,4.2,6.9,4.1,6.7,4.3l-1.8,1
			C4.7,5.4,4.6,5.7,4.7,5.9l0.5,1.3c0.1,0.2,0.1,0.4-0.1,0.6C4.7,8.2,4.4,8.6,4.1,9c-0.3,0.5-0.5,0.9-0.6,1.4
			c-0.1,0.2-0.3,0.4-0.5,0.4l-1.4,0.1c-0.2,0-0.5,0.2-0.5,0.5l0,2c0,0.3,0.2,0.5,0.4,0.5L3,14.1c0.2,0,0.4,0.2,0.5,0.4
			c0.3,0.9,0.8,1.8,1.5,2.7c0.1,0.2,0.2,0.4,0.1,0.6l-0.6,1.2c-0.1,0.2,0,0.5,0.2,0.7l1.7,1c0.2,0.1,0.5,0.1,0.7-0.1l0.8-1.1
			c0.1-0.2,0.4-0.3,0.6-0.2c1.1,0.2,2.1,0.3,3,0C11.5,19.4,11.6,19.4,11.6,19.4z"/>
		<path class="st0" d="M10.1,16.6c-0.7,0-1.4-0.2-2.1-0.6c-1.9-1.2-2.6-3.7-1.4-5.6c1.2-1.9,3.7-2.6,5.6-1.4l0,0
			c0.9,0.6,1.6,1.4,1.9,2.5c0.3,1.1,0.1,2.2-0.5,3.1c-0.6,0.9-1.4,1.6-2.5,1.9C10.8,16.6,10.5,16.6,10.1,16.6z M10.1,9.6
			c-1,0-2,0.5-2.5,1.4c-0.8,1.4-0.4,3.2,1,4c0.7,0.4,1.4,0.5,2.2,0.3c0.8-0.2,1.4-0.7,1.8-1.3c0.4-0.7,0.5-1.4,0.3-2.2
			c-0.2-0.8-0.7-1.4-1.3-1.8l0,0C11.2,9.8,10.6,9.6,10.1,9.6z"/>
	</g>
	<g>
		<path class="st0" d="M23.1,11.3C23.1,11.3,23.1,11.3,23.1,11.3l-1.1,0c-0.6,0-1.1-0.5-1.1-1.1l0-0.4c-0.4-0.2-0.8-0.4-1.1-0.6
			l-0.3,0.1c-0.5,0.2-1.2,0-1.5-0.5l-0.5-1c-0.3-0.5-0.2-1.2,0.3-1.5L18,6.1c0-0.2,0-0.4,0-0.6c0-0.2,0-0.4,0.1-0.6l-0.3-0.2
			c-0.5-0.3-0.6-1-0.3-1.6L18,2.2c0.3-0.5,1-0.7,1.5-0.4l0.3,0.1c0.3-0.2,0.7-0.4,1.1-0.6l0-0.4c0.1-0.6,0.6-1,1.2-1c0,0,0,0,0,0
			l1.1,0c0.6,0,1.1,0.5,1.1,1.1l0,0.3c0.4,0.2,0.7,0.4,1.1,0.7l0.3-0.1c0.5-0.2,1.2,0,1.5,0.5l0.5,1c0.3,0.5,0.2,1.2-0.3,1.5L27.2,5
			c0,0.2,0,0.4,0,0.6c0,0.2,0,0.4-0.1,0.6l0.3,0.2c0.5,0.3,0.6,1,0.3,1.6L27.2,9c-0.3,0.5-1,0.7-1.5,0.4l-0.3-0.1
			c-0.3,0.2-0.7,0.4-1.1,0.6l0,0.4C24.2,10.8,23.7,11.3,23.1,11.3z M19.8,7.9c0.1,0,0.3,0.1,0.4,0.2c0.3,0.3,0.8,0.6,1.3,0.8
			c0.2,0.1,0.4,0.3,0.4,0.5l0.1,0.7l1.1,0l0.1-0.7c0-0.2,0.2-0.4,0.4-0.5c0.5-0.2,1-0.4,1.3-0.7C25.1,8,25.3,8,25.5,8.1l0.7,0.3
			l0.6-0.9L26.2,7C26,6.9,25.9,6.6,26,6.4c0.1-0.3,0.1-0.5,0.1-0.8c0-0.3,0-0.5-0.1-0.7c-0.1-0.2,0-0.5,0.2-0.6l0.6-0.4l-0.5-1
			l-0.7,0.3c-0.2,0.1-0.5,0-0.6-0.1c-0.4-0.4-0.8-0.6-1.3-0.8c-0.2-0.1-0.4-0.3-0.4-0.5l-0.1-0.7l-1.1,0l-0.1,0.7
			c0,0.2-0.2,0.4-0.4,0.5c-0.5,0.2-1,0.4-1.3,0.7c-0.2,0.2-0.4,0.2-0.6,0.1l-0.7-0.3l-0.6,0.9l0.6,0.5c0.2,0.1,0.3,0.4,0.2,0.6
			c-0.1,0.3-0.1,0.5-0.1,0.8c0,0.3,0,0.5,0.1,0.7c0.1,0.2,0,0.5-0.2,0.6l-0.6,0.4l0.5,1l0.7-0.3C19.7,7.9,19.8,7.9,19.8,7.9z"/>
		<path class="st0" d="M22.6,8C22.6,8,22.6,8,22.6,8c-0.7,0-1.3-0.3-1.8-0.8c-0.5-0.5-0.7-1.1-0.7-1.7c0-1.3,1.1-2.4,2.5-2.4
			c0,0,0,0,0,0c1.4,0,2.4,1.1,2.4,2.5C25.1,6.9,24,8,22.6,8z M22.6,4.3c-0.7,0-1.3,0.6-1.3,1.3c0,0.7,0.6,1.3,1.3,1.3
			c0.7,0,1.3-0.6,1.3-1.3C23.9,4.9,23.4,4.3,22.6,4.3L22.6,4.3C22.6,4.3,22.6,4.3,22.6,4.3z"/>
	</g>
</g>
</svg>
