<svg version="1.1" xmlns="http://www.w3.org/2000/svg" xmlns:xlink="http://www.w3.org/1999/xlink" width="14" height="14" viewBox="0 0 14 14">
<g id="ic_star_empty">
<path id="Shape-8" d="M13.839,5.831 C14.128,5.534 13.968,5.019 13.568,4.958 C13.568,4.958 9.580,4.349 9.580,4.349 C9.421,4.325 9.284,4.221 9.213,4.069 C9.213,4.069 7.429,0.278 7.429,0.278 C7.250,-0.103 6.733,-0.103 6.554,0.278 C6.554,0.278 4.771,4.069 4.771,4.069 C4.699,4.221 4.562,4.325 4.403,4.349 C4.403,4.349 0.415,4.958 0.415,4.958 C0.015,5.019 -0.145,5.534 0.144,5.831 C0.144,5.831 3.031,8.782 3.031,8.782 C3.145,8.900 3.198,9.069 3.171,9.235 C3.171,9.235 2.490,13.403 2.490,13.403 C2.421,13.821 2.839,14.140 3.197,13.943 C3.197,13.943 6.765,11.975 6.765,11.975 C6.907,11.896 7.077,11.896 7.219,11.975 C7.219,11.975 10.786,13.943 10.786,13.943 C11.144,14.140 11.562,13.821 11.494,13.403 C11.494,13.403 10.812,9.235 10.812,9.235 C10.785,9.069 10.838,8.900 10.953,8.782 C10.953,8.782 13.839,5.831 13.839,5.831 zM10.190,9.347 C10.190,9.347 10.822,13.214 10.822,13.214 C10.822,13.214 7.513,11.388 7.513,11.388 C7.353,11.300 7.173,11.253 6.992,11.254 C6.811,11.253 6.631,11.300 6.471,11.389 C6.471,11.389 3.161,13.214 3.161,13.214 C3.161,13.214 3.793,9.347 3.793,9.347 C3.855,8.966 3.735,8.578 3.471,8.308 C3.471,8.308 0.794,5.569 0.794,5.569 C0.794,5.569 4.494,5.005 4.494,5.005 C4.859,4.950 5.173,4.710 5.337,4.363 C5.337,4.363 6.992,0.845 6.992,0.845 C6.992,0.845 8.647,4.363 8.647,4.363 C8.810,4.710 9.125,4.950 9.489,5.005 C9.489,5.005 13.190,5.569 13.190,5.569 C13.190,5.569 10.512,8.308 10.512,8.308 C10.248,8.578 10.128,8.966 10.190,9.347 z" fill="#FFCC00" />
</g>
</svg>
