<?xml version="1.0" encoding="utf-8"?>
<!-- Generator: Adobe Illustrator 19.2.1, SVG Export Plug-In . SVG Version: 6.00 Build 0)  -->
<svg version="1.1" id="Layer_1" xmlns="http://www.w3.org/2000/svg" xmlns:xlink="http://www.w3.org/1999/xlink" x="0px" y="0px"
	 width="21" height="23" viewBox="0 0 21 23" style="enable-background:new 0 0 21 23;" xml:space="preserve">
<style type="text/css">
	.st0{fill:#2DBC56;}
</style>
<g>
	<path class="st0" d="M10.7,14.6c-1.7,0-3.1-1.4-3.1-3.1S9,8.4,10.7,8.4c1.7,0,3.1,1.4,3.1,3.1S12.5,14.6,10.7,14.6z M10.7,9.7
		c-1,0-1.8,0.8-1.8,1.8s0.8,1.8,1.8,1.8c1,0,1.8-0.8,1.8-1.8S11.7,9.7,10.7,9.7z"/>
	<path class="st0" d="M10.7,23c-2.9,0-5.1-4.9-5.1-11.5C5.7,4.9,7.9,0,10.7,0c0.8,0,1.6,0.4,2.3,1.2c0.2,0.3,0.2,0.7-0.1,0.9
		c-0.3,0.2-0.7,0.2-0.9-0.1c-0.5-0.5-0.9-0.8-1.4-0.8C9,1.3,7,5.5,7,11.5s2,10.2,3.8,10.2s3.8-4.2,3.8-10.2c0-2.7-0.4-5.3-1.2-7.2
		c-0.1-0.3,0-0.7,0.4-0.8c0.3-0.1,0.7,0,0.8,0.4c0.8,2.1,1.2,4.8,1.2,7.7C15.8,18.1,13.6,23,10.7,23z"/>
	<path class="st0" d="M4.3,18.8c-1.7,0-3-0.5-3.5-1.5c-0.4-0.7-0.5-1.6-0.1-2.6c0.1-0.3,0.5-0.5,0.8-0.4C1.8,14.3,2,14.7,1.9,15
		c-0.2,0.6-0.2,1.2,0,1.6c0.4,0.8,1.8,1,3.7,0.8c2.1-0.3,4.6-1.2,7.1-2.6c5.2-3,7.8-6.8,7-8.4c-0.4-0.8-1.8-1-3.7-0.8
		c-2.1,0.3-4.6,1.2-7.1,2.6c-2.3,1.4-4.4,3-5.7,4.6C3,13.1,2.6,13.2,2.3,13C2,12.7,2,12.3,2.2,12c1.4-1.7,3.6-3.5,6-4.9
		c2.6-1.5,5.3-2.5,7.5-2.8c2.5-0.3,4.2,0.2,5,1.4c1.4,2.5-1.8,6.9-7.4,10.1c-2.6,1.5-5.3,2.5-7.5,2.8C5.2,18.7,4.8,18.8,4.3,18.8z"
		/>
	<path class="st0" d="M15.8,18.7C15.7,18.7,15.7,18.7,15.8,18.7c-2.4-0.3-5-1.3-7.6-2.8c-2.6-1.5-4.8-3.3-6.2-5.1
		c-1.5-2-2-3.7-1.2-5c0.7-1.3,2.5-1.8,5-1.4c2.3,0.3,4.9,1.3,7.5,2.8c5.7,3.3,8.9,7.6,7.4,10.1c-0.4,0.7-1.1,1.1-2,1.4
		c-0.3,0.1-0.7-0.1-0.8-0.5c-0.1-0.3,0.1-0.7,0.5-0.8c0.6-0.1,1-0.4,1.2-0.8c0.9-1.5-1.8-5.3-7-8.4c-2.4-1.4-4.9-2.3-7.1-2.6
		c-1.9-0.3-3.2,0-3.7,0.8s0,2.1,1.1,3.6c1.3,1.7,3.4,3.4,5.8,4.8c2.4,1.4,4.9,2.3,7,2.6c0.4,0.1,0.6,0.4,0.6,0.7
		C16.4,18.4,16.1,18.7,15.8,18.7z"/>
	<path class="st0" d="M13.4,4.8c-1.1,0-2-0.9-2-2s0.9-2,2-2s2,0.9,2,2S14.5,4.8,13.4,4.8z M13.4,2.1c-0.4,0-0.7,0.3-0.7,0.7
		s0.3,0.7,0.7,0.7c0.4,0,0.7-0.3,0.7-0.7S13.8,2.1,13.4,2.1z"/>
	<path class="st0" d="M2,15.7c-1.1,0-2-0.9-2-2c0-1.1,0.9-2,2-2c1.1,0,2,0.9,2,2C4,14.8,3.1,15.7,2,15.7z M2,12.9
		c-0.4,0-0.7,0.3-0.7,0.7c0,0.4,0.3,0.7,0.7,0.7s0.7-0.3,0.7-0.7C2.7,13.2,2.4,12.9,2,12.9z"/>
	<path class="st0" d="M17.1,20.2c-1.1,0-2-0.9-2-2s0.9-2,2-2c1.1,0,2,0.9,2,2S18.3,20.2,17.1,20.2z M17.1,17.4
		c-0.4,0-0.7,0.3-0.7,0.7s0.3,0.7,0.7,0.7c0.4,0,0.7-0.3,0.7-0.7S17.6,17.4,17.1,17.4z"/>
</g>
</svg>
