<svg version="1.1" xmlns="http://www.w3.org/2000/svg" xmlns:xlink="http://www.w3.org/1999/xlink" width="40" height="200" viewBox="0 0 40 200">
<g id="img_sidebar_step">
<path id="Ellipse-2" d="M20.000,0.000 C31.046,0.000 40.000,8.954 40.000,20.000 C40.000,31.046 31.046,40.000 20.000,40.000 C8.954,40.000 0.000,31.046 0.000,20.000 C0.000,8.954 8.954,0.000 20.000,0.000 z" fill="#4FAF4F" />
<path id="1" d="M21.668,12.588 L20.829,12.588 L16.952,15.488 C16.952,15.488 17.508,16.182 17.508,16.182 C19.416,14.691 20.422,13.900 20.526,13.809 C20.630,13.718 20.731,13.623 20.829,13.526 C20.750,14.541 20.711,15.521 20.711,16.465 C20.711,16.465 20.711,26.865 20.711,26.865 L21.668,26.865 L21.668,12.588 z" fill="#FFFFFF" />
<path id="Ellipse-2" d="M20.000,80.000 C31.046,80.000 40.000,88.954 40.000,100.000 C40.000,111.046 31.046,120.000 20.000,120.000 C8.954,120.000 0.000,111.046 0.000,100.000 C0.000,88.954 8.954,80.000 20.000,80.000 z" fill="#4FAF4F" />
<path id="2" d="M25.047,105.928 L17.411,105.928 L17.411,105.889 C17.411,105.889 21.073,102.129 21.073,102.129 C22.342,100.834 23.216,99.745 23.695,98.862 C24.173,97.980 24.413,97.067 24.413,96.123 C24.413,94.958 24.056,94.043 23.343,93.379 C22.630,92.715 21.652,92.383 20.409,92.383 C18.957,92.383 17.635,92.884 16.444,93.887 C16.444,93.887 16.971,94.561 16.971,94.561 C18.058,93.695 19.198,93.262 20.389,93.262 C21.281,93.262 22.007,93.529 22.567,94.063 C23.127,94.597 23.407,95.290 23.407,96.143 C23.407,96.729 23.306,97.289 23.104,97.822 C22.902,98.356 22.586,98.916 22.157,99.502 C21.727,100.088 20.978,100.934 19.911,102.041 C19.911,102.041 16.112,106.006 16.112,106.006 L16.112,106.865 L25.047,106.865 L25.047,105.928 z" fill="#FFFFFF" />
<path id="Ellipse-2" d="M20.000,160.000 C31.046,160.000 40.000,168.954 40.000,180.000 C40.000,191.046 31.046,200.000 20.000,200.000 C8.954,200.000 0.000,191.046 0.000,180.000 C0.000,168.954 8.954,160.000 20.000,160.000 z" fill="#4FAF4F" />
<path id="3" d="M23.495,173.316 C22.778,172.694 21.763,172.383 20.448,172.383 C19.647,172.383 18.856,172.518 18.075,172.788 C17.293,173.058 16.626,173.425 16.073,173.887 C16.073,173.887 16.551,174.541 16.551,174.541 C17.280,174.059 17.938,173.719 18.524,173.521 C19.110,173.322 19.758,173.223 20.467,173.223 C21.379,173.223 22.116,173.462 22.679,173.941 C23.242,174.419 23.524,175.056 23.524,175.850 C23.524,176.813 23.177,177.577 22.484,178.140 C21.791,178.703 20.851,178.984 19.667,178.984 C19.667,178.984 18.104,178.984 18.104,178.984 L18.104,179.922 C18.104,179.922 19.647,179.922 19.647,179.922 C21.079,179.922 22.165,180.176 22.904,180.684 C23.643,181.192 24.012,181.918 24.012,182.861 C24.012,183.923 23.651,184.745 22.928,185.327 C22.206,185.910 21.125,186.201 19.686,186.201 C19.087,186.201 18.447,186.120 17.767,185.957 C17.087,185.794 16.473,185.570 15.926,185.283 C15.926,185.283 15.926,186.250 15.926,186.250 C17.007,186.791 18.273,187.061 19.725,187.061 C21.431,187.061 22.738,186.694 23.646,185.962 C24.554,185.230 25.008,184.196 25.008,182.861 C25.008,181.872 24.709,181.084 24.110,180.498 C23.511,179.912 22.638,179.548 21.493,179.404 C21.493,179.404 21.493,179.346 21.493,179.346 C22.430,179.177 23.177,178.789 23.734,178.184 C24.291,177.578 24.569,176.833 24.569,175.947 C24.569,174.815 24.211,173.937 23.495,173.316 z" fill="#FFFFFF" />
<path id="Shape-13" d="M26.910,57.273 C26.757,57.017 26.426,56.939 26.172,57.091 C26.172,57.091 20.002,60.836 20.002,60.836 C20.002,60.836 13.832,57.091 13.832,57.091 C13.580,56.939 13.249,57.017 13.095,57.273 C12.941,57.529 13.022,57.861 13.276,58.015 C13.276,58.015 19.724,61.928 19.724,61.928 C19.727,61.930 19.731,61.929 19.734,61.931 C19.816,61.979 19.908,62.006 20.002,62.006 C20.097,62.006 20.189,61.979 20.271,61.931 C20.274,61.929 20.277,61.930 20.280,61.928 C20.280,61.928 26.728,58.015 26.728,58.015 C26.982,57.861 27.063,57.529 26.910,57.273 z" fill="#AFAFAF" />
<path id="Shape-13" d="M26.910,137.274 C26.757,137.017 26.426,136.939 26.172,137.091 C26.172,137.091 20.002,140.836 20.002,140.836 C20.002,140.836 13.832,137.091 13.832,137.091 C13.580,136.939 13.249,137.017 13.095,137.274 C12.941,137.529 13.022,137.861 13.276,138.015 C13.276,138.015 19.724,141.928 19.724,141.928 C19.727,141.930 19.731,141.929 19.734,141.931 C19.816,141.978 19.908,142.006 20.002,142.006 C20.097,142.006 20.189,141.978 20.271,141.931 C20.274,141.929 20.277,141.930 20.280,141.928 C20.280,141.928 26.728,138.015 26.728,138.015 C26.982,137.861 27.063,137.529 26.910,137.274 z" fill="#AFAFAF" />
</g>
</svg>
