<?xml version="1.0" encoding="utf-8"?>
<svg width="443" height="388" viewBox="0 0 443 388" fill="none" xmlns="http://www.w3.org/2000/svg">
    <path d="M242.37 158.731C236.9 162.302 234.7 166.92 235.771 172.587C240.895 180.266 243.456 186.916 243.456 192.536C243.456 198.157 243.842 205.467 244.613 214.469L287.192 215.368L287.282 215.314C288.42 215.336 289.538 215.354 290.638 215.368C300.114 215.491 308.522 216.746 308.918 216.808C312.021 217.29 317.613 211.533 319.165 209.582C321.659 206.449 322.844 202.74 323.371 198.703C323.868 194.896 323.167 191.356 321.79 187.962C320.182 183.998 317.664 180.566 314.472 177.544C310.972 174.335 307.203 171.716 302.978 169.784C302.814 169.709 299.781 168.216 299.636 168.236C299.538 168.249 294.69 169.802 287.947 172.952C280.295 167.513 272.018 161.757 263.115 155.685C254.755 154.146 247.84 155.161 242.37 158.731Z" fill="white"/>
    <path fill-rule="evenodd" clip-rule="evenodd" d="M297.466 251.398C290.771 252.776 286.734 250.149 285.357 243.516C283.291 233.567 295.773 235.345 299.593 230.225C303.413 225.104 294.94 224.078 285.357 227.151C275.766 226.731 272.998 227.28 272.447 224.635C271.896 221.99 276.893 220.323 290.24 220.76C303.587 221.196 301.624 221.214 300.608 232.365C299.931 239.799 298.884 246.144 297.466 251.398Z" fill="white"/>
    <path d="M131.075 272.647C136.221 268.39 139.845 265.712 141.788 264C146.427 259.912 151.178 255.952 155.859 251.91C156.821 251.079 157.755 250.185 158.547 249.195C159.541 247.952 159.314 247.095 157.745 246.49C156.507 246.012 155.155 245.793 153.833 245.582C149.893 244.952 145.946 244.363 141.996 243.797C140.261 243.549 138.511 243.403 136.771 243.187C136.46 243.148 136.163 242.993 135.86 242.891C136.01 242.647 136.126 242.369 136.317 242.162C137.841 240.516 139.379 238.883 140.914 237.248C141.049 237.104 141.193 236.967 141.332 236.828C141.114 236.775 140.898 236.705 140.677 236.672C136.633 236.075 132.59 235.475 128.543 234.893C125.887 234.51 123.231 234.115 120.566 233.801C117.838 233.481 115.103 233.221 112.366 232.995C109.918 232.793 107.461 232.708 105.013 232.504C103.445 232.373 101.892 232.064 100.324 231.938C98.3636 231.779 96.3928 231.754 94.43 231.619C91.9782 231.452 89.5316 231.205 87.0795 231.041C85.0183 230.904 82.9503 230.866 80.8892 230.727C79.2265 230.615 77.5724 230.37 75.9093 230.269C74.2844 230.171 72.653 230.181 71.0245 230.143C66.8081 230.045 62.592 229.924 58.375 229.855C55.7949 229.812 53.1926 229.652 50.6412 229.927C49.3108 230.07 47.7905 230.757 46.842 231.694C44.4457 234.059 42.3217 236.702 40.0945 239.239C38.7288 240.795 37.361 242.349 36.0169 243.923C33.1841 247.241 30.3731 250.577 27.5382 253.893C26.6577 254.923 25.7155 255.9 24.8315 256.927C24.578 257.222 24.4293 257.607 24.2326 257.95C24.5115 257.722 25.3423 257.011 25.0661 257.263C-2.28049 282.141 112.883 287.431 131.075 272.647Z" fill="white"/>
    <path d="M442.584 180.718C442.49 178.157 442.411 175.594 442.312 173.033C442.28 172.206 442.186 171.381 442.135 170.554C441.711 163.686 440.895 156.862 439.137 150.204C437.735 144.891 435.883 139.723 433.632 134.676C431.065 128.918 427.943 123.503 424.347 118.355C422.514 115.732 420.513 113.205 418.383 110.814C415.821 107.938 413.189 105.09 410.317 102.528C407.039 99.6031 403.516 96.9375 399.979 94.3213C399.191 93.7388 397.799 93.4548 396.859 93.698C395.208 94.1251 394.969 95.5599 396.232 96.6556C399.099 99.1436 400.463 102.32 400.673 106.009C400.789 108.046 400.598 110.101 400.711 112.138C401.084 118.856 399.123 125.04 396.218 130.938C393.44 136.578 389.396 141.222 383.593 143.935C380.264 145.492 376.703 146.584 373.197 147.736C370.151 148.736 367.03 149.509 363.952 150.414C360.932 151.301 357.958 152.107 354.758 151.04C353.117 150.492 351.885 151.96 352.514 153.551C354.891 159.567 356.916 165.811 361.091 170.883C363.596 173.925 366.493 176.741 369.593 179.184C374.144 182.771 379.376 185.328 384.603 187.846C389.701 190.303 394.684 192.998 399.804 195.405C405.572 198.117 411.418 200.67 417.268 203.207C421.987 205.254 426.751 207.2 431.52 209.13C432.66 209.592 433.881 209.915 435.097 210.117C436.314 210.318 438.989 208.409 439.467 207.147C440.68 203.945 441.504 200.651 441.845 197.238C442.052 195.161 442.331 193.091 442.652 191.018C442.726 190.871 442.726 190.724 442.652 190.503C442.528 187.662 442.477 184.895 442.442 182.127C442.441 182.051 442.627 181.973 442.726 181.895C442.726 181.552 442.726 181.209 442.726 180.792C442.676 180.718 442.584 180.718 442.584 180.718Z" fill="white"/>
    <path fill-rule="evenodd" clip-rule="evenodd" d="M245.123 214.378L155.515 212.095L151.84 212.095C146.481 216.086 140.603 217.806 134.203 217.255C124.604 216.428 116.128 205.834 114.148 191.063C113.857 189.911 113.149 189.634 112.026 190.232C110.789 192.644 108.595 193.695 105.442 193.388C104.074 193.24 103.312 193.56 102.54 195.046C101.767 196.531 97.6821 198.4 95.1217 196.9C92.5613 195.401 80.7569 176.281 80.7569 173.064C80.7569 169.846 80.0948 162.82 79.5738 162.366C79.0528 161.912 78.0728 162.281 76.1703 161.678C74.2678 161.074 72.6397 161.675 66.54 145.663C60.4403 129.651 51.1077 105.715 50.1136 88.9542C49.1195 72.1936 60.9585 78.1175 66.54 85.1116C72.1216 92.1057 87.6806 110.114 102.081 119.894C103.843 121.21 105.281 121.829 106.396 121.75C107.064 117.588 109.801 116.037 114.607 117.097C116.475 117.433 118.003 115.957 119.193 112.668C122.274 95.5949 129.297 83.2408 140.264 75.6058C156.714 64.1533 184.743 57.6084 191.487 81.554C195.983 97.5177 193.28 116.912 183.378 139.738L187.501 143.306C203.723 148.918 216.975 155.845 227.257 164.089C242.681 176.454 242.976 188.515 243.794 198.464C244.34 205.096 244.783 210.401 245.123 214.378Z" fill="white"/>
    <path d="M278.28 145.435C278.143 144.138 278.081 142.833 277.931 141.537C277.923 141.468 277.264 141.319 277.074 141.449C275.311 142.661 273.566 143.902 271.857 145.19C271.394 145.539 271.358 145.886 271.147 144.973C270.819 143.546 268.788 143.147 267.572 144.161C264.784 146.487 263.376 149.615 262.356 153.015C261.47 155.965 261.821 158.963 261.735 161.943C261.68 163.856 259.888 165.299 258.008 165.376C256.618 165.433 255.156 166.043 253.905 166.733C250.878 168.402 248.933 171.035 247.976 174.353C246.947 177.926 247.905 181.106 249.976 184.075C251.859 186.775 253.574 189.603 256.307 191.582C257.82 192.677 259.561 193.586 260.745 194.969C262.016 196.454 263.475 197.423 265.206 198.091C269.47 199.736 274.129 197.602 276.217 194.047C278.423 189.356 286.295 193.179 289.345 186.259C290.884 183.975 291.483 182.06 291.151 181.869C290.746 181.636 291.306 181.044 292.024 180.291C295.156 177.001 297.938 173.437 299.842 169.265C300.142 168.607 300.452 167.928 300.584 167.225C300.664 166.794 300.544 166.178 300.264 165.88C300.088 165.693 299.388 165.827 299.034 166.021C298.503 166.311 298.082 166.796 297.592 167.169C296.757 167.804 296.293 167.533 296.519 166.543C297.163 163.729 296.572 161.057 295.582 158.475C295.048 157.083 294.179 155.812 293.373 154.543C293.296 154.422 292.521 154.605 292.184 154.823C291.558 155.228 291.016 155.763 290.439 156.243C290.4 155.474 290.388 154.702 290.312 153.937C290.268 153.482 290.156 153.026 290.018 152.589C289.327 150.397 288.956 150.286 287.127 151.661C286.881 151.845 286.588 151.965 286.316 152.115C286.279 151.836 286.23 151.558 286.206 151.278C286.005 148.869 286.487 146.683 288.248 144.895C288.269 144.873 287.886 144.245 287.667 144.227C285.13 144.028 282.593 143.923 280.273 145.278C279.798 145.555 279.325 145.834 278.778 146.186C278.557 145.985 278.31 145.722 278.28 145.435Z" fill="white"/>
    <path fill-rule="evenodd" clip-rule="evenodd" d="M240.665 56.8263C248.156 63.0349 251.553 72.0233 250.857 83.7914C249.811 101.444 229.275 114.02 219.342 108.697C209.409 103.374 198.441 95.6192 197.131 79.1131C196.575 94.8198 194.929 102.464 216.105 113.855C237.282 125.246 259.421 107.571 262.623 100.286C265.825 93.0013 273.534 76.9191 257.888 58.2616C255.747 55.7941 250.006 55.3156 240.665 56.8263Z" fill="white"/>
    <path fill-rule="evenodd" clip-rule="evenodd" d="M62.1803 263.363C60.3683 263.164 58.6987 263.005 57.0419 262.759C53.2781 262.2 49.5226 261.586 45.7598 261.02C43.5207 260.683 41.2478 260.52 39.0403 260.043C37.4916 259.709 36.0884 259.926 34.662 260.396C34.4328 260.471 34.2569 260.71 34.0563 260.873C34.2972 261.008 34.5269 261.232 34.7806 261.264C38.0887 261.681 41.4059 262.029 44.7092 262.481C48.0308 262.935 51.336 263.51 54.6551 263.985C56.9679 264.315 59.2941 264.55 61.6102 264.859C62.8175 265.02 64.0116 265.28 65.219 265.441C66.9283 265.669 68.6477 265.821 70.3566 266.051C72.3614 266.321 74.3574 266.656 76.3613 266.933C77.9723 267.156 79.5917 267.318 81.2032 267.538C83.2561 267.818 85.3036 268.138 87.3555 268.425C88.8692 268.637 90.3858 268.829 91.9021 269.022C93.4989 269.226 95.1023 269.385 96.6923 269.633C97.6547 269.782 98.5403 269.775 98.8261 268.668C99.0868 267.658 98.5711 266.866 97.5874 266.649C96.2406 266.35 94.8581 266.187 93.4823 266.057C91.849 265.903 90.2072 265.837 88.5682 265.749C86.5507 265.64 84.5297 265.584 82.5151 265.439C80.3712 265.284 78.2339 265.038 76.0917 264.856C73.5726 264.642 71.0484 264.486 68.5322 264.244C67.2242 264.118 65.9296 263.853 64.6273 263.663C63.8628 263.551 63.0949 263.462 62.1803 263.363Z" fill="#E7EAEE"/>
    <path fill-rule="evenodd" clip-rule="evenodd" d="M101.489 249.408C99.6759 249.31 98.0086 249.241 96.3467 249.106C94.5814 248.963 92.8238 248.726 91.0581 248.589C89.0762 248.435 87.0871 248.373 85.1046 248.225C82.8558 248.058 80.6121 247.822 78.3636 247.649C76.7009 247.522 75.0319 247.475 73.3697 247.342C71.285 247.176 69.2062 246.935 67.1215 246.768C65.4594 246.635 63.7899 246.593 62.1277 246.46C59.931 246.285 57.7416 245.958 55.5428 245.884C53.0344 245.8 50.5149 245.019 48.0084 245.884C47.7099 245.987 47.4386 246.169 47.1547 246.314C47.4247 246.365 47.6926 246.435 47.9649 246.464C49.8667 246.666 51.772 246.838 53.6713 247.061C55.9784 247.332 58.2763 247.687 60.5866 247.922C62.2762 248.095 63.9844 248.083 65.6756 248.244C67.9948 248.465 70.303 248.798 72.6212 249.031C74.3036 249.201 75.9956 249.272 77.6813 249.412C79.88 249.594 82.0773 249.794 84.2739 249.999C86.2756 250.185 88.2776 250.372 90.2761 250.589C92.8282 250.866 95.3737 251.206 97.9281 251.458C100.352 251.698 102.786 251.831 105.21 252.066C106.896 252.229 108.569 252.539 110.257 252.671C110.916 252.722 111.65 252.58 112.254 252.312C112.686 252.12 112.958 251.571 113.302 251.182C112.865 250.885 112.45 250.371 111.99 250.327C109.192 250.059 106.384 249.908 103.58 249.695C102.929 249.646 102.284 249.507 101.489 249.408Z" fill="#E7EAEE"/>
    <path fill-rule="evenodd" clip-rule="evenodd" d="M255.655 286.508C255.806 286.63 255.886 286.723 255.962 286.721C256.655 286.701 257.347 286.664 258.039 286.632C257.378 286.176 256.774 285.474 256.045 285.308C253.179 284.651 250.598 283.494 248.207 281.787C245.082 279.557 243.153 276.633 242.451 272.896C242.343 272.321 242.505 272.063 243.2 272.066C244.191 272.072 245.185 271.909 246.175 271.797C248.113 271.578 249.656 270.208 249.826 268.574C249.935 267.526 248.362 265.332 247.2 264.766C244.497 263.449 241.494 266.049 240.726 268.301C240.417 269.208 240.27 268.879 239.861 268.506C237.932 266.743 237.3 264.479 237.454 261.992C237.618 259.334 238.789 257.197 241.094 255.702C241.893 255.184 242.2 254.446 241.58 253.504C240.905 252.477 239.031 252.408 238.299 253.316C237.309 254.544 236.44 255.958 235.894 257.43C234.569 260.998 234.908 264.466 237.137 267.659C237.296 267.887 237.428 268.151 237.633 268.329C239.383 269.848 240.326 271.739 241.037 273.965C243.146 280.571 247.988 284.47 254.551 286.423C254.867 286.517 255.236 286.435 255.655 286.508ZM246.728 266.531C247.994 267.281 248.34 269.435 247.141 269.809C245.756 270.242 244.155 270.003 242.648 270.017C242.584 270.018 242.475 269.639 242.455 269.431C242.258 267.405 244.157 266.008 246.728 266.531Z" fill="black"/>
    <path fill-rule="evenodd" clip-rule="evenodd" d="M78.8489 255.866C74.667 255.469 70.636 255.042 66.5986 254.686C63.7378 254.434 60.8663 254.305 58.0037 254.07C56.2372 253.925 54.4774 253.692 52.7165 253.482C50.2859 253.193 47.8545 252.655 45.4285 252.682C44.0453 252.698 42.4361 253.147 41.4933 254.548C41.4203 254.657 41.3381 254.759 41.2603 254.865C41.4429 254.901 41.6386 254.999 41.8063 254.964C44.9698 254.294 48.0814 254.942 51.221 255.232C53.4092 255.434 55.6342 255.193 57.8364 255.292C60.0474 255.392 62.2499 255.676 64.4574 255.864C66.8947 256.072 69.3364 256.233 71.7702 256.474C73.0778 256.603 74.369 256.894 75.6749 257.049C77.6154 257.279 79.5657 257.426 81.5058 257.66C83.7247 257.926 85.946 258.193 88.1497 258.56C90.7698 258.995 93.3661 259.575 95.9843 260.023C98.5779 260.468 101.176 260.943 103.792 261.173C104.984 261.278 106.246 260.907 107.437 260.6C108.353 260.365 108.145 259.72 107.562 259.296C107.091 258.955 106.513 258.658 105.948 258.57C104.245 258.304 102.526 258.144 100.813 257.951C99.0018 257.747 97.1924 257.522 95.3775 257.362C92.7938 257.134 90.2033 256.985 87.6204 256.749C86.0508 256.606 84.4928 256.337 82.9246 256.172C81.6192 256.034 80.3065 255.965 78.8489 255.866Z" fill="#E7EAEE"/>
    <path fill-rule="evenodd" clip-rule="evenodd" d="M106.582 243.561C103.132 243.167 99.8323 242.752 96.5272 242.387C94.3796 242.15 92.2209 242.014 90.0732 241.778C88.8182 241.641 87.5771 241.382 86.326 241.203C85.4667 241.08 84.5998 241.012 83.7386 240.901C81.1045 240.564 78.4759 240.178 75.8369 239.886C73.1528 239.588 70.4561 239.406 67.7701 239.123C65.3101 238.865 62.8628 238.462 60.3982 238.287C59.5131 238.224 58.5784 238.589 57.6992 238.864C57.4063 238.955 57.2157 239.373 56.9783 239.642C57.3147 239.753 57.6458 239.938 57.9885 239.963C59.9066 240.101 61.8299 240.17 63.7469 240.321C65.7709 240.481 67.7917 240.689 69.8102 240.909C71.3573 241.077 72.8971 241.312 74.4433 241.49C76.2978 241.703 78.1609 241.849 80.011 242.094C82.7264 242.452 85.432 242.885 88.145 243.262C91.0831 243.671 94.0315 244.011 96.9632 244.46C99.4955 244.848 102.007 245.369 104.534 245.792C107.856 246.348 111.187 246.85 114.508 247.409C115.721 247.612 116.458 246.921 116.567 245.957C116.667 245.084 115.898 244.766 114.915 244.701C112.336 244.529 109.769 244.156 107.2 243.846C107.034 243.826 106.886 243.66 106.582 243.561Z" fill="#E7EAEE"/>
    <path fill-rule="evenodd" clip-rule="evenodd" d="M68.0433 274.504C71.262 274.906 74.3332 275.299 77.4017 275.714C78.7086 275.891 80.0082 276.23 81.3143 276.247C81.7387 276.252 82.5822 275.38 82.5164 275.063C82.3826 274.418 81.8305 273.457 81.3257 273.369C79.1756 272.996 76.9791 272.901 74.8009 272.69C72.8357 272.5 70.8731 272.282 68.9078 272.091C66.7297 271.88 64.5506 271.677 62.3705 271.488C59.9292 271.276 57.4872 271.069 55.0437 270.886C53.3698 270.761 51.6901 270.713 50.0176 270.572C48.0506 270.406 46.0906 270.154 44.1239 269.983C42.5501 269.846 40.9675 269.813 39.3952 269.664C37.7731 269.51 36.159 269.27 34.5406 269.074C34.3454 269.05 34.131 269.024 33.9496 269.079C33.3244 269.271 32.7099 269.499 32.0913 269.713C32.6364 269.902 33.1691 270.188 33.7288 270.262C37.0422 270.697 40.3633 271.071 43.6788 271.49C45.8848 271.769 48.0823 272.118 50.29 272.382C52.3159 272.624 54.3536 272.764 56.3795 273.006C57.4462 273.134 58.4917 273.449 59.5588 273.567C61.8298 273.817 64.1096 273.985 66.3836 274.209C66.8919 274.259 67.3913 274.403 68.0433 274.504Z" fill="#E7EAEE"/>
    <path fill-rule="evenodd" clip-rule="evenodd" d="M314.472 177.544C310.972 174.335 307.203 171.716 302.978 169.784C302.814 169.709 302.646 169.527 302.5 169.547C301.865 169.634 301.238 169.777 300.608 169.9C301.064 170.212 301.489 170.591 301.981 170.824C306.87 173.141 311.423 175.952 315.127 179.98C318.727 183.894 321.308 188.287 321.878 193.771C322.401 198.812 321.762 203.527 318.91 207.779C317.379 210.061 315.313 211.764 312.802 212.895C312.602 212.985 312.414 213.101 312.221 213.204C312.445 213.25 312.668 213.304 312.894 213.339C315.997 213.821 317.613 211.533 319.165 209.582C321.659 206.449 322.844 202.74 323.371 198.703C323.868 194.896 323.167 191.356 321.79 187.962C320.182 183.998 317.664 180.566 314.472 177.544Z" fill="#00160A"/>
    <path fill-rule="evenodd" clip-rule="evenodd" d="M120.336 242.677C120.863 241.517 120.099 240.232 118.886 240.244C116.814 240.263 114.743 240.402 112.672 240.506C111.087 240.586 109.504 240.691 107.92 240.784C107.729 240.795 107.488 240.736 107.356 240.825C106.916 241.122 106.514 241.472 106.097 241.802C106.499 242 106.889 242.338 107.304 242.369C108.588 242.464 109.893 242.557 111.169 242.441C113.428 242.236 115.563 242.744 117.65 243.383C118.785 243.73 119.502 243.368 120.336 242.677Z" fill="#E7EAEE"/>
    <path fill-rule="evenodd" clip-rule="evenodd" d="M419.575 147.112C419.87 148.905 420.197 150.547 420.45 152.199C420.61 153.247 420.645 154.312 420.759 155.367C420.946 157.089 421.273 158.805 421.323 160.53C421.444 164.707 421.406 168.887 421.495 173.065C421.581 177.094 420.805 180.994 419.865 184.875C419.683 185.629 419.628 186.518 419.181 187.08C418.494 187.943 419.131 188.362 419.613 188.494C420.074 188.62 420.972 188.395 421.156 188.048C421.662 187.097 422.005 186.023 422.212 184.959C422.737 182.264 423.374 179.562 423.559 176.835C423.809 173.146 423.636 169.43 423.722 165.727C423.827 161.239 423.166 156.832 422.549 152.408C421.531 145.104 420.076 137.904 417.768 130.895C417.49 130.049 416.864 129.232 416.198 128.619C415.385 127.87 414.131 128.555 413.952 129.684C413.74 131.021 414.349 132.044 415.083 133.054C417.294 136.096 418.4 139.564 418.984 143.23C419.182 144.474 419.378 145.719 419.575 147.112Z" fill="#E7EAEE"/>
    <path fill-rule="evenodd" clip-rule="evenodd" d="M404.666 178.958C404.771 179.875 403.12 180.976 404.96 181.322C405.458 181.416 406.547 180.421 406.775 179.748C407.469 177.706 408.14 175.597 408.326 173.476C408.584 170.546 408.391 167.58 408.391 164.63C408.391 164.288 408.391 163.946 408.391 163.603C408.391 158.958 408.37 154.313 408.405 149.669C408.415 148.437 408.703 147.204 408.667 145.977C408.64 145.074 408.453 144.106 408.038 143.307C407.741 142.735 406.974 142.103 406.366 142.053C405.948 142.018 405.11 142.899 405.042 143.436C404.863 144.844 404.935 146.292 405.04 147.715C405.122 148.82 405.51 149.907 405.577 151.011C405.743 153.771 405.816 156.536 405.905 159.299C406.02 162.877 406.346 166.466 406.146 170.029C405.981 172.973 405.184 175.885 404.666 178.958Z" fill="#E7EAEE"/>
    <path fill-rule="evenodd" clip-rule="evenodd" d="M390.584 172.999C393.38 168.676 395.464 164.111 396.768 159.21C397.031 158.222 396.802 156.969 396.432 155.984C396.254 155.511 395.017 154.981 394.617 155.192C394.073 155.477 393.641 156.424 393.566 157.132C393.277 159.865 393.09 162.572 392.189 165.232C391.093 168.464 389.214 171.162 387.394 173.933C387.016 174.509 385.882 175.079 386.682 175.811C387.478 176.54 388.287 175.695 388.888 175.025C389.452 174.396 389.972 173.725 390.584 172.999Z" fill="#E7EAEE"/>
    <path fill-rule="evenodd" clip-rule="evenodd" d="M377.752 163.737C379.434 162.1 381.117 160.609 382.623 158.946C383.406 158.081 383.259 156.982 382.318 156.157C381.379 155.334 380.792 156.102 380.251 156.728C378.206 159.098 376.189 161.494 374.17 163.888C374.056 164.024 373.934 164.365 373.963 164.385C374.293 164.614 374.72 165.036 374.991 164.953C375.915 164.67 376.788 164.206 377.752 163.737Z" fill="#E7EAEE"/>
    <path fill-rule="evenodd" clip-rule="evenodd" d="M289.169 362.639C285.366 363.591 281.697 364.491 278.074 365.542C277.409 365.734 276.937 366.537 276.376 367.058C277.163 367.108 278 367.35 278.729 367.176C282.492 366.275 286.26 365.371 289.962 364.267C293.594 363.183 297.148 361.86 300.734 360.636C300.905 360.577 301.047 360.445 301.211 360.363C302.089 359.925 303.024 359.479 302.333 358.3C301.695 357.214 300.702 357.24 299.72 357.796C298.279 358.61 296.953 359.637 295.452 360.32C293.471 361.222 291.368 361.878 289.169 362.639Z" fill="#E7EAEE"/>
    <path fill-rule="evenodd" clip-rule="evenodd" d="M284.202 351.442C282.657 352.334 281.175 353.128 279.727 353.982C279.419 354.164 279.236 354.564 278.996 354.864C279.509 355.068 280.133 355.575 280.517 355.429C283.591 354.257 286.628 352.982 289.657 351.694C291.322 350.987 292.967 350.227 294.589 349.425C295.497 348.976 296.531 348.505 295.745 347.115C295.255 346.248 294.091 346.032 293.009 346.624C290.102 348.211 287.189 349.786 284.202 351.442Z" fill="#E7EAEE"/>
    <path fill-rule="evenodd" clip-rule="evenodd" d="M292.747 334.967C292.807 332.833 291.44 331.931 289.664 332.985C286.644 334.776 283.701 336.7 280.751 338.607C279.871 339.176 279.04 339.834 278.257 340.531C277.964 340.792 277.871 341.279 277.686 341.663C278.197 341.653 278.779 341.801 279.208 341.608C281.734 340.467 284.233 339.265 286.724 338.047C288.72 337.072 290.691 336.046 292.747 334.967Z" fill="#E7EAEE"/>
    <path fill-rule="evenodd" clip-rule="evenodd" d="M282.51 320.106C279.915 320.14 278.539 321.866 277.057 323.393C276.632 323.832 276.287 324.38 276.031 324.935C275.778 325.484 275.435 326.235 276.139 326.607C276.456 326.774 277.158 326.443 277.582 326.178C278.798 325.42 279.945 324.553 281.156 323.786C281.591 323.51 282.2 323.485 282.61 323.187C283.208 322.752 283.699 322.175 284.235 321.658C283.708 321.141 283.181 320.623 282.51 320.106Z" fill="#E7EAEE"/>
    <path fill-rule="evenodd" clip-rule="evenodd" d="M274.212 277.959C272.072 282.401 270.356 286.983 269.783 291.924C269.476 294.573 269.125 297.221 268.915 299.878C268.725 302.292 268.578 304.721 268.632 307.138C268.696 310.03 269.008 312.915 269.186 315.805C269.31 317.815 269.33 319.832 269.5 321.838C269.74 324.658 270.123 327.466 270.356 330.287C270.532 332.423 270.649 334.57 270.645 336.712C270.64 339.15 270.464 341.587 270.373 344.024C270.268 346.806 270.503 349.65 269.999 352.356C269.245 356.406 268.211 360.441 266.869 364.335C264.895 370.061 261.481 375.037 257.714 379.722C255.388 382.616 252.703 385.185 248.922 386.183C248.873 386.196 248.83 386.651 248.928 386.736C250.323 387.956 252.058 387.459 253.529 387.263C256.818 386.824 260.071 386.047 263.302 385.257C271.512 383.249 279.71 381.194 287.895 379.086C291.883 378.06 295.827 376.864 299.798 375.772C300.382 375.611 301.136 375.345 301.594 375.57C303.91 376.705 305.698 375.457 307.4 374.304C311.13 371.775 313.246 368.103 314.343 363.789C315.857 357.837 314.64 352.156 312.444 346.651C310.996 343.021 309.268 339.495 307.534 335.988C305.774 332.429 303.564 329.139 300.886 326.198C299.98 325.204 298.88 324.391 297.897 323.465C296.548 322.195 296.478 320.454 296.367 318.795C296.238 316.872 296.529 314.904 296.253 313.012C295.316 306.582 292.479 300.809 289.495 295.156C288.007 292.339 286.118 289.661 284.02 287.262C282.463 285.482 280.416 284.041 278.006 283.358C277.266 283.149 277.057 282.98 277.608 282.058C278.406 280.723 279.529 279.172 278.118 277.386C276.43 275.696 275.211 275.886 274.212 277.959ZM271.969 291.368C272.026 291.425 272.123 291.475 272.136 291.541C272.245 292.106 272.258 292.703 272.451 293.235C273.304 295.587 273.964 298.053 275.144 300.232C277.512 304.604 280.535 308.541 284.105 312.026C287.218 315.065 290.376 318.058 293.463 321.122C295.223 322.869 297.033 324.601 298.549 326.551C300.981 329.679 303.536 332.795 305.397 336.261C307.559 340.287 309.18 344.631 310.745 348.943C311.728 351.651 312.395 354.522 312.807 357.377C313.249 360.445 312.658 363.506 311.27 366.303C310.247 368.364 308.807 370.073 306.447 370.816C303.626 371.705 300.855 372.755 298.04 373.666C291.794 375.687 285.569 377.787 279.267 379.621C274.548 380.994 269.736 382.055 264.942 383.15C262.227 383.77 259.465 384.19 256.718 384.662C256.5 384.699 256.232 384.438 255.988 384.316C256.111 384.142 256.217 383.954 256.359 383.797C257.363 382.684 258.48 381.657 259.361 380.456C261.785 377.149 264.44 373.951 266.401 370.378C269.882 364.038 272.215 357.24 272.738 349.928C272.899 347.677 273.126 345.43 273.322 342.886C273.322 340.063 273.436 337.234 273.288 334.419C273.16 332.006 272.726 329.609 272.439 327.203C272.232 325.465 272.162 323.701 271.821 321.99C271.17 318.72 271.477 317.4 274.258 315.535C275.55 314.668 277.175 313.832 277.238 312.016C277.264 311.248 276.649 310.336 276.068 309.742C275.893 309.562 274.652 310.063 274.248 310.544C273.333 311.636 272.641 312.914 271.84 314.104C271.711 314.296 271.489 314.425 271.31 314.583C271.194 314.385 270.994 314.195 270.975 313.988C270.851 312.604 270.679 311.215 270.688 309.829C270.698 308.049 270.876 306.269 270.958 304.488C271.069 302.101 271.148 299.712 271.26 297.325C271.34 295.626 271.436 293.926 271.568 292.23C271.591 291.934 271.83 291.655 271.969 291.368ZM278.044 285.287C281.207 286.378 283.383 288.701 285.094 291.387C288.51 296.748 291.23 302.481 293.005 308.593C293.833 311.44 294.185 314.433 293.077 317.357C293.012 317.528 292.557 317.743 292.524 317.709C288.289 313.233 284.035 308.774 279.875 304.229C275.629 299.592 274.026 294.059 274.819 287.858C275.179 285.045 275.377 284.973 278.044 285.287ZM50.6405 229.927C49.3102 230.07 47.7898 230.758 46.8413 231.694C44.445 234.059 42.321 236.703 40.0938 239.24C38.7281 240.795 37.3603 242.349 36.0162 243.923C33.1834 247.241 30.3724 250.578 27.5375 253.894C26.6571 254.923 25.7149 255.9 24.8308 256.927C24.5773 257.222 24.4287 257.607 24.2319 257.95C24.5108 257.722 24.812 257.516 25.0654 257.263C31.7636 250.556 38.4355 243.823 45.1632 237.147C47.366 234.96 49.8691 233.11 52.8912 232.248C56.0756 231.34 59.3209 231.032 62.6579 231.579C64.3387 231.854 66.1038 231.569 67.8268 231.638C71.6616 231.792 75.4926 232.044 79.3277 232.185C81.5747 232.268 83.8301 232.137 86.0754 232.241C88.478 232.352 90.8733 232.624 93.2714 232.83C95.4772 233.019 97.684 233.197 99.8872 233.412C101.633 233.583 103.371 233.822 105.116 233.995C107.334 234.214 109.562 234.346 111.774 234.608C113.65 234.831 115.508 235.199 117.377 235.48C119.455 235.791 121.54 236.063 123.618 236.376C126.817 236.859 130.015 237.356 133.208 237.88C133.326 237.899 133.522 238.361 133.455 238.458C132.864 239.311 132.255 240.156 131.588 240.949C128.253 244.908 124.875 248.83 121.559 252.804C117.8 257.311 114.161 261.92 110.338 266.371C107.655 269.494 105.01 272.716 101.223 274.641C101.102 274.703 100.994 274.79 100.88 274.866C101.018 274.889 101.171 274.964 101.292 274.928C103.605 274.25 106.019 273.971 107.708 271.784C110.826 267.745 114.185 263.894 117.392 259.923C121.361 255.011 125.134 249.93 129.85 245.676C130.234 245.33 130.635 244.97 131.09 244.743C132.101 244.239 133.029 244.07 133.817 245.265C135.385 247.643 137.096 249.927 138.662 252.306C139.707 253.894 139.368 254.672 137.479 255.957C132.503 259.342 127.099 261.752 121.317 263.394C118.909 264.078 116.522 264.946 114.811 266.972C114.69 267.116 114.56 267.252 114.434 267.392C114.637 267.373 114.855 267.393 115.042 267.327C122.828 264.574 130.624 261.846 138.384 259.019C139.659 258.555 140.833 257.733 141.946 256.927C142.657 256.413 142.624 255.642 142.159 254.816C140.565 251.975 139.04 249.095 137.503 246.222C137.399 246.027 137.353 245.577 137.39 245.565C137.781 245.43 138.213 245.235 138.599 245.294C140.21 245.539 141.833 245.77 143.407 246.181C146.958 247.109 150.485 248.133 154.015 249.146C154.221 249.205 154.356 249.514 154.524 249.707C153.631 250.404 152.739 251.101 151.772 251.872C148.032 255.127 144.363 258.304 140.702 261.489C138.741 263.195 136.792 264.916 134.837 266.63C134.757 266.7 134.674 266.767 134.592 266.835C134.777 266.866 134.977 266.959 135.143 266.917C137.518 266.317 139.844 265.713 141.787 264.001C146.426 259.912 151.178 255.952 155.858 251.91C156.82 251.079 157.755 250.185 158.546 249.195C159.54 247.952 159.314 247.095 157.745 246.49C156.507 246.012 155.154 245.793 153.832 245.582C149.892 244.952 145.945 244.364 141.996 243.797C140.26 243.549 138.51 243.403 136.77 243.187C136.459 243.148 136.162 242.993 135.859 242.891C136.01 242.647 136.125 242.369 136.316 242.162C137.84 240.516 139.379 238.884 140.914 237.248C141.049 237.104 141.192 236.968 141.331 236.828C141.113 236.775 140.898 236.705 140.676 236.672C136.632 236.075 132.589 235.475 128.543 234.893C125.886 234.511 123.23 234.115 120.565 233.802C117.838 233.481 115.102 233.221 112.365 232.995C109.917 232.793 107.46 232.708 105.012 232.504C103.445 232.373 101.891 232.064 100.323 231.938C98.3629 231.779 96.3921 231.754 94.4294 231.62C91.9775 231.452 89.5309 231.205 87.0788 231.041C85.0176 230.904 82.9496 230.866 80.8885 230.727C79.2258 230.615 77.5717 230.37 75.9086 230.269C74.2837 230.171 72.6523 230.182 71.0238 230.143C66.8074 230.045 62.5913 229.924 58.3744 229.855C55.7943 229.812 53.1919 229.652 50.6405 229.927ZM295.9 219.974C294.775 220.091 293.625 219.939 292.492 220.006C289.729 220.169 286.971 220.423 284.208 220.578C281.637 220.722 279.053 220.693 276.488 220.91C273.863 221.133 272.29 222.23 272.458 225.376C272.61 228.215 272.662 231.058 272.763 233.899C272.857 236.543 272.96 239.187 273.052 241.83C273.065 242.221 273.051 242.615 273.026 243.005C273.004 243.344 272.948 243.68 272.908 244.018C273.005 244.018 273.176 244.047 273.188 244.014C273.327 243.649 273.507 243.282 273.551 242.901C273.705 241.567 273.805 240.227 273.933 238.89C274.124 236.896 274.318 234.901 274.519 232.908C274.62 231.899 274.736 230.893 274.855 229.886C274.928 229.261 275 228.634 275.111 228.015C275.158 227.751 275.303 227.505 275.404 227.251C275.611 227.368 275.859 227.445 276.018 227.61C277.956 229.624 279.281 231.972 279.789 234.768C279.845 235.074 280.03 235.356 280.155 235.649C280.258 235.39 280.343 235.121 280.467 234.873C282.731 230.342 286.298 227.332 291.168 226.303C293.394 225.833 295.796 226.233 298.119 226.219C299.288 226.212 299.481 226.883 299.38 227.882C299.158 230.054 298.992 232.232 298.784 234.405C298.502 237.363 298.198 240.319 297.911 243.276C297.709 245.352 297.545 247.431 297.308 249.503C297.242 250.085 296.977 250.644 296.811 251.215C296.733 251.483 296.673 251.756 296.606 252.026C296.903 251.82 297.386 251.669 297.465 251.398C297.866 250.026 298.16 248.623 298.495 247.232C298.883 245.617 299.274 244.002 299.664 242.239C300.054 239.488 300.59 236.897 300.798 234.28C301.092 230.58 301.658 226.84 300.834 223.156C300.368 221.071 297.988 219.757 295.9 219.974ZM303.83 227.243C303.221 227.457 302.762 228.106 302.238 228.566C302.6 228.986 302.901 229.492 303.336 229.809C304.288 230.505 305.424 230.977 306.279 231.769C308.309 233.65 307.349 237.388 305.241 238.375C304.269 238.831 303.298 239.294 302.359 239.815C302.019 240.003 301.775 240.367 301.487 240.651C301.837 240.661 302.188 240.67 302.538 240.679C304.788 240.738 306.475 239.698 307.736 237.889C309.635 235.163 308.627 232.498 306.391 230.366C306.18 230.165 305.989 229.942 305.774 229.747C305.496 229.495 305.203 229.261 304.917 229.019C305.474 228.948 306.087 228.688 306.576 228.84C308.402 229.406 309.438 230.932 309.992 232.601C311.896 238.332 307.396 242.974 302.291 242.377C301.752 242.314 301.17 242.63 300.608 242.771C300.743 242.856 300.868 242.973 301.015 243.021C305.289 244.415 308.93 242.835 310.995 238.706C311.137 238.421 311.332 238.163 311.503 237.746C312.49 232.683 310.381 228.907 305.752 227.398C305.145 227.2 304.389 227.045 303.83 227.243ZM298.625 221.496C299.531 221.704 299.85 222.683 299.37 223.552C298.714 224.741 297.702 224.785 296.482 224.664C294.557 224.474 292.596 224.325 290.678 224.489C288.246 224.697 285.852 225.361 283.42 225.591C281.395 225.782 279.338 225.63 277.148 225.482C276.293 225.432 275.438 225.368 274.582 225.337C273.553 225.3 272.965 224.475 273.519 223.594C273.86 223.053 274.561 222.49 275.158 222.416C277.658 222.103 280.178 221.92 282.695 221.792C284.475 221.701 286.267 221.846 288.047 221.758C290.742 221.624 293.43 221.342 296.125 221.203C296.953 221.16 297.81 221.309 298.625 221.496ZM165.239 210.791C162.262 210.85 159.293 211.332 156.321 211.64C156.1 211.663 155.86 211.733 155.676 211.853C155.288 212.106 154.931 212.408 154.561 212.69C155.033 212.737 155.504 212.795 155.977 212.828C158.941 213.031 161.904 213.247 164.87 213.41C165.363 213.437 165.874 213.12 166.367 213.147C169.431 213.311 172.49 213.553 175.555 213.707C176.244 213.742 176.952 213.412 177.641 213.448C180.607 213.6 183.569 213.847 186.535 214.007C187.077 214.037 187.637 213.716 188.179 213.745C191.243 213.907 194.303 214.149 197.367 214.306C198.007 214.338 198.666 214.012 199.306 214.045C202.272 214.201 205.234 214.447 208.2 214.605C208.791 214.636 209.4 214.313 209.991 214.344C213.055 214.503 216.115 214.743 219.179 214.905C219.721 214.933 220.281 214.613 220.824 214.642C223.888 214.804 226.948 215.04 230.012 215.204C230.505 215.231 231.016 214.914 231.509 214.941C234.573 215.105 237.632 215.347 240.697 215.501C241.386 215.536 242.094 215.206 242.783 215.242C245.749 215.395 248.711 215.641 251.677 215.802C252.219 215.831 252.779 215.511 253.321 215.539C256.385 215.701 259.445 215.941 262.509 216.1C263.1 216.131 263.709 215.808 264.301 215.839C267.316 215.997 270.326 216.241 273.341 216.399C273.933 216.43 274.542 216.107 275.133 216.138C278.197 216.297 281.257 216.539 284.321 216.698C284.913 216.729 285.522 216.405 286.113 216.437C289.079 216.595 292.04 216.837 295.006 216.998C295.548 217.027 296.108 216.707 296.651 216.735C299.715 216.897 302.775 217.131 305.839 217.298C306.283 217.322 306.745 217.007 307.188 217.034C309.715 217.189 312.237 217.426 314.764 217.583C316.484 217.691 318.215 217.644 319.93 217.793C322.381 218.006 324.837 218.24 327.263 218.643C329.16 218.957 330.999 219.642 332.897 219.942C333.432 220.027 334.22 219.447 334.622 218.948C334.792 218.737 334.409 217.767 334.028 217.454C332.466 216.169 330.587 215.95 328.494 216.119C327.192 216.019 326.036 215.926 324.882 215.819C322.785 215.624 320.692 215.36 318.591 215.237C315.819 215.076 313.04 214.93 310.265 214.944C305.605 214.967 300.947 215.188 296.287 215.2C292.824 215.21 289.36 215.029 285.897 214.921C282.974 214.83 280.051 214.722 277.128 214.624C274.057 214.522 270.987 214.426 267.916 214.324C264.993 214.227 262.068 214.157 259.147 214.018C255.674 213.853 252.204 213.603 248.73 213.447C247.991 213.414 247.237 213.736 246.496 213.709C242.09 213.546 237.685 213.323 233.28 213.134C232.479 213.099 231.672 213.174 230.873 213.12C228.251 212.943 225.633 212.704 223.011 212.55C222.421 212.516 221.81 212.844 221.22 212.81C218.548 212.656 215.881 212.411 213.21 212.25C212.718 212.221 212.205 212.542 211.713 212.512C209.091 212.352 206.474 212.106 203.851 211.952C203.261 211.918 202.65 212.246 202.06 212.212C199.388 212.058 196.722 211.808 194.05 211.653C193.46 211.619 192.849 211.948 192.259 211.913C189.685 211.76 187.117 211.505 184.544 211.355C183.904 211.318 183.244 211.65 182.605 211.613C180.031 211.463 177.463 211.216 174.89 211.054C174.447 211.026 173.984 211.343 173.541 211.317C170.771 211.153 168.001 210.736 165.239 210.791ZM165.289 64.2445C158.799 64.8448 152.685 66.9243 147.056 70.1371C143.748 72.0252 140.672 74.3603 137.66 76.7077C132.987 80.349 129.316 84.9114 126.146 89.8862C123.782 93.5964 121.716 97.4712 120.489 101.69C119.373 105.526 118.375 109.425 117.752 113.363C117.302 116.207 117.568 119.162 117.484 122.066C117.399 125.035 117.71 127.962 118.026 130.915C118.798 138.123 120.15 145.184 122.176 152.149C123.054 155.172 122.42 158.299 121.844 161.359C121.339 164.04 120.409 166.545 118.982 168.874C118.81 169.155 118.824 169.549 118.752 169.89C119.117 169.866 119.502 169.909 119.845 169.808C122.32 169.085 123.122 167.068 123.713 164.858C124.136 163.273 124.519 161.654 125.165 160.156C125.905 158.442 126.192 158.605 127.814 159.413C131.155 161.076 134.551 162.655 138.019 164.035C142.716 165.903 147.655 166.871 152.652 167.654C155.365 168.079 158.104 168.906 160.146 170.886C161.096 171.806 161.832 173.113 162.236 174.38C162.743 175.966 162.859 177.638 161.916 179.281C161.357 180.254 160.769 180.419 159.839 180.163C155.326 178.922 150.844 177.544 146.288 176.485C142.788 175.672 139.181 175.332 135.646 174.653C131.978 173.95 128.284 173.777 124.568 173.794C124.289 173.795 124.01 173.869 123.73 173.908C123.983 173.967 124.235 174.031 124.49 174.083C127.944 174.789 131.4 175.483 134.851 176.203C137.979 176.856 141.098 177.55 144.225 178.205C147.72 178.938 151.227 179.613 154.714 180.381C156.416 180.756 158.118 181.188 159.758 181.767C162.047 182.574 162.766 183.994 162.892 186.589C163.034 189.51 162.529 192.245 161.826 194.956C160.565 199.823 158.402 204.26 154.905 208.014C151.966 211.168 148.653 213.723 144.439 214.811C142.167 215.398 139.792 215.768 137.448 215.857C134.527 215.968 131.686 215.421 128.915 214.256C125.444 212.797 122.761 210.503 120.772 207.434C118.586 204.063 117.147 200.334 116.629 196.341C116.199 193.026 115.75 189.678 115.776 186.349C115.813 181.547 116.808 176.862 118.665 172.392C118.78 172.114 119.231 171.722 118.346 171.697C116.004 171.629 113.679 173.763 113.649 176.197C113.621 178.423 113.546 180.655 113.664 182.875C113.877 186.898 109.58 192.157 106.038 193.065C105.264 193.263 105.194 192.989 105.383 192.589C107.542 188.021 106.217 183.555 104.935 179.141C102.459 170.62 99.0641 162.431 95.6652 154.242C92.3414 146.234 89.1502 138.171 85.923 130.124C83.1856 123.298 80.4921 116.454 77.7567 109.627C75.1228 103.054 72.4607 96.4914 69.8076 89.9254C69.7226 89.7152 69.5832 89.5266 69.5001 89.3158C69.3425 88.9162 69.2074 88.5078 69.0629 88.103C69.4753 88.3818 69.9856 88.5818 70.2852 88.9513C73.8302 93.3234 77.1302 97.9144 80.9235 102.059C84.9774 106.488 89.3793 110.622 93.8376 114.657C97.0225 117.539 100.549 120.048 103.93 122.714C104.246 122.964 104.612 123.151 104.955 123.368C104.922 122.969 104.849 122.569 104.863 122.172C104.966 119.124 102.136 118.85 100.433 117.519C97.8701 115.515 95.2055 113.632 92.7278 111.529C88.111 107.612 84.4363 102.83 80.6928 98.12C79.6807 96.8466 78.597 95.6297 77.4722 94.3132C74.1903 90.7505 71.1021 87.1417 67.7384 83.8085C64.7887 80.8856 61.5107 78.3301 57.3693 77.1274C55.5225 76.591 52.1663 77.8219 50.9244 79.7683C49.6285 81.7993 49.1125 84.0265 49.1189 86.4478C49.1325 91.4742 50.1563 96.3438 51.2187 101.212C52.378 106.523 53.5022 111.844 54.7935 117.124C55.551 120.221 56.4418 123.307 57.5573 126.292C60.211 133.394 62.9048 140.486 65.8387 147.476C67.5081 151.453 69.5724 155.281 71.6718 159.059C72.8357 161.153 74.5551 162.75 77.3214 162.624C78.4544 162.572 79.1828 163.89 79.339 165.5C79.5661 167.839 79.7587 170.2 80.2414 172.494C81.219 177.139 83.3023 181.362 85.7999 185.364C87.6869 188.387 89.7846 191.279 91.7323 194.266C93.0813 196.335 94.8678 198.004 97.3149 198.133C98.8482 198.214 100.443 197.243 101.998 196.71C102.251 196.623 102.474 196.388 102.659 196.176C103.422 195.303 104.008 194.015 104.959 193.645C105.848 193.3 107.142 194.17 108.213 194.063C110.043 193.878 111.574 192.93 112.693 191.401C112.911 191.103 113.159 190.41 113.396 191.55C114.041 194.642 114.858 197.705 115.729 200.744C117.316 206.283 120.255 211.046 124.746 214.672C127.529 216.92 130.737 218.408 134.495 218.614C138.306 218.824 141.723 217.791 145.133 216.276C149.959 214.131 154.201 211.208 158.164 207.738C163.849 202.762 168.159 196.8 171.118 189.957C172.773 186.129 173.744 181.994 174.865 177.954C175.994 173.883 177.415 169.979 179.751 166.409C181.868 163.174 183.412 159.637 183.997 155.808C184.192 154.531 183.758 153.111 183.41 151.81C182.717 149.221 182.335 146.608 182.92 143.987C183.212 142.681 184.011 141.496 184.474 140.217C186.331 135.09 188.285 129.99 189.931 124.795C191.066 121.212 191.851 117.509 192.606 113.821C193.09 111.46 193.24 109.031 193.527 106.631C193.736 104.88 193.991 103.131 194.104 101.373C194.267 98.8476 194.232 96.3081 194.438 93.7872C194.703 90.5356 194.221 87.3154 193.42 84.2593C192.637 81.2703 191.109 78.4365 189.645 75.673C187.948 72.4712 185.624 69.7224 182.48 67.7761C179.673 66.0379 176.677 64.7465 173.346 64.5022C170.666 64.3055 167.945 63.9988 165.289 64.2445ZM186.652 142.706C186.838 143.014 186.951 143.456 187.223 143.607C188.819 144.489 190.416 145.385 192.081 146.121C194.905 147.371 197.781 148.505 200.783 149.688C205.475 151.777 210.112 153.687 214.537 156.005C218.944 158.315 223.041 161.149 226.866 164.392C232.466 169.139 236.984 174.709 239.902 181.434C241.095 184.182 241.912 187.193 242.31 190.164C242.837 194.093 242.773 198.102 242.986 202.075C243.164 205.41 243.362 208.744 243.579 212.076C243.661 213.333 244.639 212.401 245.152 212.629C245.193 212.647 245.619 212.141 245.593 211.909C245.347 209.692 244.902 207.489 244.787 205.268C244.642 202.468 244.775 199.655 244.748 196.847C244.696 191.468 243.67 186.303 241.432 181.379C239.348 176.795 236.537 172.734 233.201 168.976C228.165 163.304 222.136 158.963 215.564 155.306C209.347 151.847 202.902 148.893 196.231 146.417C193.337 145.343 190.519 144.064 187.658 142.896C187.349 142.77 186.989 142.767 186.652 142.706ZM107.727 207.815C105.172 208.174 102.627 208.621 100.074 209.003C98.5169 209.237 96.9567 209.529 95.3897 209.598C93.0932 209.699 90.7887 209.585 88.4891 209.637C86.8038 209.674 85.1203 209.818 83.4373 209.935C82.2449 210.018 81.0558 210.206 79.8634 210.225C77.1045 210.269 74.3441 210.269 71.5849 210.233C65.1207 210.149 58.6568 209.968 52.193 209.977C50.541 209.98 48.89 210.548 47.2379 210.852C47.1423 210.87 47.0024 210.81 46.9488 210.861C46.571 211.221 46.2104 211.601 45.8443 211.974C46.3223 212.011 46.8002 212.079 47.2783 212.08C50.5476 212.089 53.8173 212.113 57.0861 212.071C58.3768 212.054 59.6642 211.822 60.9556 211.787C65.6941 211.659 70.4336 211.563 75.173 211.475C76.8649 211.443 78.5578 211.47 80.3981 211.47C82.517 211.47 84.489 211.507 86.4591 211.461C89.4743 211.391 92.4877 211.215 95.5029 211.174C99.3135 211.123 103.127 211.235 106.936 211.13C108.719 211.081 110.501 210.735 112.27 210.437C113.258 210.27 113.489 209.354 113.161 208.609C112.935 208.095 112.177 207.555 111.633 207.527C110.338 207.461 109.021 207.632 107.727 207.815ZM183.377 146.098C183.482 146.156 183.619 146.189 183.687 146.276C185.839 148.995 188.233 151.563 190.07 154.48C192.539 158.4 194.577 162.597 195.797 167.109C196.456 169.548 196.932 172.037 197.505 174.5C197.881 176.115 198.733 177.449 200.129 178.344C201.982 179.532 203.946 180.554 205.772 181.78C210.319 184.835 213.199 189.159 214.878 194.289C215.817 197.159 216.409 200.097 215.866 203.171C215.535 205.04 215.398 206.943 215.191 208.832C215.159 209.133 215.221 209.444 215.239 209.75C215.638 209.714 216.228 209.829 216.399 209.613C216.868 209.021 217.375 208.322 217.482 207.608C217.801 205.478 217.927 203.319 218.149 201.173C218.195 200.725 218.33 200.287 218.423 199.844C218.821 200.286 219.276 200.689 219.607 201.176C221.814 204.429 223.988 207.704 226.2 210.954C226.362 211.191 226.741 211.282 227.019 211.441C227.09 210.944 227.383 210.332 227.194 209.971C226.494 208.631 225.728 207.304 224.818 206.1C222.687 203.282 220.271 200.66 218.335 197.72C217.059 195.781 216.367 193.446 215.502 191.254C214.616 189.011 213.217 187.175 211.408 185.612C209.126 183.642 206.855 181.659 204.505 179.608C202.909 177.916 201.2 176.431 199.908 174.645C198.204 172.291 197.598 169.421 196.909 166.627C195.45 160.716 192.853 155.358 189.019 150.612C188.064 149.43 187.158 148.188 186.069 147.141C185.478 146.572 184.551 146.346 183.765 145.989C183.671 145.947 183.508 146.058 183.377 146.098ZM396.858 93.6979C395.208 94.125 394.969 95.5598 396.232 96.6555C399.098 99.1435 400.462 102.32 400.673 106.008C400.789 108.046 400.598 110.101 400.711 112.138C401.084 118.856 399.122 125.04 396.217 130.938C393.44 136.577 389.396 141.222 383.593 143.935C380.263 145.492 376.703 146.584 373.196 147.736C370.151 148.736 367.03 149.508 363.952 150.413C360.932 151.301 357.957 152.106 354.758 151.04C353.116 150.492 351.885 151.96 352.513 153.551C354.89 159.567 356.916 165.81 361.091 170.883C363.595 173.925 366.493 176.741 369.593 179.184C374.143 182.771 379.376 185.328 384.602 187.846C389.7 190.303 394.683 192.998 399.804 195.405C405.572 198.117 411.418 200.67 417.267 203.207C421.986 205.254 426.75 207.2 431.519 209.13C432.659 209.592 433.881 209.915 435.096 210.117C436.314 210.318 438.989 208.409 439.467 207.147C440.68 203.945 441.504 200.651 441.844 197.238C442.052 195.161 442.33 193.091 442.651 191.018C442.725 190.871 442.725 190.723 442.651 190.503C442.528 187.662 442.476 184.895 442.442 182.127C442.441 182.051 442.626 181.973 442.725 181.895L442.725 180.792C442.676 180.718 442.583 180.718 442.583 180.718C442.49 178.156 442.411 175.594 442.311 173.033C442.279 172.205 442.186 171.38 442.134 170.553C441.71 163.686 440.894 156.862 439.137 150.204C437.734 144.891 435.882 139.723 433.632 134.676C431.064 128.918 427.943 123.503 424.346 118.355C422.514 115.732 420.512 113.205 418.383 110.814C415.821 107.938 413.188 105.09 410.317 102.528C407.039 99.6029 403.516 96.9374 399.978 94.3212C399.191 93.7387 397.798 93.4547 396.858 93.6979ZM401.16 97.7343C401.326 97.809 401.514 97.8552 401.655 97.9623C406.103 101.334 410.524 104.739 414.208 108.97C416.496 111.598 418.834 114.189 420.995 116.919C426.245 123.553 430.308 130.864 433.401 138.932C433.506 139.233 433.628 139.529 433.714 139.834C435.043 144.583 436.449 149.313 437.656 154.093C438.191 156.214 438.344 158.432 438.625 160.612C438.934 163.011 439.278 165.411 439.442 167.821C439.576 169.807 439.395 171.813 439.489 173.803C439.607 176.276 439.949 178.739 440.032 181.212C440.088 182.882 439.818 184.561 439.777 186.238C439.727 188.264 439.803 190.293 439.753 192.319C439.713 193.981 439.673 195.654 439.442 197.296C439.16 199.307 438.657 201.286 438.29 203.286C437.76 206.174 436.574 207.292 433.746 207.497C431.764 207.64 430.258 206.469 429.981 204.612C429.947 204.387 429.592 203.994 429.545 204.016C427.047 205.188 424.878 204.007 422.689 203.078C418.036 201.104 413.362 199.174 408.756 197.097C401.903 194.006 395.078 190.851 388.287 187.628C385.109 186.12 381.989 184.476 378.93 182.742C372.961 179.357 367.504 175.342 363.085 170.003C359.659 165.865 357.542 161.162 356.315 156.015C356.082 155.037 356.425 154.188 357.594 153.938C360.762 153.257 363.923 152.542 367.095 151.885C373.544 150.55 379.778 148.69 385.573 145.435C393.015 141.255 397.782 134.942 400.645 127.143C402.003 123.444 403.094 119.61 403.066 115.581C403.044 112.557 403.311 109.505 402.988 106.515C402.69 103.751 401.777 101.053 401.146 98.3233C401.103 98.1378 401.153 97.9311 401.16 97.7343ZM277.074 141.449C275.31 142.66 273.566 143.902 271.857 145.19C271.393 145.539 271.357 145.886 271.147 144.973C270.818 143.545 268.788 143.147 267.572 144.161C264.783 146.487 263.376 149.614 262.355 153.015C261.47 155.965 261.821 158.963 261.735 161.943C261.679 163.856 259.888 165.298 258.008 165.375C256.617 165.432 255.155 166.042 253.904 166.732C250.878 168.402 248.932 171.035 247.976 174.353C246.946 177.925 247.904 181.106 249.975 184.075C251.859 186.774 253.574 189.602 256.307 191.582C257.819 192.677 259.561 193.586 260.745 194.969C262.016 196.454 263.475 197.423 265.206 198.091C269.47 199.736 274.129 197.602 276.217 194.047C278.098 190.843 282.628 191.547 284.383 194.144C285.149 195.276 285.359 196.772 285.931 198.053C286.282 198.839 285.942 198.72 285.416 198.642C282.81 198.254 280.201 197.884 277.593 197.515C277.459 197.497 277.315 197.549 277.176 197.568C277.279 197.647 277.375 197.74 277.487 197.803C280.074 199.265 282.874 200.09 285.802 200.44C288.02 200.704 290.288 201.128 292.475 200.904C294.198 200.727 295.952 199.871 297.474 198.955C299.269 197.874 299.808 196.039 299.773 193.894C299.706 189.729 298.108 186.215 295.471 183.169C294.711 182.292 293.37 181.922 292.302 181.307C291.897 181.074 291.306 181.044 292.023 180.291C295.155 177.001 297.938 173.437 299.841 169.265C300.142 168.607 300.452 167.927 300.583 167.225C300.664 166.794 300.543 166.178 300.264 165.88C300.088 165.693 299.388 165.827 299.033 166.021C298.503 166.311 298.082 166.796 297.592 167.168C296.756 167.803 296.293 167.533 296.519 166.543C297.162 163.728 296.571 161.057 295.581 158.475C295.047 157.082 294.179 155.812 293.373 154.543C293.296 154.422 292.52 154.605 292.183 154.823C291.557 155.228 291.015 155.762 290.438 156.243C290.4 155.474 290.387 154.702 290.312 153.936C290.267 153.482 290.155 153.026 290.017 152.589C289.326 150.397 288.956 150.286 287.126 151.66C286.881 151.845 286.587 151.965 286.316 152.115L286.237 151.557C286.224 151.464 286.214 151.371 286.206 151.277C286.004 148.869 286.486 146.683 288.247 144.894C288.268 144.873 287.886 144.244 287.666 144.227C285.13 144.028 282.593 143.923 280.272 145.278C279.798 145.555 279.324 145.834 278.777 146.186C278.557 145.985 278.31 145.722 278.28 145.435C278.142 144.138 278.08 142.833 277.93 141.537C277.922 141.468 277.264 141.319 277.074 141.449ZM293.974 183.397C294.032 183.504 294.068 183.631 294.149 183.716C297.035 186.762 298.381 190.382 298.274 194.579C298.216 196.858 297.001 198.537 294.722 198.952C293.273 199.216 291.77 199.205 290.289 199.245C290.11 199.25 289.819 198.832 289.75 198.566C289.314 196.871 289.345 194.981 287.528 193.681C287.021 193.485 286.513 193.29 286.007 193.092C285.777 193.001 285.369 192.919 285.359 192.805C285.338 192.564 285.454 192.189 285.64 192.073C286.137 191.766 286.681 191.427 287.241 191.349C289.823 190.99 291.654 189.63 292.705 187.287C293.205 186.174 293.477 184.957 293.852 183.787C293.893 183.657 293.934 183.527 293.974 183.397ZM287.087 194.712C287.283 195.455 287.507 196.192 287.647 196.944C287.67 197.07 287.274 197.433 287.159 197.398C286.69 197.255 286.54 195.003 287.087 194.712ZM276.383 143.052C276.225 143.593 276.002 144.124 275.923 144.676C275.742 145.929 275.85 147.127 277.081 147.865C278.065 148.454 278.801 147.746 279.47 147.228C280.989 146.053 282.783 145.9 284.567 145.676C285.54 145.554 285.585 145.955 285.267 146.793C284.799 148.026 284.216 149.335 284.252 150.595C284.275 151.386 285.286 152.201 285.96 152.903C286.588 153.558 287.19 153.248 287.687 152.602C287.764 152.503 288.009 152.534 288.177 152.505C288.165 152.771 288.2 153.049 288.134 153.301C287.744 154.798 288.303 156.245 289.873 157.106C290.96 157.701 291.725 156.793 292.386 156.089C292.883 155.559 292.928 155.881 293.139 156.284C294.973 159.794 295.184 163.465 294.21 167.237C293.968 168.175 294.399 168.642 295.173 168.606C296.075 168.564 296.96 168.21 297.859 168.029C298.276 167.946 298.71 167.952 299.137 167.918C299.021 168.328 298.968 168.77 298.78 169.144C297.223 172.241 295.222 175.042 292.625 177.318C291.093 178.661 290.153 179.838 290.199 182.155C290.258 185.181 288.648 187.655 285.856 189.3C283.631 190.61 281.266 190.337 278.919 190.418C277.718 190.459 276.844 190.874 276.13 191.826L275.846 192.206C274.381 194.172 272.931 196.13 270.308 196.817C267.35 197.592 264.646 197.282 262.366 195.198C261.891 194.764 261.886 193.726 261.866 192.961C261.862 192.822 262.824 192.577 263.356 192.517C265.48 192.28 267.615 192.819 269.76 192.238C272.79 191.419 275.574 190.211 277.87 188.025C278.303 187.613 278.667 187.129 279.063 186.678C278.365 186.842 277.665 187.001 276.97 187.175C276.796 187.219 276.597 187.27 276.472 187.385C273.226 190.377 269.416 191.68 265.013 191.333C260.544 190.98 258.243 188.634 258.012 184.712C257.774 180.662 258.556 176.739 260.42 173.068C260.689 172.536 260.687 171.799 260.622 171.177C260.369 168.762 259.762 166.324 262.355 164.606C262.791 164.317 262.912 163.352 262.942 162.688C263.03 160.72 263.65 159.985 265.571 159.807C266.743 159.698 267.399 158.997 267.667 157.897C267.744 157.578 267.741 157.239 267.774 156.909C268.086 157.191 268.482 157.42 268.696 157.762C269.783 159.502 271.404 160.578 273.108 161.618C273.971 162.146 274.25 162.085 274.464 161.109C274.565 160.649 274.938 160.249 275.188 159.823C275.428 160.165 275.678 160.501 275.907 160.85C276.21 161.311 276.424 161.857 276.805 162.236C278.165 163.589 279.54 164.935 281.006 166.168C281.325 166.436 282.283 166.441 282.526 166.178C282.846 165.831 282.803 165.101 282.818 164.533C282.834 163.968 282.694 163.399 282.691 162.832C282.69 162.61 282.865 162.208 282.979 162.202C283.222 162.187 283.597 162.306 283.708 162.494L284.284 163.466C284.861 164.439 285.427 165.419 285.891 166.444C287.134 169.192 287.643 172.111 287.711 175.126C287.721 175.551 288.174 176.007 288.514 176.359C288.631 176.479 289.233 176.389 289.269 176.28C289.428 175.805 289.553 175.28 289.519 174.785C289.466 174 289.263 173.226 289.148 172.444C288.451 167.722 286.406 163.706 282.878 160.475C282.749 160.356 282.297 160.348 282.289 160.374C281.969 161.469 281.67 162.571 281.4 163.68C281.339 163.93 281.395 164.209 281.397 164.475C281.161 164.367 280.896 164.297 280.692 164.146C278.46 162.494 276.674 160.46 275.393 157.981C275.085 157.384 274.653 156.851 274.278 156.288L273.619 157.487C273.401 157.887 273.185 158.289 272.979 158.695C272.9 158.851 273.025 159.109 272.949 159.269C272.893 159.388 272.563 159.522 272.525 159.484C271.385 158.306 270.29 157.085 269.132 155.926C268.689 155.481 267.853 154.749 267.641 154.879C266.953 155.3 266.447 156.04 265.926 156.702C265.807 156.853 265.999 157.235 265.889 157.412C265.688 157.733 265.257 158.266 265.115 158.211C264.4 157.934 263.681 157.572 263.103 157.076C262.873 156.878 263.002 156.259 263.114 155.685C263.708 151.93 265.191 148.609 267.897 145.889C268.068 145.717 268.243 145.552 268.417 145.383C268.463 145.61 268.509 145.836 268.556 146.062C268.814 147.308 270.156 148.059 271.124 147.304C272.345 146.352 273.314 145.082 274.481 144.05C275.003 143.59 275.742 143.377 276.383 143.052ZM172.989 173.812C173.094 173.916 173.271 174.009 173.29 174.127C173.359 174.549 173.461 174.993 173.395 175.404C173.031 177.652 172.573 179.886 172.236 182.138C171.648 186.066 170.665 189.879 168.636 193.317C167.917 194.536 166.748 195.494 165.768 196.556C165.657 196.677 165.439 196.7 165.271 196.768C165.278 196.664 165.275 196.557 165.294 196.456C165.532 195.228 165.625 193.95 166.042 192.785C167.036 190.009 168.182 187.287 169.415 184.395C170.155 182.393 170.937 180.404 171.62 178.382C172.09 176.991 172.421 175.553 172.821 174.137C172.853 174.022 172.932 173.92 172.989 173.812ZM93.8385 167.215C93.844 167.35 94.1246 167.461 94.2549 167.604C94.6094 167.993 95.023 168.35 95.2876 168.794C98.2009 173.683 99.7323 179.067 100.917 184.57C101.232 186.03 101.512 187.498 101.808 189.257C101.906 190.099 102.105 190.944 102.078 191.783C102.046 192.757 102.055 193.849 101.626 194.672C100.423 196.98 97.198 196.914 95.2188 195.699C93.3875 194.574 92.5073 192.761 91.5155 191.049C89.8248 188.131 88.4133 185.049 86.6568 182.173C84.2678 178.263 81.9118 174.368 80.8349 169.852C80.5109 168.494 81.203 167.567 82.653 167.609C86.0654 167.708 89.3821 167.035 92.7035 166.412C93.8202 166.203 93.7939 166.145 93.8385 167.215ZM258.89 166.603C259.48 169.143 259.102 171.568 258.371 173.964C257.306 177.456 256.145 180.921 256.501 184.652C256.751 187.263 257.923 189.325 260.166 190.766C260.511 190.987 260.666 191.505 260.908 191.886C260.454 191.981 259.997 192.157 259.547 192.139C259.269 192.129 258.97 191.86 258.738 191.644C257.079 190.102 255.219 188.711 253.846 186.943C252.465 185.166 251.573 183.007 250.319 180.869C250.032 179.501 249.693 178.142 249.468 176.764C248.964 173.672 250.512 170.697 253.333 169.647C255.18 168.959 257.202 168.703 257.987 166.46C258.115 166.094 258.593 165.324 258.89 166.603ZM348.234 99.5424C344.629 99.9705 340.999 100.639 337.54 101.722C333.833 102.882 330.585 105.091 327.956 108.001C324.373 111.968 322.035 116.578 320.996 121.872C320.556 124.114 320.418 126.34 320.46 128.594C320.487 130.024 320.635 131.452 320.743 132.881C320.974 135.935 320.207 138.841 319.45 141.751C318.673 144.732 318.956 147.72 319.229 150.747C319.633 155.22 321.316 159.266 323.141 163.246C324.317 165.807 325.908 168.185 327.391 170.597C328.645 172.638 330.012 174.61 331.403 176.685C333.278 179.638 335.109 182.499 336.869 185.403C337.645 186.684 338.277 188.051 338.978 189.377C339.063 189.539 339.149 189.712 339.274 189.84C339.709 190.285 340.162 190.713 340.608 191.148C340.65 190.513 340.9 189.803 340.701 189.257C339.106 184.885 336.647 180.983 333.981 177.196C330.753 172.61 327.324 168.148 325.035 162.972C323.531 159.571 322.345 156.073 321.926 152.358C321.683 150.207 321.411 148.049 321.362 145.888C321.312 143.743 321.522 141.592 321.632 139.444C321.637 139.338 321.823 139.143 321.833 139.149C322.073 139.286 322.349 139.404 322.522 139.607C323.441 140.689 324.317 141.806 325.237 142.887C327.573 145.634 330.418 147.482 334.009 148.281C337.555 149.071 340.537 148.039 343.057 145.727C346.25 142.798 346.202 139.216 344.005 135.825C341.995 132.722 339.083 131.077 335.337 130.55C331.674 130.035 328.35 131.053 325.025 132.138C323.796 132.539 323.04 132.969 322.981 131.231C322.915 129.263 323.037 127.269 322.756 125.333C322.394 122.844 323.262 120.671 323.963 118.412C325.352 113.94 328.035 110.441 331.625 107.48C334.379 105.209 337.469 103.648 340.838 102.732C344.316 101.788 347.846 101.355 351.546 101.73C357.541 102.338 362.75 104.633 367.482 108.142C370.835 110.628 373.444 113.846 375.756 117.31C376.101 117.826 376.67 118.192 377.133 118.629C377.712 119.176 378.484 119.334 378.897 118.694C379.21 118.209 379.324 117.174 379.017 116.779L378.304 115.859C376.875 114.017 375.417 112.176 373.718 110.609C371.638 108.689 369.253 107.072 366.891 105.488C362.943 102.84 358.616 101.058 353.887 100.334C351.998 100.045 350.061 99.3254 348.234 99.5424ZM291.43 185.513C291.453 185.7 291.514 185.891 291.493 186.072C291.293 187.761 290.186 188.88 288.934 189.816C288.515 190.129 287.781 190.02 287.191 190.104C287.502 189.625 287.793 189.131 288.132 188.671C288.333 188.398 288.609 188.18 288.851 187.643C289.572 187.019 290.291 186.393 291.017 185.774C291.14 185.669 291.292 185.599 291.43 185.513ZM58.8805 80.8202C60.4596 82.1343 62.0298 83.4647 63.5287 84.8676C65.9875 87.169 67.545 90.1142 68.8327 93.1311C71.5403 99.4752 74.0435 105.906 76.606 112.311C80.3825 121.751 84.1375 131.199 87.9017 140.938C88.0989 141.25 88.3524 141.54 88.4851 141.877C90.8789 147.96 93.2498 154.051 95.6433 160.134C97.4882 164.822 99.4457 169.468 101.19 174.193C102.804 178.562 103.848 183.096 104.456 187.718C104.514 188.163 104.363 188.636 104.31 189.096C104.265 188.705 104.281 188.293 104.154 187.93C104.068 187.687 103.677 187.547 103.598 187.304C102.098 182.668 100.721 177.989 99.1115 173.392C98.0036 170.227 96.6115 167.159 95.285 164.074C94.6655 162.633 94.1125 162.493 92.7206 163.182C91.7803 163.648 90.8234 164.083 89.9042 164.587C88.4514 165.384 86.9123 165.686 85.2703 165.541C84.0998 165.437 82.6363 164.086 82.6079 162.829C82.5802 161.6 83.1261 160.614 84.5509 160.484C85.4423 160.402 86.3538 160.446 87.2255 160.277C87.8686 160.152 88.462 159.773 89.0776 159.507C88.6763 159.201 88.3034 158.841 87.8633 158.607C87.5911 158.462 87.2168 158.506 86.8881 158.468C84.6844 158.214 82.815 159.268 80.8786 160.022C77.3912 161.381 75.4253 161.122 73.6533 158.795C72.7012 157.545 72.0628 156.03 71.4332 154.569C68.5758 147.943 65.543 141.378 63.012 134.628C60.3936 127.645 57.9537 120.56 56.0361 113.362C53.9733 105.617 51.7127 97.8619 51.3138 89.7679C51.2039 87.5391 51.3952 85.3815 52.0328 83.1805C53.0591 79.6375 56.4037 78.759 58.8805 80.8202ZM180.132 151.757C180.258 152 180.419 152.23 180.505 152.486C181.613 155.768 181.44 159.055 179.906 162.095C178.301 165.277 176.335 168.279 174.508 171.349C174.431 171.479 174.173 171.503 173.998 171.576C173.942 171.339 173.786 171.074 173.846 170.87C174.369 169.078 174.964 167.306 175.453 165.505C175.554 165.134 175.444 164.514 175.185 164.283C174.801 163.941 174.157 163.61 173.693 163.688C172.354 163.912 171.242 165.503 171.11 167.092C170.892 169.716 170.815 172.362 170.418 174.96C169.78 179.137 168.132 183.006 166.302 186.792C166.203 186.997 166.01 187.157 165.86 187.337C165.714 187.103 165.499 186.887 165.433 186.632C165.204 185.741 165.162 184.778 164.805 183.947C163.547 181.017 163.567 178.2 165.107 175.362C165.949 173.809 166.604 172.156 167.492 170.401C168.118 168.598 168.415 166.576 169.447 165.045C171.038 162.684 173.182 160.699 174.998 158.48C176.602 156.52 178.078 154.458 179.61 152.441L180.132 151.757ZM264.114 179.724C263.777 180.301 263.517 180.835 263.089 181.148C261.482 182.322 261.662 185.484 263.244 186.459C263.598 186.677 264.208 186.493 264.701 186.494C264.701 186.094 264.824 185.646 264.681 185.303C263.68 182.895 264.72 180.922 267.342 180.289C267.753 180.19 268.126 179.941 268.517 179.76C268.158 179.54 267.806 179.306 267.438 179.102C267.044 178.884 266.636 178.691 266.233 178.49C264.715 177.733 264.473 177.858 264.114 179.724ZM261.458 167.13C261.22 168.501 261.293 169.981 261.539 171.36C261.731 172.435 264.552 173.026 266.086 172.827C267.706 172.617 268.703 171.65 269.71 170.619C270.587 169.72 271.587 169.014 272.825 169.514C274.081 170.021 274.129 171.269 274.07 172.598C274.422 174.934 275.101 176.825 277.142 178.208C279.843 180.04 282.954 178.698 284.168 176.478C284.305 176.227 284.549 176.033 284.743 175.813C284.89 176.029 285.082 176.226 285.176 176.463C285.905 178.305 286.697 180.13 287.301 182.013C287.677 183.187 287.141 183.72 285.941 183.708C285.14 183.7 284.337 183.693 283.536 183.716C283.326 183.721 283.119 183.837 282.911 183.902C283.027 184.098 283.097 184.402 283.266 184.471C284.023 184.783 284.919 185.408 285.56 185.222C287.241 184.735 288.714 183.815 288.81 181.731C288.966 178.338 287.145 175.777 285.207 173.281C283 170.438 279.743 169.435 276.459 168.504C272.335 167.336 268.211 166.163 264.085 164.999C263.226 164.757 261.693 165.776 261.458 167.13ZM277.233 169.77C278.704 170.353 280.158 170.996 281.564 171.72C283.992 172.97 284.247 175.18 282.226 176.932C280.124 178.753 277.425 178.136 276.632 175.532C276.187 174.072 276.091 172.507 275.838 170.697C275.77 169.601 276.461 169.463 277.233 169.77ZM271.136 170.855C271.007 170.906 270.882 170.973 270.748 171.007C268.752 171.516 267.199 174.767 268.148 176.528C268.335 176.876 268.719 177.113 269.012 177.401C269.085 177.114 269.167 176.829 269.23 176.54C269.418 175.684 269.598 174.826 269.85 173.898C270.305 172.963 270.695 172.101 271.074 171.233C271.124 171.12 271.117 170.981 271.136 170.855ZM264.931 165.903C266.587 166.48 268.179 167.238 270.092 167.92C270.141 168.142 270.299 168.412 270.223 168.578C269.269 170.671 265.685 172.146 263.538 171.358C262.272 170.893 261.571 169.288 261.988 167.808C262.278 166.783 263.976 165.569 264.931 165.903ZM112.785 115.227C109.933 115.505 107.657 116.751 105.921 119.206C104.968 120.554 105.693 121.672 105.917 122.805C106.725 126.888 107.702 130.937 108.629 134.996C109.392 138.338 110.169 141.676 110.95 145.014C111.991 149.462 113.037 153.908 114.09 158.353C114.848 161.551 115.616 164.746 116.398 167.938C116.48 168.272 116.687 168.574 116.837 168.891C116.975 168.558 117.256 168.213 117.229 167.895C117.012 165.375 116.794 162.853 116.465 160.347C116.12 157.709 115.698 155.08 115.227 152.462C114.665 149.338 114.074 146.217 113.39 143.119C111.842 136.104 109.843 129.223 107.557 122.418C106.649 119.714 109.229 117.93 111.316 117.976C112.65 118.006 113.802 118.311 115.027 118.61C115.229 118.66 115.549 118.211 115.814 117.846C115.814 117.602 115.845 117.49 115.809 117.408C115.525 116.762 116.556 115.579 115.036 115.437C114.285 115.367 113.522 115.156 112.785 115.227ZM259.074 154.49C257.284 154.517 255.496 154.755 253.708 154.738C251.151 154.713 248.711 155.258 246.427 156.264C244.419 157.149 242.564 158.373 240.567 159.521C238.238 161.595 236.465 163.915 235.783 166.887C235.693 167.277 236.123 167.784 236.312 168.236C236.618 167.964 237.115 167.74 237.2 167.411C238.823 161.12 243.394 158.058 249.362 156.522C252.623 155.683 255.922 155.89 259.232 156.185C259.66 156.223 260.621 156.79 260.657 155.66C260.69 154.622 259.812 154.479 259.074 154.49ZM174 66.3261C179.813 67.1512 184.113 70.4875 187.371 75.2774C190.922 80.4977 192.11 86.4307 192.266 92.5277C192.378 96.8806 191.857 101.262 191.424 105.612C191.1 108.862 190.64 112.12 189.926 115.304C189.026 119.317 187.787 123.255 186.728 127.234C184.958 133.887 182.729 140.384 179.903 146.663C176.891 153.354 172.931 159.417 167.367 164.32C165.571 165.902 163.489 167.046 161.067 167.286C158.051 167.586 155.122 167.018 152.238 166.135C146.068 164.247 139.833 162.552 133.725 160.485C128.147 158.597 124.673 154.55 123.434 148.803C122.505 144.493 121.722 140.145 121.072 135.785C120.52 132.075 120.071 128.331 119.914 124.588C119.795 121.725 120.169 118.838 120.387 115.967C120.553 113.778 120.818 111.597 121.04 109.118C121.759 104.762 123.063 100.593 124.781 96.5173C127.391 90.3237 130.987 84.8744 135.848 80.1718C141.148 75.0457 147.481 71.7848 154.369 69.5421C158.256 68.2763 162.279 67.3449 166.305 66.6113C168.811 66.1545 171.492 65.9702 174 66.3261ZM347.107 106.187C347.28 106.457 347.434 106.742 347.629 106.995C351.246 111.699 355.075 116.256 358.434 121.137C362.398 126.897 365.71 133.066 368.281 139.707C369.282 141.788 370.198 143.802 371.143 145.802C371.643 146.861 372.682 146.728 373.391 146.387C374.158 146.018 374.063 145.236 373.604 144.413C369.818 137.638 366.185 130.776 362.312 124.051C359.936 119.927 357.369 115.892 354.596 112.026C353.113 109.958 351.021 108.325 349.179 106.521C348.934 106.282 348.552 106.112 348.211 106.061C347.857 106.008 347.476 106.137 347.107 106.187ZM337.402 133.232C341.458 134.307 343.474 137.276 343.122 141.181C342.901 143.642 341.927 145.217 339.595 145.88C336.921 146.641 334.251 146.292 331.733 145.28C328.121 143.828 325.167 141.631 324.27 137.224C324.177 136.037 324.518 135.169 325.576 134.396C329.325 131.655 333.282 132.139 337.402 133.232ZM252.855 55.9314C252.953 56.0541 253.052 56.1032 253.151 56.2259C253.468 56.3689 253.861 56.3422 254.091 56.5217C259.825 61.0017 263.421 66.8545 265.311 73.8083C266.209 77.1107 266.616 80.4785 266.467 83.8758C266.205 89.8542 264.328 95.318 260.928 100.29C257.214 105.723 252.278 109.72 246.385 112.525C243.008 114.133 239.423 115.29 235.627 115.492C233.918 115.583 232.17 115.302 230.495 115.551C227.275 116.03 224.279 115.164 221.305 114.299C215.317 112.557 210.047 109.547 205.532 105.198C202.201 101.989 199.321 98.4999 197.418 94.268C197.381 94.1851 197.335 94.1062 197.292 94.0254C197.236 94.135 197.118 94.2526 197.132 94.3531C197.415 96.5014 197.278 98.6768 198.805 100.594C203.534 106.529 209.018 111.528 216.124 114.431C219.164 115.673 222.409 116.471 225.619 117.227C227.551 117.682 229.599 117.875 231.585 117.823C236.61 117.691 241.457 116.63 246.096 114.635C251.048 112.504 255.384 109.511 259.079 105.624C263.376 101.104 266.376 95.8422 267.643 89.7248C268.148 87.2882 268.549 84.7695 268.515 82.2948C268.408 74.5638 266.135 67.4361 261.633 61.1076C260.407 59.3831 258.757 57.9503 257.26 56.4235C256.554 55.704 253.421 55.357 252.855 55.9314ZM246.537 56.006C246.462 56.0146 246.397 56.1056 246.328 56.1582C246.456 56.2039 246.583 56.2548 246.713 56.2945C251.758 57.8349 255.352 61.1474 257.753 65.7338C259.225 68.5447 260.022 71.5991 260.471 74.7849C261.384 81.261 259.889 87.2237 256.781 92.7804C252.939 99.6458 247.507 104.871 239.989 107.576C237.591 108.438 235.112 109.364 232.611 109.59C226.603 110.133 220.833 109.056 215.485 106.046C211.498 103.802 208.222 100.799 205.284 97.3132C201.876 93.27 199.937 88.5574 198.732 83.5205C198.31 81.755 198.491 79.8453 198.381 78.0024C198.36 77.6571 198.264 77.3163 198.202 76.9734C197.798 77.1819 197.175 77.2918 197.03 77.6167C196.512 78.7741 195.713 80.0511 195.833 81.1979C196.078 83.5558 196.669 85.9197 197.435 88.1727C199.423 94.0198 202.935 98.8975 207.494 103.004C211.736 106.825 216.625 109.495 222.19 110.834C224.074 111.288 225.979 111.809 227.897 111.92C229.672 112.022 231.493 111.712 233.265 111.413C235.626 111.015 238.037 110.684 240.29 109.918C246.511 107.802 251.73 104.206 255.938 99.0503C259.299 94.9311 261.241 90.2513 262.172 85.1192C263.268 79.0804 262.286 73.2295 260.052 67.5805C258.54 63.7582 256.336 60.3709 253.315 57.5475C253.087 57.3339 252.96 57.0101 252.787 56.5901C252.689 56.3935 252.591 56.3444 252.493 56.2952C250.557 55.1904 248.537 55.7734 246.537 56.006ZM24.7973 108.667C22.7737 108.688 20.7541 108.963 18.7312 109.122C16.2697 109.315 13.8095 109.558 11.343 109.652C8.98379 109.743 6.61477 109.614 4.25481 109.697C3.09206 109.737 1.90691 109.943 0.801412 110.272C0.424917 110.384 0.260977 111.101 -7.07864e-05 111.542C0.35903 111.649 0.711477 111.786 1.07903 111.855C1.50554 111.934 1.94533 111.954 2.4537 111.931C7.36101 111.771 12.1936 111.644 17.0271 111.606C18.9845 111.591 20.9442 111.843 22.9019 111.832C23.8618 111.826 24.8234 111.513 25.777 111.311C26.7715 111.1 27.0684 110.275 26.698 109.672C26.3798 109.154 25.4502 108.66 24.7973 108.667ZM231.967 60.087C230.861 65.3618 229.837 70.6546 228.752 75.9343C228.196 78.6448 228.857 79.7698 231.188 81.0859C234.268 82.8247 237.247 84.7618 240.191 86.7373C241.665 87.7268 242.875 88.0713 243.682 87.2893C244.445 86.551 244.57 85.9009 243.552 85.2085C240.369 83.0411 237.17 80.8888 234.092 78.571C233.422 78.0664 232.819 76.8616 232.888 76.0415C233.14 73.0465 233.674 70.0752 234.135 67.1005C234.327 65.8592 234.604 64.6316 234.842 63.2493C234.956 62.0299 235.282 60.92 235.106 59.9021C234.995 59.264 234.191 58.3928 233.585 58.2836C232.511 58.0898 232.148 59.2281 231.967 60.087ZM29.025 47.7622C28.8455 47.9498 28.7469 48.4609 28.8734 48.6474C29.4798 49.5421 30.1764 50.3767 30.9152 51.3063C33.2978 54.5547 35.5769 57.7513 37.9502 60.8776C38.2609 61.287 39.2664 61.6771 39.5834 61.4839C40.3894 60.9925 39.6634 60.4682 39.3292 59.9113C37.1113 56.2156 34.9647 52.4777 32.7662 48.7703C31.754 47.0632 30.1082 46.6297 29.025 47.7622ZM96.6185 0.00260374C96.23 0.0351114 95.794 0.503746 95.532 0.890323C94.5711 2.30862 95.0762 3.9029 95.2674 5.37636C95.6011 7.94727 96.2054 10.4814 96.6761 13.0348C96.8959 14.2273 97.0685 15.4288 97.2625 16.774C97.6506 18.7753 98.0727 20.6223 98.4192 22.4839C99.0487 25.8653 99.611 29.2596 100.243 32.6404C100.771 35.4607 101.341 38.2732 101.923 41.0826C102.879 45.6951 103.828 50.3095 104.85 54.907C105.131 56.1683 106.113 56.6409 106.919 56.0373C107.19 55.8337 107.462 55.3121 107.397 55.0101C105.89 47.9776 104.275 40.9686 102.813 33.9268C101.738 28.7495 100.969 23.5056 99.8481 18.3396C98.7801 13.4181 98.2303 8.48424 98.3879 3.44801C98.4152 2.5769 98.0069 1.65687 97.6524 0.824061C97.4918 0.446782 96.9502 -0.0251496 96.6185 0.00260374ZM176.443 34.9271C176.159 35.4062 175.868 35.8805 175.581 36.5075C175.101 39.0553 174.607 41.4495 174.149 43.8512C173.918 45.0618 173.74 46.2841 173.567 47.5056C173.524 47.8091 173.593 48.1298 173.61 48.4426C174.033 48.3717 174.715 48.4437 174.835 48.2058C175.45 46.9808 176.005 45.7051 176.422 44.392C176.899 42.8876 177.099 41.2809 177.638 39.806C177.933 38.9989 178.736 38.411 179.203 37.6524C179.608 36.9963 180.083 36.2452 180.102 35.5236C180.115 35.0605 179.422 34.2826 178.931 34.164C178.072 33.9565 177.051 33.8991 176.443 34.9271Z" fill="#00160A"/>
    <path d="M274.4 181.939C272.653 181.471 271.389 180.525 271.576 179.826C271.763 179.128 273.331 178.941 275.078 179.409C276.825 179.877 278.089 180.823 277.902 181.521C277.715 182.22 276.147 182.407 274.4 181.939Z" fill="#FFB61D"/>
    <path fill-rule="evenodd" clip-rule="evenodd" d="M262.377 176.26C261.13 175.792 260.411 174.847 260.668 174.148C260.909 173.45 261.832 173.263 262.832 173.731C263.931 174.199 264.91 175.144 264.915 175.843C264.905 176.541 263.722 176.728 262.377 176.26Z" fill="#FFB61D"/>
</svg>
