<?xml version="1.0" encoding="utf-8"?>
<!-- Generator: Adobe Illustrator 19.2.1, SVG Export Plug-In . SVG Version: 6.00 Build 0)  -->
<svg version="1.1" id="Слой_1" xmlns="http://www.w3.org/2000/svg" xmlns:xlink="http://www.w3.org/1999/xlink" x="0px" y="0px"
	 width="28px" height="28px" viewBox="0 0 28 28" style="enable-background:new 0 0 28 28;" xml:space="preserve">
<g>
	<g id="XMLID_1_">
		<g>
			<path d="M15.1,7.4c0.7,0,1.4,0,2.2,0c0,0.8,0,1.5,0,2.3c-0.6,0-1.3,0-1.9,0c-0.4,0-0.7,0.2-0.7,0.7s0,1.1,0,1.7
				c0.9,0,1.7,0,2.6,0c0,0.7,0,1.4,0,2.1c-0.9,0-1.7,0-2.6,0c0,2.2,0,4.3,0,6.5c-0.9,0-1.7,0-2.5,0c0-2.2,0-4.3,0-6.5
				c-0.7,0-1.4,0-2.2,0c0-0.8,0-1.5,0-2.2c0.7,0,1.4,0,2.2,0c0-0.5,0-1,0-1.4c0-1.1,0.4-1.9,1.2-2.6C13.9,7.6,14.5,7.4,15.1,7.4z"/>
		</g>
		<g>
		</g>
	</g>
</g>
</svg>
