<?xml version="1.0" encoding="utf-8"?>
<!-- Generator: Adobe Illustrator 19.0.0, SVG Export Plug-In . SVG Version: 6.00 Build 0)  -->
<svg version="1.1" id="Слой_1" xmlns="http://www.w3.org/2000/svg" xmlns:xlink="http://www.w3.org/1999/xlink" x="0px" y="0px"
	 viewBox="-699 443.7 18 4.7" style="enable-background:new -699 443.7 18 4.7;" xml:space="preserve">
<style type="text/css">
	.st0{fill:#FFFFFF;}
</style>
<g id="ic_mouse_1_">
	<path id="ic_mouse" class="st0" d="M-690.2,429.9c-4.7,0-8.5-3.7-8.5-8.2v-8.4c0-4.5,3.8-8.2,8.5-8.2c4.7,0,8.5,3.7,8.5,8.2v8.4
		C-681.7,426.3-685.5,429.9-690.2,429.9z M-683.3,413.4c0-3.6-3.1-6.6-6.8-6.6c-3.8,0-6.8,3-6.8,6.6v8.4c0,3.6,3.1,6.6,6.8,6.6
		c3.8,0,6.8-3,6.8-6.6V413.4z M-690.2,415.1c-0.4,0-0.8-0.4-0.8-0.8v-4.1c0-0.4,0.4-0.8,0.8-0.8c0.4,0,0.8,0.4,0.8,0.8v4.1
		C-689.4,414.8-689.7,415.1-690.2,415.1z M-693.3,444.9c0.2,0,0.4,0,0.6,0.1l2.5,1.6l2.5-1.6c0.2-0.1,0.4-0.2,0.6-0.1
		c0.2,0,0.4,0.2,0.5,0.3c0.2,0.4,0.1,0.8-0.2,1.1l-3,1.9c-0.1,0-0.2,0.1-0.3,0.1l0,0l-0.1,0l-0.1,0c-0.1,0-0.2,0-0.3-0.1l-0.1,0
		l-2.9-1.9c-0.4-0.2-0.5-0.7-0.2-1.1C-693.7,445.1-693.5,444.9-693.3,444.9z"/>
</g>
</svg>
