<?xml version="1.0" encoding="utf-8"?>
<!-- Generator: Adobe Illustrator 19.2.1, SVG Export Plug-In . SVG Version: 6.00 Build 0)  -->
<svg version="1.1" id="Слой_1" xmlns="http://www.w3.org/2000/svg" xmlns:xlink="http://www.w3.org/1999/xlink" x="0px" y="0px"
	 width="42px" height="42px" viewBox="0 0 42 42" style="enable-background:new 0 0 42 42;" xml:space="preserve">
<style type="text/css">
	.st0{fill:#63BC4D;}
</style>
<path class="st0" d="M36,33.6c-0.5,1.3-0.9,2.6-1.4,3.9c-0.4,1.1-0.8,1.4-2.1,1.4c-10.2,0-20.4,0-30.6,0c0,0-0.1,0-0.1,0
	c-0.9,0-1.6-0.1-1.8-1.4C0,27.2,0,16.8,0,6.5C0.1,6,0.2,5.5,0.8,5.2C1.2,5.1,1.6,5,2,5c4.2,0,8.5,0,12.7,0c0.3,0,0.5,0.2,0.6,0.4
	C15.9,6.2,16.5,7,17,7.7c0.3,0.5,0.7,0.6,1.2,0.6c5.7,0,11.4,0,17.1,0c0.2,0,0.5,0,0.7,0c0.6,0,0.7,0.1,0.7,0.7c0,0.5,0,1,0,1.5
	c0,0.5,0.1,0.6,0.6,0.6c0.7,0,0.7,0.1,0.8,0.8c0,1.1,0,2.2,0,3.3c0,0.6,0.1,0.7,0.7,0.7c0.4,0,0.8,0,1.1,0.1
	c0.9,0.2,1.3,0.6,1.5,1.5c0,0.1,0,0.2,0,0.3c0,0.2,0,0.5,0,0.7c-0.7,2.7-1.8,5.2-2.7,7.8c-0.8,2.2-1.6,4.3-2.4,6.5
	C36.2,33,36.1,33.3,36,33.6 M32.6,38.9C32.6,38.9,32.6,38.9,32.6,38.9c-0.1-0.1-0.2-0.1-0.3-0.1c-10.1,0-20.1,0-30.2,0
	c-0.1,0-0.2,0-0.3,0c-0.1,0-0.1,0,0,0.1 M1.9,5C1.8,5,1.8,5,1.9,5c1.5,0.1,3,0.1,4.5,0.1c2.8,0,5.6,0,8.4,0c0,0,0,0,0-0.1
	C10.5,5,6.2,5,1.9,5z M0,6.5c0.3-0.8,0.9-1.4,1.9-1.5c0,0,0,0,0-0.1C1.3,5,0.7,5,0.2,5 M1.8,38.9C1.8,38.9,1.8,38.9,1.8,38.9
	c-0.9-0.1-1.5-0.6-1.8-1.5c0,0.4,0,0.8,0,1.3 M32.4,37.5c0.4,0,0.6-0.1,0.7-0.5c2.3-6.2,4.5-12.4,6.8-18.6c0.2-0.6,0-0.8-0.6-0.8
	c-10.1,0-20.1,0-30.2,0c-0.4,0-0.6,0.1-0.8,0.6c-2.2,6.2-4.5,12.4-6.8,18.6c-0.2,0.7-0.1,0.8,0.6,0.8c5,0,10.1,0,15.1,0
	C22.2,37.5,27.3,37.5,32.4,37.5z M9.5,16.1c0.3,0,0.6,0.1,0.7,0c0.2-0.1,0-0.4,0.1-0.7c0,0,0-0.1,0-0.1c0.1-0.3,0.3-0.6,0.7-0.6
	c0.3,0,0.6,0.3,0.7,0.6c0,0.1,0,0.3,0,0.4c0,0.3,0.1,0.3,0.3,0.3c0.8,0,1.5,0,2.3,0c0.3,0,0.6,0.1,0.7-0.1c0.2-0.1,0-0.4,0.1-0.7
	c0,0,0,0,0,0c0.1-0.4,0.3-0.6,0.6-0.6c0.3,0,0.6,0.1,0.7,0.5c0.1,0.2,0.1,0.4,0,0.6c0,0.3,0.1,0.3,0.3,0.3c0.8,0,1.6,0,2.3,0
	c0.2,0,0.5,0.1,0.7,0c0.2-0.1,0-0.4,0.1-0.7c0,0,0-0.1,0-0.1c0.1-0.4,0.3-0.5,0.7-0.5c0.3,0,0.6,0.2,0.7,0.5c0,0.1,0,0.2,0,0.4
	c0,0.4,0.1,0.5,0.5,0.5c0.8,0,1.7,0,2.5,0c0.3,0,0.5-0.1,0.4-0.4c0-0.2,0-0.3,0.1-0.5c0.1-0.3,0.4-0.5,0.7-0.4
	c0.3,0,0.5,0.2,0.6,0.6c0,0.1,0,0.3,0,0.4c0,0.3,0.1,0.3,0.3,0.3c0.8,0,1.5,0,2.3,0c0.3,0,0.6,0.1,0.8,0c0.2-0.1,0-0.4,0.1-0.7
	c0.1-0.4,0.3-0.6,0.7-0.6c0.3,0,0.6,0.2,0.7,0.6c0,0.1,0,0.3,0,0.4c0,0.3,0.1,0.3,0.3,0.3c1.6,0,3.3,0,4.9,0c0.3,0,0.3-0.1,0.3-0.3
	c0-0.9,0-1.7,0-2.6c0-0.4-0.1-0.5-0.5-0.5c-9.3,0-18.6,0-28,0c-0.1,0-0.2,0-0.2,0c-0.2,0-0.2,0-0.2,0.2c0,1.2,0,2.4,0,3.6
	C8.4,16.1,8.4,16.1,9.5,16.1z M14.4,6.8c-0.2-0.2-0.3-0.3-0.6-0.3c-3.8,0-7.7,0-11.5,0c-0.7,0-0.8,0.1-0.8,0.8c0,8.3,0,16.7,0,25
	c0,0.1,0,0.3,0,0.4c0.3-0.8,0.7-1.5,0.7-2.3c0-4.3,0-8.6,0-12.9c0-1.2,0.2-2.1,1.2-2.8c0.2-0.1,0.2-0.3,0.2-0.6c0-1.7,0-3.4,0-5
	c0-0.6-0.1-0.5,0.5-0.5c3.7,0,7.4,0,11.1,0c0.1,0,0.3,0,0.5,0C15.1,7.9,14.7,7.3,14.4,6.8z M4.9,13c0.5-0.5,0.9-0.9,1.4-1.4
	c0.2-0.2,0.4-0.3,0.7-0.3c9.1,0,18.1,0,27.2,0c0.9,0,0.9,0,0.9-0.9c0-0.4-0.1-0.5-0.5-0.5c-9.8,0-19.6,0-29.3,0c-0.1,0-0.2,0-0.2,0
	c-0.2,0-0.3,0.1-0.3,0.3C4.8,11.1,4.8,12,4.9,13C4.9,13,4.9,13,4.9,13z M3.9,16.8c-0.3,0-0.4,0.1-0.4,0.4c0,3.2,0,6.4,0,9.5
	c0,0.1,0,0.2,0.1,0.4c1.3-3.4,2.5-6.8,3.8-10.3C6.2,16.8,5,16.8,3.9,16.8z M6,15.4c0.1,0,0.2,0,0.2-0.2c0-0.5,0-1,0-1.5
	c-0.6,0.6-1.1,1.1-1.7,1.7C5,15.4,5.5,15.4,6,15.4z"/>
</svg>
