<?xml version="1.0" encoding="utf-8"?>
<!-- Generator: Adobe Illustrator 19.2.1, SVG Export Plug-In . SVG Version: 6.00 Build 0)  -->
<svg version="1.1" id="Слой_1" xmlns="http://www.w3.org/2000/svg" xmlns:xlink="http://www.w3.org/1999/xlink" x="0px" y="0px"
	 width="42px" height="42px" viewBox="0 0 42 42" style="enable-background:new 0 0 42 42;" xml:space="preserve">
<style type="text/css">
	.st0{fill:#63BC4D;}
</style>
<path class="st0" d="M41,9.1c0,10.4,0,20.8,0,31.2c0,0.3-0.1,0.3-0.3,0.3c-12.7,0-25.3,0-38,0c-0.3,0-0.3-0.1-0.3-0.3
	c0-10.4,0-20.8,0-31.2c0.2-0.2,0.4-0.2,0.6-0.2c1.5,0,3,0,4.5,0c0.8,0,1.6-0.2,2.3-0.6c2-1.1,4-2.2,6-3.3c1.4-0.8,2.8-1.6,4.1-2.5
	c0.4-0.3,0.9-0.3,1.4-0.4c0.4,0,0.7,0,1.1,0c0.8,0,1.3,0.4,2,0.9c1,0.7,2,1.3,3.1,1.9c2.4,1.4,4.8,2.7,7.2,4
	c0.3,0.1,0.5,0.2,0.8,0.2c1.7,0,3.4,0,5.1,0C40.6,8.9,40.8,8.9,41,9.1z M4,14.9c-0.4,0-0.5,0.1-0.5,0.5c0,7.9,0,15.7,0,23.6
	c0,0.3,0.1,0.4,0.4,0.4c11.8,0,23.5,0,35.3,0c0.4,0,0.4-0.1,0.4-0.4c0-7.9,0-15.8,0-23.6c0-0.3-0.1-0.4-0.4-0.4
	c-5.9,0-11.8,0-17.6,0C15.8,14.9,9.9,14.9,4,14.9z M9.9,10.4c-2,0-4,0-6,0c-0.4,0-0.4,0.1-0.4,0.4c0,0.8,0,1.6,0,2.3
	c0,0.4,0.1,0.5,0.5,0.5c8.4,0,16.8,0,25.2,0c3.4,0,6.7,0,10.1,0c0.3,0,0.4-0.1,0.4-0.4c0-0.8,0-1.6,0-2.4c0-0.4-0.1-0.5-0.5-0.5
	c-5.9,0-11.7,0-17.6,0C17.7,10.4,13.8,10.4,9.9,10.4z M11.3,9.1c6.9,0,13.7,0,20.6,0c-2.4-1.3-4.7-2.6-7.1-4c0,0.9-0.3,1.7-0.9,2.4
	c-0.6,0.6-1.4,1-2.3,1c-0.7,0-1.4-0.2-1.9-0.6c-0.9-0.7-1.3-1.6-1.3-2.7C16,6.4,13.7,7.7,11.3,9.1z M23.6,5.2c0-1-0.9-1.9-1.9-1.9
	c-1,0-1.9,0.9-1.9,1.9c0,1,0.9,1.9,1.9,1.9C22.7,7.2,23.6,6.3,23.6,5.2z M13.2,25.2c0-0.4-0.3-0.7-0.6-0.7c-0.3,0-0.6,0.3-0.6,0.6
	c0,0.3,0.3,0.7,0.6,0.7C12.9,25.9,13.2,25.6,13.2,25.2z M31.3,25.2c0-0.3-0.3-0.7-0.6-0.7c-0.3,0-0.6,0.3-0.7,0.6
	c0,0.3,0.3,0.7,0.6,0.7C31,25.9,31.3,25.6,31.3,25.2z M12,34.9c0,0.3,0.3,0.7,0.6,0.7c0.3,0,0.6-0.3,0.6-0.6c0-0.4-0.3-0.6-0.6-0.6
	C12.2,34.3,12,34.5,12,34.9z M30.6,19.4c-0.3,0-0.6,0.3-0.6,0.6c0,0.4,0.3,0.6,0.7,0.6c0.3,0,0.6-0.3,0.6-0.6
	C31.3,19.7,31,19.4,30.6,19.4z M12,29.7c0,0.3,0.3,0.6,0.6,0.6c0.4,0,0.7-0.3,0.6-0.6c0-0.3-0.3-0.6-0.6-0.6
	C12.3,29.1,11.9,29.4,12,29.7z M31.3,29.7c0-0.3-0.3-0.6-0.6-0.6c-0.4,0-0.7,0.3-0.7,0.6c0,0.3,0.3,0.6,0.6,0.6
	C31,30.4,31.3,30.1,31.3,29.7z M16.5,25.2c0,0.3,0.3,0.6,0.6,0.6c0.3,0,0.7-0.3,0.7-0.6c0-0.3-0.3-0.6-0.6-0.6
	C16.7,24.6,16.5,24.9,16.5,25.2z M22.2,25.2c0-0.4-0.3-0.7-0.6-0.7c-0.3,0-0.6,0.3-0.6,0.6c0,0.4,0.3,0.7,0.6,0.7
	C21.9,25.9,22.2,25.6,22.2,25.2z M26.1,24.6c-0.3,0-0.6,0.3-0.6,0.6c0,0.3,0.3,0.7,0.6,0.7c0.3,0,0.6-0.3,0.6-0.6
	C26.8,24.9,26.5,24.6,26.1,24.6z M17.7,34.9c0-0.3-0.3-0.6-0.6-0.6c-0.4,0-0.6,0.3-0.6,0.6c0,0.3,0.3,0.6,0.6,0.6
	C17.4,35.5,17.7,35.2,17.7,34.9z M22.2,34.8c0-0.3-0.3-0.6-0.6-0.6c-0.4,0-0.6,0.3-0.6,0.7c0,0.3,0.3,0.6,0.6,0.6
	C22,35.5,22.3,35.2,22.2,34.8z M25.5,34.9c0,0.3,0.3,0.7,0.6,0.7c0.3,0,0.6-0.3,0.6-0.6c0-0.4-0.3-0.6-0.6-0.6
	C25.8,34.3,25.5,34.5,25.5,34.9z M17.1,19.4c-0.4,0-0.7,0.3-0.7,0.6c0,0.4,0.3,0.6,0.6,0.6c0.4,0,0.7-0.3,0.7-0.6
	C17.8,19.7,17.5,19.4,17.1,19.4z M26.8,20.1c0-0.3-0.3-0.6-0.6-0.6c-0.4,0-0.7,0.3-0.7,0.6c0,0.3,0.3,0.6,0.6,0.6
	C26.5,20.7,26.8,20.4,26.8,20.1z M35.8,20.1c0-0.3-0.3-0.6-0.6-0.7c-0.4,0-0.7,0.2-0.7,0.6c0,0.4,0.2,0.6,0.6,0.7
	C35.5,20.7,35.8,20.4,35.8,20.1z M8.1,29.1c-0.3,0-0.6,0.3-0.6,0.6c0,0.3,0.3,0.6,0.6,0.6c0.4,0,0.7-0.2,0.7-0.6
	C8.7,29.4,8.4,29.1,8.1,29.1z M16.5,29.7c0,0.3,0.3,0.6,0.6,0.6c0.3,0,0.6-0.3,0.6-0.6c0-0.3-0.3-0.7-0.6-0.7
	C16.7,29.1,16.5,29.4,16.5,29.7z M25.5,29.7c0,0.3,0.3,0.6,0.7,0.6c0.4,0,0.6-0.3,0.6-0.6c0-0.4-0.3-0.6-0.6-0.6
	C25.8,29.1,25.5,29.4,25.5,29.7z M35.8,29.7c0-0.3-0.3-0.7-0.6-0.7c-0.3,0-0.6,0.3-0.6,0.6c0,0.4,0.3,0.6,0.6,0.6
	C35.5,30.4,35.8,30.1,35.8,29.7z M7.4,25.2c0,0.3,0.3,0.7,0.7,0.6c0.3,0,0.6-0.3,0.6-0.6c0-0.4-0.3-0.6-0.6-0.6
	C7.7,24.6,7.4,24.9,7.4,25.2z M34.5,25.2c0,0.3,0.3,0.6,0.6,0.6c0.3,0,0.6-0.3,0.6-0.6c0-0.4-0.3-0.6-0.7-0.6
	C34.8,24.6,34.5,24.9,34.5,25.2z M8.1,35.5c0.3,0,0.6-0.3,0.7-0.6c0-0.4-0.2-0.6-0.6-0.7c-0.4,0-0.7,0.2-0.7,0.6
	C7.4,35.2,7.7,35.5,8.1,35.5z M21,20c0,0.4,0.3,0.7,0.6,0.7c0.3,0,0.6-0.3,0.6-0.6c0-0.4-0.3-0.7-0.6-0.7C21.3,19.4,21,19.7,21,20z
	 M22.2,29.7c0-0.4-0.3-0.6-0.6-0.6c-0.4,0-0.6,0.3-0.6,0.7c0,0.3,0.3,0.6,0.6,0.6C22,30.3,22.2,30.1,22.2,29.7z"/>
</svg>
