<?xml version="1.0" encoding="utf-8"?>
<!-- Generator: Adobe Illustrator 19.2.1, SVG Export Plug-In . SVG Version: 6.00 Build 0)  -->
<svg version="1.1" id="Слой_1" xmlns="http://www.w3.org/2000/svg" xmlns:xlink="http://www.w3.org/1999/xlink" x="0px" y="0px"
	 width="42px" height="42px" viewBox="0 0 42 42" style="enable-background:new 0 0 42 42;" xml:space="preserve">
<style type="text/css">
	.st0{fill:#63BC4D;}
</style>
<path class="st0" d="M21.7,42c-0.3,0-0.6,0-0.9,0c-0.2-0.1-0.3-0.1-0.5,0c-0.2,0-0.5,0-0.7,0c-0.7-0.1-1.5-0.1-2.2-0.2
	c-1.7-0.3-3.2-0.8-4.8-1.5c-1.9-0.9-3.7-2-5.2-3.4c-1.7-1.5-3.1-3.2-4.2-5.1c-1-1.8-1.8-3.8-2.3-5.8c-0.2-0.9-0.2-1.8-0.3-2.7
	c0-0.1,0-0.2,0-0.3c0-0.2,0-0.5,0-0.7c0.1-0.2,0.1-0.3,0-0.5c0-0.3,0-0.6,0-1c0.1-0.2,0.1-0.3,0-0.5c0-0.2,0-0.5,0-0.7
	c0.1-0.7,0.1-1.5,0.2-2.2c0.3-1.6,0.8-3.2,1.5-4.7C3,11,3.9,9.4,5.1,8c1.2-1.4,2.5-2.7,4.1-3.8c2.3-1.6,4.8-2.7,7.5-3.3
	c0.9-0.2,1.8-0.2,2.7-0.3c0.1,0,0.2,0,0.3,0c0.2,0,0.4,0,0.6,0c0.2,0.1,0.4,0.1,0.6,0c0.3,0,0.5,0,0.8,0c0.2,0.1,0.4,0.1,0.6,0
	c0.2,0,0.4,0,0.6,0c0.8,0.1,1.5,0.1,2.3,0.2C26.8,1,28.4,1.6,30,2.3c1.9,0.9,3.6,2,5.2,3.4c1.7,1.5,3.1,3.2,4.2,5.1
	c1,1.8,1.8,3.8,2.3,5.8c0.2,0.9,0.2,1.8,0.3,2.8c0,0.1,0,0.2,0,0.3c0,0.2,0,0.4,0,0.6c-0.1,0.2-0.1,0.4,0,0.6c0,0.3,0,0.6,0,0.9
	c-0.1,0.2-0.1,0.3,0,0.5c0,0.2,0,0.5,0,0.7c-0.1,0.7-0.1,1.5-0.2,2.2c-0.3,1.6-0.8,3.2-1.5,4.7c-0.8,1.7-1.7,3.3-2.9,4.7
	c-1.2,1.4-2.5,2.7-4.1,3.8c-2.3,1.6-4.8,2.7-7.5,3.3c-0.9,0.2-1.8,0.2-2.7,0.3c-0.1,0-0.2,0-0.3,0c-0.2,0-0.5,0-0.7,0
	C22,41.9,21.8,41.9,21.7,42z M20.3,0.6c0.2,0.1,0.4,0.1,0.6,0C20.7,0.6,20.5,0.6,20.3,0.6z M21.7,0.6c0.2,0.1,0.4,0.1,0.6,0
	C22.1,0.6,21.9,0.6,21.7,0.6z M42,20.3c-0.1,0.2-0.1,0.4,0,0.6C42,20.7,42,20.5,42,20.3z M0.6,20.8c0.1-0.2,0.1-0.3,0-0.5
	C0.6,20.5,0.6,20.6,0.6,20.8z M0.6,22.2c0.1-0.2,0.1-0.3,0-0.5C0.6,21.9,0.6,22.1,0.6,22.2z M42,21.8c-0.1,0.2-0.1,0.3,0,0.5
	C42,22.1,42,21.9,42,21.8z M20.8,42c-0.2-0.1-0.3-0.1-0.5,0C20.5,42,20.6,42,20.8,42z M22.2,42c-0.2-0.1-0.3-0.1-0.5,0
	C21.8,42,22,42,22.2,42z M21.3,2.2C10.8,2.1,2.2,10.7,2.2,21.3c0,10.5,8.5,19.1,19.1,19.1c10.5,0.1,19.1-8.5,19.2-19.1
	C40.4,10.8,31.9,2.2,21.3,2.2z M32.4,13.1c-0.1-0.3-0.3-0.5-0.6-0.6c-0.4-0.1-0.7,0.1-1,0.4C27,17.4,23,21.8,19.1,26.3
	c-0.2,0.3-0.4,0.3-0.6,0c-2.3-1.8-4.6-3.7-6.9-5.5c-0.5-0.4-0.9-0.4-1.3,0c-0.3,0.4-0.2,0.8,0.3,1.3c0,0,0.1,0.1,0.1,0.1
	c2.5,2,5,4,7.5,6c0.6,0.5,1,0.4,1.5-0.1c1-1.1,1.9-2.2,2.9-3.3c3.2-3.6,6.3-7.1,9.5-10.7c0.2-0.2,0.3-0.4,0.3-0.7
	C32.4,13.2,32.4,13.2,32.4,13.1z"/>
</svg>
