<svg version="1.1" xmlns="http://www.w3.org/2000/svg" xmlns:xlink="http://www.w3.org/1999/xlink" width="15" height="11" viewBox="0 0 15 11">
<g id="check_icon">
<path id="check_icon" d="M14.507,2.211 C14.507,2.211 13.293,0.997 13.293,0.997 C13.126,0.830 12.924,0.747 12.686,0.747 C12.448,0.747 12.245,0.830 12.079,0.997 C12.079,0.997 6.222,6.863 6.222,6.863 C6.222,6.863 3.597,4.229 3.597,4.229 C3.430,4.062 3.228,3.979 2.990,3.979 C2.751,3.979 2.549,4.062 2.382,4.229 C2.382,4.229 1.168,5.443 1.168,5.443 C1.001,5.610 0.918,5.812 0.918,6.050 C0.918,6.288 1.001,6.491 1.168,6.657 C1.168,6.657 4.400,9.890 4.400,9.890 C4.400,9.890 5.615,11.104 5.615,11.104 C5.781,11.271 5.984,11.354 6.222,11.354 C6.460,11.354 6.662,11.271 6.829,11.104 C6.829,11.104 8.043,9.890 8.043,9.890 C8.043,9.890 14.507,3.425 14.507,3.425 C14.674,3.259 14.757,3.056 14.757,2.818 C14.757,2.580 14.674,2.378 14.507,2.211 C14.507,2.211 14.507,2.211 14.507,2.211 z" fill="#FFCC00" />
</g>
</svg>
