<?xml version="1.0" encoding="utf-8"?>
<svg width="21" height="15" viewBox="0 0 21 15" fill="none" xmlns="http://www.w3.org/2000/svg">
    <path d="M19.486 0.0473633H1.514C1.34454 0.0475619 1.18209 0.114983 1.06229 0.23483C0.94249 0.354677 0.875132 0.517158 0.875 0.686614V1.97261C0.875 2.03186 0.93925 2.09986 0.99175 2.12736L10.4382 7.52311C10.4624 7.53694 10.4899 7.5441 10.5177 7.54386C10.5462 7.54394 10.5742 7.53634 10.5988 7.52186L19.7598 2.13261C19.8113 2.10386 19.9478 2.02786 19.999 1.99286C20.061 1.95061 20.125 1.91236 20.125 1.83661V0.686364C20.1248 0.516951 20.0574 0.354534 19.9376 0.234742C19.8178 0.114949 19.6554 0.0475618 19.486 0.0473633Z" fill="#FACC02"/>
    <path d="M20.0452 3.91177C20.0206 3.89775 19.9927 3.89045 19.9644 3.89063C19.9361 3.8908 19.9083 3.89844 19.8839 3.91277L14.6997 6.96302C14.679 6.97506 14.6613 6.99159 14.6479 7.0114C14.6345 7.0312 14.6258 7.05377 14.6223 7.07742C14.6188 7.10108 14.6207 7.12521 14.6278 7.14804C14.6349 7.17086 14.6471 7.19179 14.6634 7.20927L19.8484 12.7985C19.8633 12.8147 19.8813 12.8275 19.9014 12.8363C19.9215 12.8451 19.9432 12.8496 19.9652 12.8495C20.0075 12.8495 20.0481 12.8326 20.0781 12.8027C20.108 12.7727 20.1249 12.7321 20.1249 12.6898V4.05052C20.125 4.02242 20.1177 3.99479 20.1037 3.97042C20.0897 3.94605 20.0695 3.92582 20.0452 3.91177Z" fill="#FACC02"/>
    <path d="M13.2057 7.98701C13.1811 7.96021 13.148 7.94266 13.112 7.93729C13.076 7.93192 13.0393 7.93906 13.0079 7.95751L10.9299 9.18026C10.8082 9.2506 10.6702 9.28808 10.5296 9.289C10.389 9.28992 10.2506 9.25426 10.1279 9.18551L8.2992 8.14076C8.26967 8.12394 8.23556 8.11696 8.20181 8.12083C8.16805 8.12469 8.1364 8.1392 8.11145 8.16226L1.16695 14.6038C1.14874 14.6208 1.13476 14.6418 1.12613 14.6652C1.11749 14.6886 1.11443 14.7136 1.1172 14.7384C1.11997 14.7632 1.12848 14.787 1.14207 14.8079C1.15565 14.8287 1.17393 14.8462 1.19545 14.8588C1.30345 14.9223 1.4077 14.9525 1.5137 14.9525H19.3019C19.3331 14.9526 19.3635 14.9435 19.3895 14.9264C19.4155 14.9093 19.4359 14.8849 19.4482 14.8563C19.4607 14.8278 19.4645 14.7963 19.4593 14.7657C19.454 14.7351 19.4399 14.7067 19.4187 14.684L13.2057 7.98701Z" fill="#FACC02"/>
    <path d="M6.5835 7.40017C6.6019 7.38317 6.61603 7.36207 6.62477 7.3386C6.63351 7.31512 6.6366 7.28992 6.63381 7.26503C6.63101 7.24013 6.62239 7.21625 6.60866 7.1953C6.59493 7.17435 6.57646 7.15692 6.55475 7.14442L1.11325 4.03642C1.08897 4.02263 1.06149 4.01546 1.03356 4.01563C1.00564 4.01579 0.978246 4.02328 0.954126 4.03736C0.930005 4.05143 0.910002 4.07159 0.896117 4.09582C0.882231 4.12005 0.874951 4.1475 0.875003 4.17542V12.3304C0.874826 12.3616 0.883787 12.3921 0.900776 12.4182C0.917764 12.4443 0.942035 12.4648 0.970584 12.4773C0.999133 12.4897 1.03071 12.4936 1.0614 12.4882C1.09209 12.4829 1.12055 12.4687 1.14325 12.4474L6.5835 7.40017Z" fill="#FACC02"/>
</svg>