<?xml version="1.0" encoding="utf-8"?>
<!-- Generator: Adobe Illustrator 19.2.1, SVG Export Plug-In . SVG Version: 6.00 Build 0)  -->
<svg version="1.1" id="Layer_1" xmlns="http://www.w3.org/2000/svg" xmlns:xlink="http://www.w3.org/1999/xlink" x="0px" y="0px"
	 width="24" height="25" viewBox="0 0 24 25" style="enable-background:new 0 0 24 25;" xml:space="preserve">
<g>
	<path class="st0" d="M12,24.5c-6.6,0-12-5.4-12-12c0-6.6,5.4-12,12-12c6.6,0,12,5.4,12,12C24,19.1,18.6,24.5,12,24.5z M12,2.8
		c-5.3,0-9.7,4.3-9.7,9.7c0,5.3,4.3,9.7,9.7,9.7c5.3,0,9.7-4.3,9.7-9.7C21.7,7.2,17.3,2.8,12,2.8z" fill="#4FAF4F"/>
	<path class="st0" d="M15.1,14.2h-3.6c-0.6,0-1.2-0.5-1.2-1.2s0.5-1.2,1.2-1.2h3.6c0.6,0,1.2,0.5,1.2,1.2S15.7,14.2,15.1,14.2z" fill="#4FAF4F"/>
	<path class="st0" d="M11.4,14.2c-0.6,0-1.2-0.5-1.2-1.2V7.4c0-0.6,0.5-1.2,1.2-1.2s1.2,0.5,1.2,1.2v5.7
		C12.6,13.7,12.1,14.2,11.4,14.2z" fill="#4FAF4F"/>
	<circle class="st0" cx="18" cy="13.1" r="1" fill="#4FAF4F"/>
</g>
</svg>
