<?xml version="1.0" encoding="utf-8"?>
<!-- Generator: Adobe Illustrator 19.2.1, SVG Export Plug-In . SVG Version: 6.00 Build 0)  -->
<svg version="1.1" id="Layer_1" xmlns="http://www.w3.org/2000/svg" xmlns:xlink="http://www.w3.org/1999/xlink" x="0px" y="0px"
	 width="32" height="30" viewBox="0 0 32 30" style="enable-background:new 0 0 32 30;" xml:space="preserve">
<g>
	<path class="st0" d="M23.8,29.6H7.4c-2.1,0-3.8-2.1-3.8-4.7v-9c0-0.6,0.5-1.2,1.2-1.2s1.2,0.5,1.2,1.2v9c0,1.4,0.8,2.4,1.5,2.4
		h16.4c0.7,0,1.5-1,1.5-2.4v-9c0-0.6,0.5-1.2,1.2-1.2s1.2,0.5,1.2,1.2v9C27.6,27.5,25.9,29.6,23.8,29.6z" fill="#4FAF4F"/>
	<path class="st0" d="M30.8,16.2c-0.3,0-0.6-0.1-0.8-0.3L18,3.8c0,0-1.1-1.1-2.3-1.1c-1.2,0-2,1-2,1.1l-0.1,0.1L2,15.5
		c-0.5,0.5-1.2,0.5-1.6,0c-0.5-0.5-0.5-1.2,0-1.6L11.8,2.3c0.3-0.4,1.7-1.9,3.8-1.9c2.2,0,3.8,1.6,4,1.9l12,12
		c0.5,0.5,0.5,1.2,0,1.6C31.4,16.1,31.1,16.2,30.8,16.2z" fill="#4FAF4F"/>
	<path class="st0" d="M17.4,24.3h-3.6c-1.3,0-2.3-1-2.3-2.3v-4.9c0-1.3,1-2.3,2.3-2.3h3.6c1.3,0,2.3,1,2.3,2.3V22
		C19.7,23.3,18.7,24.3,17.4,24.3z M13.8,22l3.5,0l0-4.8l-3.5,0L13.8,22z" fill="#4FAF4F"/>
</g>
</svg>
