<?xml version="1.0" encoding="utf-8"?>
<!-- Generator: Adobe Illustrator 19.2.1, SVG Export Plug-In . SVG Version: 6.00 Build 0)  -->
<svg version="1.1" id="Layer_1" xmlns="http://www.w3.org/2000/svg" xmlns:xlink="http://www.w3.org/1999/xlink" x="0px" y="0px"
	 width="25" height="23" viewBox="0 0 25 23" style="enable-background:new 0 0 25 23;" xml:space="preserve">
<style type="text/css">
	.st0{fill:#2DBC56;}
</style>
<g>
	<path class="st0" d="M3.2,22.4c-0.4,0-0.7-0.3-0.7-0.7V9c0-0.4,0.3-0.7,0.7-0.7S3.8,8.6,3.8,9v12.7C3.8,22.1,3.5,22.4,3.2,22.4z"/>
	<path class="st0" d="M6.9,22.4c-0.4,0-0.7-0.3-0.7-0.7V9c0-0.4,0.3-0.7,0.7-0.7S7.5,8.6,7.5,9v12.7C7.5,22.1,7.3,22.4,6.9,22.4z"/>
	<path class="st0" d="M10.6,22.4c-0.4,0-0.7-0.3-0.7-0.7V9c0-0.4,0.3-0.7,0.7-0.7c0.4,0,0.7,0.3,0.7,0.7v12.7
		C11.3,22.1,11,22.4,10.6,22.4z"/>
	<path class="st0" d="M14.4,22.4c-0.4,0-0.7-0.3-0.7-0.7V9c0-0.4,0.3-0.7,0.7-0.7C14.7,8.3,15,8.6,15,9v12.7
		C15,22.1,14.7,22.4,14.4,22.4z"/>
	<path class="st0" d="M18.1,22.4c-0.4,0-0.7-0.3-0.7-0.7V9c0-0.4,0.3-0.7,0.7-0.7c0.4,0,0.7,0.3,0.7,0.7v12.7
		C18.8,22.1,18.5,22.4,18.1,22.4z"/>
	<path class="st0" d="M21.8,22.4c-0.4,0-0.7-0.3-0.7-0.7V9c0-0.4,0.3-0.7,0.7-0.7c0.4,0,0.7,0.3,0.7,0.7v12.7
		C22.5,22.1,22.2,22.4,21.8,22.4z"/>
	<path class="st0" d="M24.3,9.7H0.7C0.4,9.7,0.1,9.4,0.1,9c0-0.4,0.3-0.7,0.7-0.7h23.5c0.4,0,0.7,0.3,0.7,0.7
		C24.9,9.4,24.6,9.7,24.3,9.7z"/>
	<path class="st0" d="M24.3,7.2H0.7c-0.4,0-0.7-0.3-0.7-0.7s0.3-0.7,0.7-0.7h23.5c0.4,0,0.7,0.3,0.7,0.7S24.6,7.2,24.3,7.2z"/>
	<path class="st0" d="M24.3,22.4H0.7c-0.4,0-0.7-0.3-0.7-0.7s0.3-0.7,0.7-0.7h23.5c0.4,0,0.7,0.3,0.7,0.7S24.6,22.4,24.3,22.4z"/>
	<g>
		<path class="st0" d="M1.8,7.2C1.6,7.2,1.3,7,1.2,6.8c-0.2-0.3,0-0.7,0.3-0.9l10.7-5.3c0.3-0.2,0.7,0,0.9,0.3
			c0.2,0.3,0,0.7-0.3,0.9L2.1,7.1C2,7.2,1.9,7.2,1.8,7.2z"/>
		<path class="st0" d="M23.2,7.2c-0.1,0-0.2,0-0.3-0.1L12.2,1.8c-0.3-0.2-0.5-0.6-0.3-0.9c0.2-0.3,0.6-0.5,0.9-0.3l10.7,5.3
			c0.3,0.2,0.5,0.6,0.3,0.9C23.7,7,23.4,7.2,23.2,7.2z"/>
	</g>
</g>
</svg>
