<?xml version="1.0" encoding="utf-8"?>
<!-- Generator: Adobe Illustrator 19.2.1, SVG Export Plug-In . SVG Version: 6.00 Build 0)  -->
<svg version="1.1" id="Layer_1" xmlns="http://www.w3.org/2000/svg" xmlns:xlink="http://www.w3.org/1999/xlink" x="0px" y="0px"
	 width="22" height="21" viewBox="0 0 22 21" style="enable-background:new 0 0 22 21;" xml:space="preserve">
<style type="text/css">
	.st0{fill:#2DBC56;}
</style>
<g>
	<path class="st0" d="M20.5,21H1.5c-0.8,0-1.4-0.6-1.4-1.4v-9.1c0-0.8,0.6-1.4,1.4-1.4h18.9c0.8,0,1.4,0.6,1.4,1.4v9.1
		C21.9,20.4,21.2,21,20.5,21z M1.5,10.4c-0.1,0-0.1,0-0.1,0.1v9.1c0,0.1,0,0.1,0.1,0.1h18.9c0.1,0,0.1,0,0.1-0.1v-9.1
		c0-0.1,0-0.1-0.1-0.1H1.5z"/>
	<path class="st0" d="M3,13.4c-0.1,0-0.2,0-0.3-0.1s-0.1-0.1-0.2-0.1c-0.1-0.1-0.1-0.1-0.1-0.2c0-0.1-0.1-0.2-0.1-0.2
		c0-0.1,0-0.2,0.1-0.2c0-0.1,0.1-0.2,0.1-0.2c0.1-0.1,0.1-0.1,0.2-0.1c0.2-0.1,0.5,0,0.7,0.1c0.1,0.1,0.2,0.3,0.2,0.5
		c0,0.2-0.1,0.3-0.2,0.5c-0.1,0.1-0.1,0.1-0.2,0.1C3.2,13.4,3.1,13.4,3,13.4z"/>
	<path class="st0" d="M5.3,13.4c-0.1,0-0.2,0-0.2-0.1c-0.1,0-0.1-0.1-0.2-0.1c-0.1-0.1-0.1-0.1-0.1-0.2c0-0.1-0.1-0.2-0.1-0.2
		c0-0.1,0-0.2,0.1-0.2c0-0.1,0.1-0.2,0.1-0.2c0.2-0.2,0.5-0.2,0.7-0.1c0.1,0,0.2,0.1,0.2,0.1C5.9,12.4,6,12.6,6,12.8
		c0,0.2-0.1,0.3-0.2,0.5c-0.1,0.1-0.1,0.1-0.2,0.1C5.5,13.4,5.4,13.4,5.3,13.4z"/>
	<path class="st0" d="M7.6,13.4c-0.1,0-0.2,0-0.2,0c-0.1,0-0.2-0.1-0.2-0.1c-0.1-0.1-0.2-0.3-0.2-0.5s0.1-0.3,0.2-0.5
		c0.2-0.2,0.5-0.2,0.7-0.1c0.1,0,0.2,0.1,0.2,0.1c0,0,0.1,0.1,0.1,0.1c0,0,0,0.1,0.1,0.1c0,0,0,0.1,0,0.1c0,0,0,0.1,0,0.1
		c0,0.2-0.1,0.3-0.2,0.5C7.9,13.4,7.8,13.4,7.6,13.4z"/>
	<path class="st0" d="M9.9,13.4c-0.1,0-0.2,0-0.2-0.1s-0.2-0.1-0.2-0.1c-0.1-0.1-0.2-0.3-0.2-0.5c0-0.1,0-0.2,0.1-0.2
		c0-0.1,0.1-0.2,0.1-0.2c0.2-0.2,0.7-0.2,0.9,0c0.1,0.1,0.1,0.1,0.1,0.2c0,0.1,0.1,0.2,0.1,0.2c0,0.2-0.1,0.3-0.2,0.5
		c-0.1,0.1-0.1,0.1-0.2,0.1S10,13.4,9.9,13.4z"/>
	<path class="st0" d="M12.1,13.4c-0.1,0-0.2,0-0.2-0.1c-0.1,0-0.1-0.1-0.2-0.1c-0.1-0.1-0.1-0.1-0.1-0.2c0-0.1-0.1-0.2-0.1-0.2
		c0,0,0-0.1,0-0.1c0,0,0-0.1,0-0.1c0,0,0-0.1,0.1-0.1c0,0,0.1-0.1,0.1-0.1c0.2-0.2,0.5-0.2,0.7-0.1c0.1,0,0.2,0.1,0.2,0.1
		c0.1,0.1,0.2,0.3,0.2,0.5c0,0.1,0,0.2,0,0.2c0,0.1-0.1,0.2-0.1,0.2c-0.1,0.1-0.1,0.1-0.2,0.1S12.2,13.4,12.1,13.4z"/>
	<path class="st0" d="M14.4,13.4c-0.1,0-0.2,0-0.2-0.1S14,13.3,14,13.2c-0.1-0.1-0.1-0.1-0.1-0.2c0-0.1-0.1-0.2-0.1-0.2
		c0-0.1,0-0.2,0.1-0.2c0-0.1,0.1-0.2,0.1-0.2c0.2-0.2,0.7-0.2,0.9,0c0.1,0.1,0.1,0.1,0.1,0.2c0,0.1,0,0.2,0,0.2c0,0.1,0,0.2,0,0.2
		c0,0.1-0.1,0.2-0.1,0.2C14.7,13.4,14.6,13.4,14.4,13.4z"/>
	<path class="st0" d="M16.7,13.4c-0.2,0-0.3-0.1-0.5-0.2c-0.1-0.1-0.1-0.1-0.1-0.2c0-0.1,0-0.2,0-0.2c0-0.1,0-0.2,0-0.2
		c0-0.1,0.1-0.2,0.1-0.2c0,0,0.1-0.1,0.1-0.1c0,0,0.1,0,0.1-0.1c0,0,0.1,0,0.1,0c0.1,0,0.2,0,0.3,0c0,0,0.1,0,0.1,0
		c0,0,0.1,0,0.1,0.1c0,0,0.1,0.1,0.1,0.1c0.1,0.1,0.2,0.3,0.2,0.5c0,0.1,0,0.2-0.1,0.2c0,0.1-0.1,0.2-0.1,0.2
		C17,13.4,16.9,13.4,16.7,13.4z"/>
	<path class="st0" d="M19,13.4c-0.1,0-0.2,0-0.3-0.1c-0.1,0-0.2-0.1-0.2-0.1c-0.1-0.1-0.1-0.1-0.1-0.2c0-0.1,0-0.2,0-0.2
		c0-0.1,0-0.2,0-0.2c0-0.1,0.1-0.2,0.1-0.2c0.2-0.2,0.4-0.2,0.6-0.2c0,0,0.1,0,0.1,0c0,0,0.1,0,0.1,0.1c0,0,0.1,0.1,0.1,0.1
		c0.1,0.1,0.1,0.1,0.1,0.2c0,0.1,0.1,0.2,0.1,0.2c0,0.1,0,0.2-0.1,0.2c0,0.1-0.1,0.2-0.1,0.2C19.3,13.4,19.1,13.4,19,13.4z"/>
	<path class="st0" d="M5.3,15.7c-0.1,0-0.2,0-0.2-0.1c-0.1,0-0.2-0.1-0.2-0.1c-0.1-0.1-0.1-0.1-0.1-0.2c0-0.1-0.1-0.2-0.1-0.2
		c0-0.1,0-0.2,0.1-0.2c0-0.1,0.1-0.2,0.1-0.2c0.2-0.2,0.5-0.2,0.7-0.1c0.1,0,0.2,0.1,0.2,0.1c0.1,0.1,0.1,0.1,0.1,0.2
		C6,14.9,6,15,6,15c0,0.1,0,0.2-0.1,0.2c0,0.1-0.1,0.1-0.1,0.2c-0.1,0.1-0.1,0.1-0.2,0.1C5.5,15.7,5.4,15.7,5.3,15.7z"/>
	<path class="st0" d="M3,15.7c-0.1,0-0.2,0-0.3,0s-0.1-0.1-0.2-0.1c-0.1-0.1-0.1-0.1-0.1-0.2c0-0.1-0.1-0.2-0.1-0.2
		c0-0.1,0-0.2,0.1-0.2c0-0.1,0.1-0.2,0.1-0.2c0.1-0.1,0.1-0.1,0.2-0.1c0.2-0.1,0.5,0,0.7,0.1c0.1,0.1,0.2,0.3,0.2,0.5
		c0,0.1,0,0.2-0.1,0.2c0,0.1-0.1,0.1-0.1,0.2c-0.1,0.1-0.1,0.1-0.2,0.1C3.2,15.7,3.1,15.7,3,15.7z"/>
	<path class="st0" d="M7.6,15.7c-0.1,0-0.2,0-0.2-0.1c-0.1,0-0.2-0.1-0.2-0.1C7.1,15.4,7,15.4,7,15.3c0-0.1-0.1-0.2-0.1-0.2
		c0-0.1,0-0.2,0.1-0.2c0-0.1,0.1-0.2,0.1-0.2c0.2-0.2,0.5-0.2,0.7-0.1c0.1,0,0.2,0.1,0.2,0.1c0.1,0.1,0.2,0.3,0.2,0.5
		c0,0.1,0,0.2-0.1,0.2s-0.1,0.1-0.1,0.2C7.9,15.6,7.8,15.7,7.6,15.7z"/>
	<path class="st0" d="M9.9,15.7c-0.1,0-0.2,0-0.2,0s-0.2-0.1-0.2-0.1c-0.1-0.1-0.2-0.3-0.2-0.5c0-0.1,0-0.2,0.1-0.2
		c0-0.1,0.1-0.2,0.1-0.2c0.2-0.2,0.7-0.2,0.9,0c0.1,0.1,0.2,0.3,0.2,0.5c0,0.2-0.1,0.3-0.2,0.5C10.2,15.6,10,15.7,9.9,15.7z"/>
	<path class="st0" d="M12.1,15.7c-0.1,0-0.2,0-0.2,0c-0.1,0-0.1-0.1-0.2-0.1c-0.1-0.1-0.2-0.3-0.2-0.5c0-0.2,0.1-0.3,0.2-0.5
		c0.2-0.2,0.7-0.2,0.9,0c0.1,0.1,0.2,0.3,0.2,0.5c0,0.2-0.1,0.3-0.2,0.5c-0.1,0.1-0.1,0.1-0.2,0.1S12.2,15.7,12.1,15.7z"/>
	<path class="st0" d="M14.4,15.7c-0.1,0-0.2,0-0.2,0c-0.1,0-0.1-0.1-0.2-0.1c-0.1-0.1-0.1-0.1-0.1-0.2s-0.1-0.2-0.1-0.2
		c0-0.1,0-0.2,0.1-0.2c0-0.1,0.1-0.2,0.1-0.2c0.2-0.2,0.7-0.2,0.9,0c0.1,0.1,0.1,0.1,0.1,0.2c0,0.1,0,0.2,0,0.2c0,0.1,0,0.2,0,0.2
		c0,0.1-0.1,0.1-0.1,0.2C14.7,15.6,14.6,15.7,14.4,15.7z"/>
	<path class="st0" d="M16.7,15.7c-0.2,0-0.3-0.1-0.5-0.2c-0.1-0.1-0.1-0.1-0.1-0.2c0-0.1,0-0.2,0-0.2c0-0.2,0.1-0.3,0.2-0.5
		c0.2-0.2,0.4-0.2,0.6-0.2c0,0,0.1,0,0.1,0c0,0,0.1,0,0.1,0.1c0,0,0.1,0.1,0.1,0.1c0.1,0.1,0.2,0.3,0.2,0.5c0,0.2-0.1,0.3-0.2,0.5
		C17,15.6,16.9,15.7,16.7,15.7z"/>
	<path class="st0" d="M19,15.7c-0.1,0-0.2,0-0.3,0c-0.1,0-0.2-0.1-0.2-0.1c-0.1-0.1-0.1-0.1-0.1-0.2c0-0.1,0-0.2,0-0.2
		c0-0.2,0.1-0.3,0.2-0.5c0.2-0.2,0.4-0.2,0.6-0.2c0,0,0.1,0,0.1,0c0,0,0.1,0,0.1,0.1c0,0,0.1,0.1,0.1,0.1c0.1,0.1,0.2,0.3,0.2,0.5
		c0,0.1,0,0.2-0.1,0.2c0,0.1-0.1,0.1-0.1,0.2C19.3,15.6,19.1,15.7,19,15.7z"/>
	<path class="st0" d="M3,18c-0.1,0-0.2,0-0.3,0c-0.1,0-0.1-0.1-0.2-0.1c-0.1-0.1-0.2-0.3-0.2-0.5c0-0.1,0-0.2,0.1-0.2
		c0-0.1,0.1-0.1,0.1-0.2c0.1-0.1,0.1-0.1,0.2-0.1c0.2-0.1,0.5,0,0.7,0.1c0.1,0.1,0.1,0.1,0.1,0.2c0,0.1,0.1,0.2,0.1,0.2
		c0,0.2-0.1,0.3-0.2,0.5c-0.1,0.1-0.1,0.1-0.2,0.1C3.2,18,3.1,18,3,18z"/>
	<path class="st0" d="M5.3,18c-0.1,0-0.2,0-0.2,0c-0.1,0-0.2-0.1-0.2-0.1c-0.1-0.1-0.1-0.1-0.1-0.2s-0.1-0.2-0.1-0.3
		c0-0.1,0-0.2,0.1-0.2c0-0.1,0.1-0.1,0.1-0.2c0.2-0.2,0.5-0.2,0.7-0.1c0.1,0,0.2,0.1,0.2,0.1c0.1,0.1,0.1,0.1,0.1,0.2
		C6,17.1,6,17.2,6,17.3c0,0.1,0,0.2-0.1,0.3c0,0.1-0.1,0.1-0.1,0.2c-0.1,0.1-0.1,0.1-0.2,0.1C5.5,18,5.4,18,5.3,18z"/>
	<path class="st0" d="M14.4,18H7.6c-0.4,0-0.7-0.3-0.7-0.7s0.3-0.7,0.7-0.7h6.8c0.4,0,0.7,0.3,0.7,0.7S14.8,18,14.4,18z"/>
	<path class="st0" d="M10.6,10.4c-0.4,0-0.7-0.3-0.7-0.7v-3c0-1.2,1-2.2,2.2-2.2h2.3c0.5,0,0.9-0.4,0.9-0.9v-3
		c0-0.4,0.3-0.7,0.7-0.7c0.4,0,0.7,0.3,0.7,0.7v3c0,1.2-1,2.2-2.2,2.2h-2.3c-0.5,0-0.9,0.4-0.9,0.9v3C11.3,10.1,11,10.4,10.6,10.4z"
		/>
	<path class="st0" d="M16.7,18c-0.1,0-0.2,0-0.3,0c-0.1,0-0.2-0.1-0.2-0.1c-0.1-0.1-0.2-0.3-0.2-0.5c0-0.2,0.1-0.3,0.2-0.5
		c0.2-0.2,0.4-0.2,0.6-0.2c0,0,0.1,0,0.1,0c0,0,0.1,0,0.1,0.1c0,0,0.1,0.1,0.1,0.1c0.1,0.1,0.2,0.3,0.2,0.5c0,0.1,0,0.2-0.1,0.3
		c0,0.1-0.1,0.1-0.1,0.2C17,17.9,16.9,18,16.7,18z"/>
	<path class="st0" d="M19,18c-0.1,0-0.2,0-0.3,0c-0.1,0-0.2-0.1-0.2-0.1c-0.1-0.1-0.1-0.1-0.1-0.2c0-0.1,0-0.2,0-0.3
		c0-0.1,0-0.2,0-0.2c0-0.1,0.1-0.1,0.1-0.2c0.2-0.2,0.4-0.2,0.6-0.2c0,0,0.1,0,0.1,0c0,0,0.1,0,0.1,0.1c0,0,0.1,0.1,0.1,0.1
		c0.1,0.1,0.1,0.1,0.1,0.2c0,0.1,0.1,0.2,0.1,0.2c0,0.1,0,0.2-0.1,0.3c0,0.1-0.1,0.1-0.1,0.2C19.3,17.9,19.1,18,19,18z"/>
</g>
</svg>
