<?xml version="1.0" encoding="utf-8"?>
<!-- Generator: Adobe Illustrator 19.2.1, SVG Export Plug-In . SVG Version: 6.00 Build 0)  -->
<svg version="1.1" id="Layer_1" xmlns="http://www.w3.org/2000/svg" xmlns:xlink="http://www.w3.org/1999/xlink" x="0px" y="0px"
	 width="34px" height="33px" viewBox="0 0 34 33" style="enable-background:new 0 0 34 33;" xml:space="preserve">
<style type="text/css">
	.st0{fill:#4FAF4F;}
</style>
<g>
	<path class="st0" d="M24.2,13.5h-1.5c-0.4,0-0.8-0.3-0.8-0.8c0-0.4-0.3-0.7-0.7-0.7s-0.7,0.3-0.7,0.7c0,1.2,1,2.3,2.3,2.3h0.1v0.9
		c0,0.4,0.3,0.7,0.7,0.7s0.7-0.3,0.7-0.7V15c1.3,0,2.4-1.1,2.4-2.4v-0.8c0-1.3-1.1-2.4-2.4-2.4h-0.5h-0.3h-0.5
		c-0.5,0-0.9-0.4-0.9-0.9V7.6c0-0.5,0.4-0.9,0.9-0.9h1.5c0.4,0,0.8,0.3,0.8,0.8c0,0.4,0.3,0.7,0.7,0.7s0.7-0.3,0.7-0.7
		c0-1.2-1-2.3-2.3-2.3h-0.1V4.3c0-0.4-0.3-0.7-0.7-0.7s-0.7,0.3-0.7,0.7v0.9c-1.3,0-2.4,1.1-2.4,2.4v0.8c0,1.3,1.1,2.4,2.4,2.4h0.5
		h0.3h0.5c0.5,0,0.9,0.4,0.9,0.9v0.8C25.2,13.1,24.7,13.5,24.2,13.5z"/>
	<path class="st0" d="M23.5,20.2c5.6,0,10.1-4.5,10.1-10.1S29.1,0,23.5,0S13.4,4.5,13.4,10.1S18,20.2,23.5,20.2z M23.5,1.5
		c4.7,0,8.6,3.9,8.6,8.6s-3.9,8.6-8.6,8.6c-4.7,0-8.6-3.9-8.6-8.6S18.8,1.5,23.5,1.5z"/>
	<g>
		<path class="st0" d="M27.3,33H2.6c-1.2,0-2.2-1-2.2-2.2V13.3c0-1.2,1-2.2,2.2-2.2h7.5c0.4,0,0.7,0.3,0.7,0.7s-0.3,0.7-0.7,0.7H2.6
			c-0.4,0-0.7,0.3-0.7,0.7v17.5c0,0.4,0.3,0.7,0.7,0.7h24.8c0.4,0,0.7-0.3,0.7-0.7v-8.2c0-0.4,0.3-0.7,0.7-0.7s0.7,0.3,0.7,0.7v8.2
			C29.5,32,28.5,33,27.3,33z"/>
		<path class="st0" d="M12.3,18.4H1.1c-0.4,0-0.7-0.3-0.7-0.7c0-0.4,0.3-0.7,0.7-0.7h11.2c0.4,0,0.7,0.3,0.7,0.7
			C13,18.1,12.7,18.4,12.3,18.4z"/>
		<path class="st0" d="M25.9,30.1h-4.4c-0.4,0-0.7-0.3-0.7-0.7v-2.9c0-0.4,0.3-0.7,0.7-0.7h4.4c0.4,0,0.7,0.3,0.7,0.7v2.9
			C26.6,29.8,26.3,30.1,25.9,30.1z M22.2,28.6h2.9v-1.4h-2.9V28.6z"/>
	</g>
</g>
</svg>
