<?xml version="1.0" encoding="utf-8"?>
<!-- Generator: Adobe Illustrator 19.2.1, SVG Export Plug-In . SVG Version: 6.00 Build 0)  -->
<svg version="1.1" id="Layer_1" xmlns="http://www.w3.org/2000/svg" xmlns:xlink="http://www.w3.org/1999/xlink" x="0px" y="0px"
	 width="24" height="22" viewBox="0 0 24 22" style="enable-background:new 0 0 24 22;" xml:space="preserve">
<style type="text/css">
	.st0{fill:#2DBC56;}
</style>
<g>
	<path class="st0" d="M18.1,4.4h-3.8c-0.4,0-0.7-0.3-0.7-0.7s0.3-0.7,0.7-0.7h3.8c0.4,0,0.7,0.3,0.7,0.7S18.4,4.4,18.1,4.4z"/>
	<path class="st0" d="M9.7,4.4H5.9c-0.4,0-0.7-0.3-0.7-0.7s0.3-0.7,0.7-0.7h3.8c0.4,0,0.7,0.3,0.7,0.7S10.1,4.4,9.7,4.4z"/>
	<path class="st0" d="M12,2.5c-0.4,0-0.7-0.3-0.7-0.7V0.7c0-0.4,0.3-0.7,0.7-0.7s0.7,0.3,0.7,0.7v1.1C12.7,2.2,12.4,2.5,12,2.5z"/>
	<path class="st0" d="M12,21.9c-0.4,0-0.7-0.3-0.7-0.7V5.7C11.3,5.3,11.6,5,12,5s0.7,0.3,0.7,0.7v15.6C12.7,21.6,12.4,21.9,12,21.9z
		"/>
	<path class="st0" d="M15.4,21.9H8.6c-0.4,0-0.7-0.3-0.7-0.7s0.3-0.7,0.7-0.7h6.9c0.4,0,0.7,0.3,0.7,0.7S15.8,21.9,15.4,21.9z"/>
	<path class="st0" d="M9.3,15.5H1c-0.4,0-0.7-0.3-0.7-0.7s0.3-0.7,0.7-0.7h8.4c0.4,0,0.7,0.3,0.7,0.7S9.7,15.5,9.3,15.5z"/>
	<path class="st0" d="M12,6.3c-1.4,0-2.6-1.1-2.6-2.6c0-1.4,1.1-2.6,2.6-2.6c1.4,0,2.6,1.1,2.6,2.6C14.6,5.2,13.4,6.3,12,6.3z
		 M12,2.5c-0.7,0-1.2,0.6-1.2,1.2C10.7,4.5,11.3,5,12,5c0.7,0,1.2-0.6,1.2-1.2C13.2,3.1,12.7,2.5,12,2.5z"/>
	<path class="st0" d="M5.1,19.6c-2.7,0-4.8-2.2-4.8-4.8c0-0.4,0.3-0.7,0.7-0.7s0.7,0.3,0.7,0.7c0,1.9,1.6,3.5,3.5,3.5
		s3.5-1.6,3.5-3.5c0-0.4,0.3-0.7,0.7-0.7s0.7,0.3,0.7,0.7C10,17.5,7.8,19.6,5.1,19.6z"/>
	<path class="st0" d="M5.1,5.2c-0.8,0-1.4-0.6-1.4-1.4s0.6-1.4,1.4-1.4S6.6,3,6.6,3.8S5.9,5.2,5.1,5.2z M5.1,3.7
		C5.1,3.7,5,3.7,5,3.8c0,0.1,0.2,0.1,0.2,0C5.3,3.7,5.2,3.7,5.1,3.7z"/>
	<path class="st0" d="M18.8,5.2c-0.8,0-1.4-0.6-1.4-1.4s0.6-1.4,1.4-1.4c0.8,0,1.4,0.6,1.4,1.4S19.6,5.2,18.8,5.2z M18.8,3.7
		c-0.1,0-0.1,0-0.1,0.1c0,0.1,0.2,0.1,0.2,0C19,3.7,18.9,3.7,18.8,3.7z"/>
	<path class="st0" d="M9.3,15.5c-0.3,0-0.5-0.2-0.6-0.4L5.1,6.3L1.6,15c-0.1,0.3-0.5,0.5-0.9,0.4c-0.3-0.1-0.5-0.5-0.4-0.9L4.5,4.3
		C4.6,4,4.9,3.9,5.1,3.9S5.7,4,5.8,4.3l4.2,10.3c0.1,0.3,0,0.7-0.4,0.9C9.5,15.4,9.4,15.5,9.3,15.5z"/>
	<path class="st0" d="M23,15.5h-8.4c-0.4,0-0.7-0.3-0.7-0.7s0.3-0.7,0.7-0.7H23c0.4,0,0.7,0.3,0.7,0.7S23.4,15.5,23,15.5z"/>
	<path class="st0" d="M18.9,19.6c-2.7,0-4.8-2.2-4.8-4.8c0-0.4,0.3-0.7,0.7-0.7s0.7,0.3,0.7,0.7c0,1.9,1.6,3.5,3.5,3.5
		s3.5-1.6,3.5-3.5c0-0.4,0.3-0.7,0.7-0.7c0.4,0,0.7,0.3,0.7,0.7C23.7,17.5,21.5,19.6,18.9,19.6z"/>
	<path class="st0" d="M23,15.5c-0.3,0-0.5-0.2-0.6-0.4l-3.6-8.8L15.3,15c-0.1,0.3-0.5,0.5-0.9,0.4c-0.3-0.1-0.5-0.5-0.4-0.9
		l4.2-10.3c0.1-0.2,0.3-0.4,0.6-0.4c0.3,0,0.5,0.2,0.6,0.4l4.2,10.3c0.1,0.3,0,0.7-0.4,0.9C23.2,15.4,23.1,15.5,23,15.5z"/>
	<path class="st0" d="M5.1,18.1c-1.3,0-2.4-0.7-3-1.9c-0.2-0.3,0-0.7,0.3-0.9c0.3-0.2,0.7,0,0.9,0.3c0.3,0.7,1,1.2,1.8,1.2
		c0.4,0,0.7,0.3,0.7,0.7C5.8,17.8,5.5,18.1,5.1,18.1z"/>
	<path class="st0" d="M18.8,18.1c-1.3,0-2.4-0.7-3-1.9c-0.2-0.3,0-0.7,0.3-0.9c0.3-0.2,0.7,0,0.9,0.3c0.3,0.7,1,1.2,1.8,1.2
		c0.4,0,0.7,0.3,0.7,0.7C19.5,17.8,19.2,18.1,18.8,18.1z"/>
</g>
</svg>
