<?xml version="1.0" encoding="utf-8"?>
<!-- Generator: Adobe Illustrator 19.2.1, SVG Export Plug-In . SVG Version: 6.00 Build 0)  -->
<svg version="1.1" id="Layer_1" xmlns="http://www.w3.org/2000/svg" xmlns:xlink="http://www.w3.org/1999/xlink" x="0px" y="0px"
	 width="13" height="22" viewBox="0 0 13 22" style="enable-background:new 0 0 13 22;" xml:space="preserve">
<style type="text/css">
	.st0{fill:#2DBC56;}
</style>
<g>
	<path class="st0" d="M9,11c-0.2,0-0.3-0.1-0.5-0.2c-0.2-0.3-0.2-0.6,0.1-0.9c0.7-0.6,1.3-1.6,1.5-2.6c0.1-0.3,0.4-0.6,0.7-0.5
		c0.3,0.1,0.5,0.4,0.5,0.7c-0.3,1.3-0.9,2.5-1.9,3.3C9.3,11,9.1,11,9,11z"/>
	<path class="st0" d="M2.3,8.1C2,8.1,1.8,7.9,1.7,7.6C1.7,7.4,1.6,7.1,1.6,6.8c0-0.3,0.2-0.6,0.6-0.7c0.3,0,0.6,0.2,0.7,0.6
		c0,0.2,0.1,0.4,0.1,0.6C3,7.7,2.8,8,2.5,8.1C2.4,8.1,2.4,8.1,2.3,8.1z"/>
	<path class="st0" d="M2.3,5.9C2.2,5.9,2.2,5.9,2.3,5.9c-0.4,0-0.6-0.3-0.6-0.7C1.8,3.9,2,2.7,2.3,1.9C2.3,1.6,2.7,1.4,3,1.5
		c0.3,0.1,0.5,0.4,0.4,0.8C3.2,3,3,4.1,2.9,5.3C2.8,5.6,2.6,5.9,2.3,5.9z"/>
	<path class="st0" d="M6.9,13.4c-0.3,0-0.6-0.3-0.6-0.6c0-0.3,0.2-0.6,0.6-0.6c0.5,0,1-0.1,1.5-0.4c0.3-0.1,0.7,0,0.8,0.3
		c0.1,0.3,0,0.7-0.3,0.8C8.2,13.2,7.6,13.4,6.9,13.4C6.9,13.4,6.9,13.4,6.9,13.4z M5.6,13.3C5.6,13.3,5.6,13.3,5.6,13.3
		c-0.6-0.1-1.1-0.2-1.5-0.4c-0.3-0.1-0.4-0.5-0.3-0.8c0.1-0.3,0.5-0.4,0.8-0.3c0.4,0.2,0.7,0.3,1.1,0.3c0.3,0.1,0.6,0.4,0.5,0.7
		C6.2,13.1,5.9,13.3,5.6,13.3z"/>
	<path class="st0" d="M10.1,22c-1.9,0-3.5-1.6-3.5-3.5v-4c0-1.2,0.7-2.3,1.8-2.8c1.9-0.9,3.2-3,3.2-5.3c0-2.2-0.6-4.4-0.8-5.2H4.4
		C4,1.2,3.7,1,3.7,0.6S4,0,4.4,0h6.9c0.3,0,0.5,0.2,0.6,0.4c0,0.1,1,3,1,6.1c0,2.7-1.6,5.3-3.9,6.4c-0.7,0.3-1.1,0.9-1.1,1.6v4
		c0,1.2,1,2.2,2.2,2.2c0.3,0,0.6,0.3,0.6,0.6S10.4,22,10.1,22z"/>
	<path class="st0" d="M2.9,22c-0.3,0-0.6-0.3-0.6-0.6s0.3-0.6,0.6-0.6c1.2,0,2.2-1,2.2-2.2v-4c0-0.7-0.4-1.3-1.1-1.6
		c-2.3-1.1-3.9-3.7-3.9-6.4c0-3,1-5.9,1-6.1C1.3,0.2,1.5,0,1.8,0h0.8c0.3,0,0.6,0.3,0.6,0.6S2.9,1.2,2.6,1.2H2.2
		C2,2.1,1.4,4.3,1.4,6.5c0,2.2,1.3,4.4,3.2,5.3c1.1,0.5,1.8,1.6,1.8,2.8v4C6.4,20.4,4.8,22,2.9,22z"/>
	<path class="st0" d="M4.5,6.5c-0.5,0-1-0.1-1.4-0.2l-2-0.7C1,5.6,0.9,5.5,0.8,5.5C0.5,5.5,0.2,5.1,0.3,4.8C0.4,4.5,0.7,4.3,1,4.3
		c0.2,0,0.3,0.1,0.5,0.1l2,0.7c0.6,0.2,1.4,0.2,2,0l2-0.7c0.8-0.3,1.9-0.3,2.8,0l2,0.7c0.3,0.1,0.5,0.5,0.4,0.8
		c-0.1,0.3-0.5,0.5-0.8,0.4l-2-0.7c-0.6-0.2-1.4-0.2-2,0l-2,0.7C5.5,6.5,5,6.5,4.5,6.5z"/>
</g>
</svg>
