<?xml version="1.0" encoding="utf-8"?>
<!-- Generator: Adobe Illustrator 19.2.1, SVG Export Plug-In . SVG Version: 6.00 Build 0)  -->
<svg version="1.1" id="Layer_1" xmlns="http://www.w3.org/2000/svg" xmlns:xlink="http://www.w3.org/1999/xlink" x="0px" y="0px"
	 width="24" height="24" viewBox="0 0 24 24" style="enable-background:new 0 0 24 24;" xml:space="preserve">
<g>
	<path class="st0" d="M12,12.7c-2.9,0-5.2-2.4-5.2-5.2V4.9c0-2.4,2-4.4,4.4-4.4h1.7c2.4,0,4.4,2,4.4,4.4v2.5
		C17.2,10.3,14.9,12.7,12,12.7z M11.2,2.8c-1.2,0-2.1,0.9-2.1,2.1v2.5c0,1.6,1.3,2.9,2.9,2.9s2.9-1.3,2.9-2.9V4.9
		c0-1.2-0.9-2.1-2.1-2.1H11.2z" fill="#4FAF4F"/>
	<path class="st0" d="M12,23.5C8.4,23.5,4.9,23,1.5,22L0,21.6L0.1,20c0.3-4.1,3.2-7.1,7.5-7.8c0.1,0,0.3,0,0.4,0
		c1,0,1.9,0.6,2.4,1.5c0.2,0.4,0.7,1.1,1.5,1.1c0.9,0,1.3-0.7,1.5-1.1c0.5-1,1.6-1.6,2.8-1.4c4.3,0.7,7.2,3.7,7.5,7.8l0.1,1.6
		L22.5,22C19.1,23,15.6,23.5,12,23.5z M2.5,19.9c6.2,1.7,12.9,1.7,19.1,0C21.2,17,19.1,15,16,14.5c0,0,0,0-0.1,0
		c-0.1,0-0.2,0.1-0.3,0.2c-0.8,1.5-2.1,2.4-3.6,2.4s-2.8-0.9-3.6-2.4c-0.1-0.1-0.2-0.2-0.4-0.2C4.9,15,2.8,17,2.5,19.9z" fill="#4FAF4F"/>
</g>
</svg>
