<?xml version="1.0" encoding="utf-8"?>
<!-- Generator: Adobe Illustrator 19.2.1, SVG Export Plug-In . SVG Version: 6.00 Build 0)  -->
<svg version="1.1" id="Слой_1" xmlns="http://www.w3.org/2000/svg" xmlns:xlink="http://www.w3.org/1999/xlink" x="0px" y="0px"
	 width="60px" height="60px" viewBox="0 0 60 60" style="enable-background:new 0 0 60 60;" xml:space="preserve">
<style type="text/css">
	.st0{fill:#51AF4D;}
	.st1{fill:#C8E5C8;}
	.st2{fill:#76C076;}
</style>
<g>
	<path class="st0" d="M33.5,1.4c1,0.3,2,0.4,2.9,0.9c3.1,1.6,4.9,4.2,5.1,7.7c0.1,3.1,0.1,6.3,0,9.4c0,1.3-0.5,2.4-1.5,3.3
		c-0.2,0.2-0.3,0.4-0.3,0.7c0,2.2,0,4.4,0,6.5c0,0.4,0.2,0.6,0.5,0.8c4,2.1,7.8,4.5,11.3,7.3c1.4,1.1,2.3,2.3,2.5,4.1
		c0,0,0.1,0.1,0.1,0.1c0,0.1,0,0.2,0,0.2C54,42.7,54,42.9,54,43.1c0,1.9,0,3.8,0,5.7c-0.2,0.7-0.6,1-1.2,0.9c-0.6-0.1-1-0.5-1-1.3
		c0-1.8,0-3.6,0-5.3c0-1.4-0.5-2.5-1.6-3.3c-3.6-2.8-7.4-5.2-11.4-7.3c-0.9-0.5-1.3-1.1-1.3-2.1c0.1-2.6,0-5.1,0-7.7
		c0-0.6,0.2-1,0.6-1.3c0.8-0.6,1.2-1.5,1.2-2.5c0-2.8,0-5.6,0-8.5c0-4-3-6.9-7-6.9c-1.2,0-2.5-0.1-3.7,0.3c-2.8,0.8-4.8,3.3-4.9,6.2
		c-0.1,3,0,6,0,9c0,0.9,0.4,1.8,1.1,2.3c0.5,0.4,0.6,0.8,0.6,1.4c0,2.6,0,5.2,0,7.7c0,0.9-0.3,1.5-1.2,1.9
		c-4.2,2.1-8.1,4.6-11.7,7.5c-0.9,0.8-1.4,1.7-1.4,2.9c0,1.9,0,3.7,0,5.6c0,0.9-0.5,1.3-1.2,1.3c-0.6,0-0.9-0.4-1-0.9
		c-0.1-1.6,0-3.1,0-4.7C9,43.5,9.1,43,9,42.5c0-0.1,0-0.2,0-0.3c0.2-0.1,0.1-0.3,0.2-0.5c0.3-1.3,0.9-2.3,1.9-3.2
		c2.4-2,5-3.8,7.7-5.4c1.4-0.8,2.7-1.6,4.1-2.3c0.3-0.2,0.4-0.4,0.4-0.7c0-2.2,0-4.4,0-6.6c0-0.3-0.1-0.5-0.3-0.7
		c-1-1-1.5-2.1-1.5-3.5c0-3,0-6,0-8.9c0.1-4.5,3.3-8.2,7.8-8.8c0.1,0,0.1-0.1,0.2-0.1c0,0,0.1,0,0.1,0c0.2,0.1,0.5,0.1,0.7,0
		c0.8,0,1.5,0,2.3,0c0.2,0.1,0.5,0.1,0.7,0C33.4,1.4,33.4,1.4,33.5,1.4z"/>
	<path class="st1" d="M9,42.5c0.2,0.1,0.1,0.2,0.1,0.3"/>
	<path class="st1" d="M9.1,48.8"/>
	<path class="st2" d="M30.4,1.4c-0.2,0.2-0.5,0.2-0.7,0C29.9,1.4,30.2,1.4,30.4,1.4z"/>
	<path class="st2" d="M33.4,1.4c-0.2,0.2-0.5,0.2-0.7,0C32.9,1.4,33.1,1.4,33.4,1.4z"/>
	<path class="st0" d="M31.1,60c-1-0.9-2-1.8-3-2.7c-0.4-0.3-0.5-0.8-0.5-1.3c0.2-5,0.4-10,0.7-15c0.1-1.5,0.1-3.1,0.2-4.6
		c0-0.3,0-0.6-0.2-0.9c-0.4-0.6-0.6-1.2-0.7-1.9c-0.1-0.7,0.4-1.2,1-1.3c0.6-0.1,1.1,0.4,1.2,1.1c0.1,1.1,0.9,1.9,1.8,1.8
		c1,0,1.7-0.7,1.8-1.8c0.1-0.7,0.6-1.2,1.2-1.1c0.6,0.1,1,0.6,0.9,1.3c-0.1,0.8-0.3,1.5-0.8,2.2c-0.2,0.2-0.2,0.4-0.2,0.6
		c0.2,4.2,0.4,8.4,0.6,12.6c0.1,2.4,0.2,4.7,0.3,7.1c0,0.5-0.1,0.9-0.5,1.2c-0.9,0.8-1.7,1.5-2.6,2.3c-0.2,0.2-0.4,0.3-0.7,0.4
		C31.5,60,31.3,60,31.1,60z M30.2,46.7c-0.1,2.7-0.2,5.5-0.4,8.2c-0.1,0.8,0.2,1.3,0.8,1.8c0.9,0.7,0.9,0.8,1.7,0
		c0.2-0.2,0.4-0.4,0.6-0.5c0.2-0.2,0.3-0.4,0.3-0.7c-0.3-5.7-0.5-11.3-0.8-17c0-1.1,0-1.1-1.1-1.1c-0.1,0-0.2,0-0.3,0
		c-0.4-0.1-0.5,0.1-0.6,0.5C30.4,40.8,30.3,43.7,30.2,46.7C30.2,46.7,30.2,46.7,30.2,46.7z"/>
</g>
</svg>
