<?xml version="1.0" encoding="utf-8"?>
<!-- Generator: Adobe Illustrator 19.2.1, SVG Export Plug-In . SVG Version: 6.00 Build 0)  -->
<svg version="1.1" id="Слой_1" xmlns="http://www.w3.org/2000/svg" xmlns:xlink="http://www.w3.org/1999/xlink" x="0px" y="0px"
	 width="60px" height="60px" viewBox="0 0 60 60" style="enable-background:new 0 0 60 60;" xml:space="preserve">
<style type="text/css">
	.st0{fill:#51AF4D;}
</style>
<path class="st0" d="M1.1,27.7c0.3-0.6,0.2-1.2,0.3-1.9C2.4,19,5.5,13.2,10.6,8.4c0.5-0.5,1.2-0.5,1.6-0.1c0.5,0.5,0.4,1.1-0.1,1.6
	c-1.5,1.4-2.8,2.8-4,4.5C5.9,17.7,4.4,21.1,3.7,25c-0.9,5.2-0.4,10.2,1.4,15.1c1,2.7,2.2,5.3,4.1,7.5c2.3,2.8,5.1,4.9,8.4,6.3
	c4.2,1.9,8.6,3,13.3,2.8c7.8-0.3,14.2-3.3,19.4-9.1c3.6-4,5.8-8.7,6.5-14c1-7.8-0.9-14.8-5.9-20.8c-4.1-4.9-9.3-8-15.5-9.3
	c-1.2-0.2-2.5-0.4-3.7-0.5c-0.3,0-0.4,0.1-0.4,0.4c0,3,0,6,0,9.1c0,0.6,0.4,0.4,0.7,0.5c2.4,0.4,4.5,1.4,6.3,3.1
	c2.3,2.2,3.5,5,3.5,8.2c0,3.9,0,7.9,0,11.8c-0.1,4.3-3.1,8.5-7.1,10c-6.8,2.6-14-1.2-15.6-8.3c-0.2-0.8-0.2-1.6-0.2-2.5
	c0-3.9-0.1-7.8,0-11.7c0.1-4.4,3.3-8.6,7.4-10.1c0.8-0.3,1.6-0.5,2.4-0.6c0.4,0,0.5-0.2,0.5-0.6c0-3.3,0-6.6,0-10
	c0-0.7,0.2-1.2,0.9-1.5c0.3,0,0.5,0,0.8,0c0.3,0.1,0.5,0.1,0.8,0c0.3,0,0.5,0,0.8,0c1.1,0.1,2.2,0.2,3.4,0.4c3.6,0.7,7,2,10.1,4
	c4.8,3.1,8.4,7.2,10.8,12.3c1.3,2.6,2.1,5.4,2.4,8.3c0.1,0.6,0,1.2,0.1,1.8c0,0.2,0,0.3,0,0.5c-0.1,0.2,0,0.5-0.1,0.7
	c0,0.2,0,0.4,0,0.6c0,0.3,0,0.6,0,0.9c0,0.2,0,0.4,0,0.6c0,0.2-0.1,0.5,0.1,0.7c0,0.2,0,0.4,0,0.6c-0.1,1.2-0.2,2.4-0.5,3.6
	c-0.9,4.4-2.8,8.4-5.6,12c-3.6,4.7-8.3,7.9-13.9,9.8c-2.2,0.7-4.4,1.2-6.8,1.3c-0.1,0-0.1,0-0.2,0.1c-0.3,0-0.6,0-0.9,0
	c-0.2-0.1-0.5-0.1-0.7,0c-0.3,0-0.5,0-0.8,0c-0.2-0.1-0.5-0.1-0.7,0c-0.2,0-0.5,0-0.7,0c-0.1-0.1-0.2-0.1-0.3,0c-0.2,0-0.3,0-0.5,0
	c-1.1-0.1-2.2-0.2-3.4-0.4c-5.2-1.1-10.1-3-14.1-6.5c-2.6-2.3-4.6-5-6.1-8.2c-0.8-1.8-1.6-3.7-2.1-5.7c-0.5-1.8-0.9-3.6-0.9-5.5
	c0-0.1,0-0.2-0.1-0.3c0-0.2,0-0.5,0-0.7c0.1-0.2,0.1-0.5,0-0.7c0-0.1,0-0.2,0-0.2c0.1-0.2,0-0.5,0.1-0.7c0-0.3,0.1-0.6-0.1-0.9
	c0-0.2,0-0.4,0-0.6c0.1-0.1,0.1-0.2,0-0.3C1.1,28.1,1.1,27.9,1.1,27.7z M1.1,30.1c0,0,0.1,0.1,0.1,0c0-0.3,0.1-0.6-0.1-0.9
	C1.1,29.5,1.1,29.8,1.1,30.1z M59.1,30.4c0-0.3,0-0.6,0-0.9c0-0.1-0.1-0.1-0.1,0c0,0.3,0,0.6,0,0.9C59,30.5,59.1,30.5,59.1,30.4z
	 M30.6,0.9c0.3,0.2,0.5,0.2,0.8,0C31.2,0.9,30.9,0.9,30.6,0.9z M59.1,28.9c0-0.2,0-0.5,0-0.7c-0.2,0.2-0.1,0.5-0.1,0.7
	C59,29,59.1,29,59.1,28.9z M1.1,30.8c0.2-0.2,0.1-0.4,0.1-0.7c0,0-0.1,0-0.1,0C1.1,30.3,1.1,30.5,1.1,30.8z M1.1,31.7
	c0.2-0.2,0.2-0.5,0-0.7C1.1,31.2,1.1,31.4,1.1,31.7z M59.1,31c0-0.1-0.1-0.1-0.1,0c0,0.2-0.1,0.5,0.1,0.7
	C59.1,31.4,59.1,31.2,59.1,31z M29.8,59c-0.2-0.2-0.5-0.2-0.7,0C29.4,59,29.6,59,29.8,59z M31.3,59c-0.2-0.2-0.5-0.2-0.7,0
	C30.9,59,31.1,59,31.3,59z M59,29.5c0,0,0.1,0,0.1,0c0-0.2,0-0.4,0-0.6c0,0-0.1,0-0.1,0C59,29.1,59,29.3,59,29.5z M59.1,30.4
	c0,0-0.1,0-0.1,0c0,0.2,0,0.4,0,0.6c0,0,0.1,0,0.1,0C59.1,30.8,59.1,30.6,59.1,30.4z M1.1,28.6c0.1-0.1,0.2-0.2,0-0.3
	C1.1,28.4,1.1,28.5,1.1,28.6z M28.5,59c-0.1-0.1-0.2-0.2-0.3,0C28.3,59,28.4,59,28.5,59z M20.8,36.2c0.3,3.7,2.1,6.3,5.5,7.9
	c3.2,1.5,6.4,1.1,9.3-0.9c2.7-1.9,3.9-4.6,3.9-7.9c0-3.5,0-7,0-10.4c0-0.5,0-1.1-0.1-1.6c-0.8-5.1-5.1-8.5-10.2-8.1
	c-4.4,0.4-8.1,4.2-8.4,8.6c-0.1,2.1,0,4.2-0.1,6.2C20.7,32,20.6,34.1,20.8,36.2z M31.1,21.8c0-0.7-0.4-1.2-1-1.2
	c-0.6,0-1.1,0.5-1.1,1.1c0,1.3,0,2.5,0,3.8c0,0.7,0.5,1.2,1.1,1.2c0.6,0,1-0.5,1-1.2c0-0.6,0-1.2,0-1.9C31.1,23,31.1,22.4,31.1,21.8
	z"/>
</svg>
