<?xml version="1.0" encoding="utf-8"?>
<svg version="1.1" xmlns="http://www.w3.org/2000/svg" xmlns:xlink="http://www.w3.org/1999/xlink" width="250" height="45" viewBox="0 0 287 45">
    <g id="logo_white">
        <path id="Forma-1" d="M16.875,25.781 C16.875,25.781 25.837,20.404 30.883,22.528 C31.929,20.934 32.960,19.217 33.968,17.465 C29.032,16.255 22.500,17.344 22.500,17.344 C22.500,17.344 30.859,12.329 35.977,13.898 C37.003,12.048 38.000,10.223 38.963,8.524 C34.886,8.248 30.937,8.906 30.937,8.906 C30.937,8.906 36.174,5.765 40.895,5.232 C42.380,2.822 43.758,0.931 45.000,0.000 C20.347,0.000 5.625,28.125 0.000,45.000 C0.000,45.000 1.812,45.000 1.812,45.000 L11.250,30.937 C11.250,30.937 14.063,33.750 22.500,30.937 C24.498,30.271 26.497,28.422 28.458,25.931 C23.509,24.676 16.875,25.781 16.875,25.781 z" fill="#FFCC00"/>
        <path id="ProWritersTime" d="M273.262,33.324 C273.262,33.324 273.228,33.524 273.228,33.524 C273.228,37.203 275.269,39.411 278.613,39.411 C281.088,39.411 282.460,38.341 283.262,35.732 C283.262,35.732 286.039,35.732 286.039,35.732 C285.169,39.712 282.593,41.752 278.513,41.752 C273.429,41.752 270.385,38.408 270.385,32.788 C270.385,27.203 273.630,23.423 278.413,23.423 C284.099,23.423 286.239,27.939 286.239,32.922 C286.239,32.922 286.239,33.324 286.239,33.324 L273.262,33.324 zM278.346,25.765 C275.570,25.765 273.630,27.771 273.262,31.016 C273.262,31.016 283.296,31.016 283.296,31.016 C283.028,27.738 281.189,25.765 278.346,25.765 zM264.173,30.313 C264.173,27.872 263.805,25.999 260.728,25.999 C257.484,25.999 256.313,28.206 256.313,31.384 C256.313,31.384 256.313,41.184 256.313,41.184 L253.470,41.184 C253.470,41.184 253.470,30.113 253.470,30.113 C253.470,27.838 253.035,26.032 250.292,26.032 C246.480,26.032 245.610,28.808 245.610,32.053 C245.610,32.053 245.610,41.184 245.610,41.184 L242.767,41.184 L242.767,23.925 L245.443,23.925 C245.443,23.925 245.443,26.434 245.443,26.434 C246.914,24.460 248.520,23.490 251.062,23.490 C253.370,23.490 254.975,24.393 255.845,26.467 C257.316,24.494 258.989,23.457 261.564,23.457 C265.210,23.457 267.016,25.597 267.016,29.109 C267.016,29.109 267.016,41.184 267.016,41.184 L264.173,41.184 C264.173,41.184 264.173,30.313 264.173,30.313 zM235.478,23.925 L238.355,23.925 L238.355,41.184 L235.478,41.184 L235.478,23.925 zM235.478,17.369 L238.355,17.369 L238.355,20.848 L235.478,20.848 L235.478,17.369 zM225.183,41.184 L222.039,41.184 L222.039,20.112 L214.045,20.112 L214.045,17.369 L233.176,17.369 L233.176,20.112 L225.183,20.112 L225.183,41.184 zM213.014,35.832 C213.014,39.444 210.037,41.685 205.120,41.685 C200.806,41.685 197.093,39.980 197.026,35.565 C197.026,35.565 201.542,35.565 201.542,35.565 C201.709,37.638 203.047,38.441 205.221,38.441 C207.161,38.441 208.365,37.605 208.365,36.300 C208.365,34.829 206.960,34.561 204.485,33.993 C201.408,33.290 197.394,32.822 197.394,28.708 C197.394,25.330 200.137,23.423 204.953,23.423 C208.900,23.423 212.311,24.928 212.445,28.942 C212.445,28.942 208.030,28.942 208.030,28.942 C207.763,27.136 206.659,26.567 204.752,26.567 C203.080,26.567 202.077,27.203 202.077,28.273 C202.077,29.711 203.548,29.912 206.291,30.481 C209.402,31.116 213.014,31.919 213.014,35.832 zM194.221,27.805 C190.943,27.805 189.672,30.146 189.672,33.290 C189.672,33.290 189.672,41.184 189.672,41.184 L184.923,41.184 L184.923,23.925 L189.438,23.925 C189.438,23.925 189.438,27.102 189.438,27.102 C190.508,24.862 192.448,23.524 195.024,23.524 C195.391,23.524 195.592,23.557 196.060,23.624 C196.060,23.624 196.060,28.006 196.060,28.006 C195.224,27.838 194.756,27.805 194.221,27.805 zM173.824,38.341 C175.564,38.341 176.634,37.571 177.336,35.832 C177.336,35.832 181.885,35.832 181.885,35.832 C180.815,39.578 177.704,41.685 173.791,41.685 C168.473,41.685 164.961,38.073 164.961,32.655 C164.961,27.303 168.607,23.423 173.624,23.423 C178.841,23.423 182.153,27.236 182.153,33.290 C182.153,33.290 182.153,33.758 182.153,33.758 C182.153,33.758 169.777,33.758 169.777,33.758 C169.844,36.735 171.282,38.341 173.824,38.341 zM177.336,30.748 C177.136,28.641 175.998,26.868 173.624,26.868 C171.516,26.868 170.045,28.340 169.777,30.748 C169.777,30.748 177.336,30.748 177.336,30.748 zM155.165,36.100 C155.165,36.100 155.165,27.136 155.165,27.136 L152.288,27.136 L152.288,23.925 L155.165,23.925 L155.165,18.707 L159.881,18.707 L159.881,23.925 L163.393,23.925 L163.393,27.136 L159.881,27.136 C159.881,27.136 159.881,35.264 159.881,35.264 C159.881,36.936 159.914,37.705 161.955,37.705 C162.456,37.705 162.824,37.705 163.393,37.638 C163.393,37.638 163.393,41.250 163.393,41.250 C162.088,41.351 161.587,41.384 160.516,41.384 C156.436,41.384 155.165,40.314 155.165,36.100 zM145.401,23.925 L150.151,23.925 L150.151,41.184 L145.401,41.184 L145.401,23.925 zM141.626,27.805 C138.348,27.805 137.077,30.146 137.077,33.290 C137.077,33.290 137.077,41.184 137.077,41.184 L132.327,41.184 L132.327,23.925 L136.843,23.925 C136.843,23.925 136.843,27.102 136.843,27.102 C137.913,24.862 139.853,23.524 142.428,23.524 C142.796,23.524 142.997,23.557 143.465,23.624 C143.465,23.624 143.465,28.006 143.465,28.006 C142.629,27.838 142.161,27.805 141.626,27.805 zM119.326,41.184 L115.246,24.928 L111.232,41.184 L105.914,41.184 L99.592,17.369 L104.844,17.369 L108.657,33.558 L112.837,17.369 L117.754,17.369 L121.868,33.758 L125.815,17.369 L130.966,17.369 L124.544,41.184 L119.326,41.184 zM89.297,41.719 C83.912,41.719 80.367,38.073 80.367,32.554 C80.367,27.069 83.946,23.423 89.364,23.423 C94.682,23.423 98.194,27.069 98.194,32.554 C98.194,38.106 94.682,41.719 89.297,41.719 zM89.230,27.036 C86.688,27.036 85.116,29.109 85.116,32.554 C85.116,36.100 86.655,38.140 89.297,38.140 C91.906,38.140 93.445,36.066 93.445,32.521 C93.445,29.076 91.873,27.036 89.230,27.036 zM77.829,27.805 C74.551,27.805 73.280,30.146 73.280,33.290 C73.280,33.290 73.280,41.184 73.280,41.184 L68.530,41.184 L68.530,23.925 L73.046,23.925 C73.046,23.925 73.046,27.102 73.046,27.102 C74.116,24.862 76.056,23.524 78.631,23.524 C78.999,23.524 79.200,23.557 79.668,23.624 C79.668,23.624 79.668,28.006 79.668,28.006 C78.832,27.838 78.364,27.805 77.829,27.805 zM57.232,32.621 C57.232,32.621 51.881,32.621 51.881,32.621 L51.881,41.184 L46.696,41.184 L46.696,17.369 C46.696,17.369 56.965,17.369 56.965,17.369 C62.115,17.369 65.694,19.778 65.694,25.029 C65.694,30.213 62.015,32.621 57.232,32.621 zM56.563,21.651 C56.563,21.651 51.881,21.651 51.881,21.651 L51.881,28.507 C51.881,28.507 56.530,28.507 56.530,28.507 C58.871,28.507 60.610,27.738 60.610,25.096 C60.610,22.554 58.871,21.651 56.563,21.651 z" fill="#FFFFFF"/>
        <path id="." d="M149.991,16.997 L144.988,16.997 L144.988,21.996 L149.991,21.996 L149.991,16.997 z" fill="#FFCC00"/>
    </g>
</svg>