<svg version="1.1" xmlns="http://www.w3.org/2000/svg" xmlns:xlink="http://www.w3.org/1999/xlink" width="14" height="15" viewBox="0 0 14 15">
<g id="notification">
<path id="notification" d="M6.964,0.912 C3.179,0.912 0.108,3.983 0.108,7.768 C0.108,11.553 3.179,14.623 6.964,14.623 C10.748,14.623 13.819,11.553 13.819,7.768 C13.819,3.983 10.748,0.912 6.964,0.912 zM8.106,12.043 C8.106,12.204 7.981,12.338 7.829,12.338 C7.829,12.338 6.116,12.338 6.116,12.338 C5.955,12.338 5.821,12.204 5.821,12.043 C5.821,12.043 5.821,10.347 5.821,10.347 C5.821,10.187 5.955,10.053 6.116,10.053 C6.116,10.053 7.829,10.053 7.829,10.053 C7.981,10.053 8.106,10.187 8.106,10.347 C8.106,10.347 8.106,12.043 8.106,12.043 zM8.088,8.973 C8.079,9.098 7.945,9.196 7.785,9.196 C7.785,9.196 6.133,9.196 6.133,9.196 C5.964,9.196 5.830,9.098 5.830,8.973 C5.830,8.973 5.678,3.429 5.678,3.429 C5.678,3.367 5.705,3.305 5.767,3.269 C5.821,3.224 5.901,3.197 5.982,3.197 C5.982,3.197 7.945,3.197 7.945,3.197 C8.026,3.197 8.106,3.224 8.160,3.269 C8.222,3.305 8.249,3.367 8.249,3.429 C8.249,3.429 8.088,8.973 8.088,8.973 z" fill="#ef5757"  />
</g>
</svg>
