<svg version="1.1" xmlns="http://www.w3.org/2000/svg" xmlns:xlink="http://www.w3.org/1999/xlink" width="14" height="15" viewBox="0 0 14 15">
<g id="faq_minus">
<path id="faq_minus" d="M10.938,8.275 C10.938,8.588 10.679,8.847 10.366,8.847 C10.366,8.847 3.511,8.847 3.511,8.847 C3.198,8.847 2.940,8.588 2.940,8.275 C2.940,8.275 2.940,7.133 2.940,7.133 C2.940,6.820 3.198,6.562 3.511,6.562 C3.511,6.562 10.366,6.562 10.366,6.562 C10.679,6.562 10.938,6.820 10.938,7.133 C10.938,7.133 10.938,8.275 10.938,8.275 zM13.794,7.704 C13.794,3.919 10.723,0.849 6.939,0.849 C3.154,0.849 0.083,3.919 0.083,7.704 C0.083,11.489 3.154,14.560 6.939,14.560 C10.723,14.560 13.794,11.489 13.794,7.704 z" fill="#FEFEFE" />
</g>
</svg>
